{"glyphs":{"0":{"ha":829,"x_min":0,"x_max":0,"o":"m 414 -16 b 60 490 192 -16 60 180 b 414 994 60 797 193 994 b 768 490 636 994 768 798 b 414 -16 768 181 637 -16 m 414 66 b 675 490 580 66 675 231 b 414 912 675 747 578 912 b 153 490 251 912 153 745 b 414 66 153 231 249 66 "},"1":{"ha":585,"x_min":0,"x_max":0,"o":"m 329 880 l 326 880 l 64 703 l 64 798 l 328 979 l 418 979 l 418 0 l 329 0 "},"2":{"ha":781,"x_min":0,"x_max":0,"o":"m 78 704 b 395 994 79 871 214 994 b 696 724 571 994 696 873 b 473 359 696 618 648 538 l 212 85 l 212 83 l 721 83 l 721 0 l 83 0 l 83 65 l 429 429 b 604 720 569 575 604 633 b 395 913 604 827 519 913 b 168 704 266 913 169 824 l 78 704 "},"3":{"ha":802,"x_min":0,"x_max":0,"o":"m 271 547 l 385 547 b 606 732 515 547 606 624 b 396 913 606 838 528 913 b 171 731 273 913 178 842 l 81 731 b 396 994 93 888 220 994 b 699 744 583 994 699 884 b 490 512 699 623 616 537 l 490 509 b 734 268 636 498 734 407 b 399 -16 734 102 590 -16 b 61 254 204 -16 67 97 l 151 254 b 399 66 156 142 259 66 b 640 265 541 66 640 149 b 389 467 641 393 545 467 l 271 467 "},"4":{"ha":823,"x_min":0,"x_max":0,"o":"m 547 221 l 51 221 l 51 306 b 502 980 157 485 286 677 l 637 980 l 637 303 l 783 303 l 783 221 l 637 221 l 637 0 l 547 0 m 144 303 l 547 303 l 547 899 l 546 899 b 144 306 366 649 242 465 "},"5":{"ha":804,"x_min":0,"x_max":0,"o":"m 410 -16 b 82 255 231 -16 94 97 l 173 255 b 412 66 186 145 286 66 b 661 313 557 66 661 170 b 416 559 661 455 557 559 b 183 430 316 559 233 515 l 100 430 l 153 979 l 695 979 l 695 896 l 229 896 l 191 527 l 193 527 b 431 640 242 599 331 640 b 754 315 617 640 754 503 b 410 -16 754 122 610 -16 "},"6":{"ha":818,"x_min":0,"x_max":0,"o":"m 427 -16 b 62 469 258 -16 62 96 b 433 994 62 797 201 994 b 749 751 596 994 722 898 l 655 751 b 433 912 629 850 544 912 b 151 455 254 912 151 745 l 153 455 b 441 641 191 560 301 641 b 766 317 627 641 766 503 b 427 -16 766 125 623 -16 m 426 67 b 672 315 564 67 672 176 b 427 559 672 455 568 559 b 178 321 287 559 178 454 b 426 67 178 179 286 67 "},"7":{"ha":749,"x_min":0,"x_max":0,"o":"m 598 893 l 598 896 l 54 896 l 54 979 l 691 979 l 691 892 l 243 0 l 144 0 "},"8":{"ha":821,"x_min":0,"x_max":0,"o":"m 410 -16 b 62 266 205 -16 62 102 b 280 517 62 389 150 490 l 280 519 b 97 739 168 550 97 633 b 410 994 97 886 229 994 b 723 739 593 994 723 886 b 541 519 723 635 652 551 l 541 517 b 759 266 671 490 759 389 b 410 -16 759 102 616 -16 m 410 555 b 631 731 539 555 631 628 b 410 913 631 836 543 913 b 189 731 279 913 189 836 b 410 555 189 628 281 555 m 410 66 b 665 271 562 66 665 153 b 410 472 665 389 561 472 b 156 271 260 472 156 389 b 410 66 156 153 259 66 "},"9":{"ha":818,"x_min":0,"x_max":0,"o":"m 385 -16 b 67 226 218 -16 93 81 l 161 226 b 386 66 186 127 269 66 b 667 525 548 66 668 206 l 665 525 b 376 338 627 415 511 338 b 52 659 190 338 52 475 b 391 994 52 852 195 994 b 756 510 555 994 756 886 b 385 -16 756 182 618 -16 m 391 420 b 641 657 532 420 641 526 b 392 911 641 799 533 911 b 145 662 253 911 145 802 b 391 420 145 525 248 420 "},"":{"ha":0,"x_min":0,"x_max":0,"o":""}," ":{"ha":284,"x_min":0,"x_max":0,"o":""}," ":{"ha":275,"x_min":0,"x_max":0,"o":""}," ":{"ha":694,"x_min":0,"x_max":0,"o":""}," ":{"ha":1389,"x_min":0,"x_max":0,"o":""}," ":{"ha":770,"x_min":0,"x_max":0,"o":""}," ":{"ha":1291,"x_min":0,"x_max":0,"o":""}," ":{"ha":463,"x_min":0,"x_max":0,"o":""}," ":{"ha":347,"x_min":0,"x_max":0,"o":""}," ":{"ha":231,"x_min":0,"x_max":0,"o":""}," ":{"ha":826,"x_min":0,"x_max":0,"o":""}," ":{"ha":345,"x_min":0,"x_max":0,"o":""}," ":{"ha":278,"x_min":0,"x_max":0,"o":""}," ":{"ha":77,"x_min":0,"x_max":0,"o":""},"​":{"ha":0,"x_min":0,"x_max":0,"o":""},"‌":{"ha":0,"x_min":0,"x_max":0,"o":""},"‍":{"ha":0,"x_min":0,"x_max":0,"o":""}," ":{"ha":278,"x_min":0,"x_max":0,"o":""}," ":{"ha":347,"x_min":0,"x_max":0,"o":""},"A":{"ha":856,"x_min":0,"x_max":0,"o":"m 633 300 l 222 300 l 114 0 l 16 0 l 382 979 l 474 979 l 840 0 l 742 0 m 250 380 l 606 380 l 430 864 l 426 864 "},"À":{"ha":856,"x_min":0,"x_max":0,"o":"m 231 1252 l 332 1252 l 458 1056 l 385 1056 m 633 300 l 222 300 l 114 0 l 16 0 l 382 979 l 474 979 l 840 0 l 742 0 m 250 380 l 606 380 l 430 864 l 426 864 "},"Á":{"ha":856,"x_min":0,"x_max":0,"o":"m 398 1056 l 523 1252 l 625 1252 l 470 1056 m 633 300 l 222 300 l 114 0 l 16 0 l 382 979 l 474 979 l 840 0 l 742 0 m 250 380 l 606 380 l 430 864 l 426 864 "},"Ä":{"ha":856,"x_min":0,"x_max":0,"o":"m 312 1101 b 252 1160 279 1101 252 1128 b 312 1221 252 1194 279 1221 b 372 1160 345 1221 372 1194 b 312 1101 372 1128 345 1101 m 544 1101 b 484 1160 511 1101 484 1128 b 544 1221 484 1194 511 1221 b 604 1160 577 1221 604 1194 b 544 1101 604 1128 577 1101 m 633 300 l 222 300 l 114 0 l 16 0 l 382 979 l 474 979 l 840 0 l 742 0 m 250 380 l 606 380 l 430 864 l 426 864 "},"Ǟ":{"ha":856,"x_min":0,"x_max":0,"o":"m 635 1342 l 635 1280 l 221 1280 l 221 1342 m 317 1174 b 376 1114 349 1174 376 1147 b 317 1054 376 1080 349 1054 b 257 1114 283 1054 257 1080 b 317 1174 257 1147 283 1174 m 539 1174 b 599 1114 572 1174 599 1147 b 539 1054 599 1080 572 1054 b 480 1114 507 1054 480 1080 b 539 1174 480 1147 507 1174 m 633 300 l 222 300 l 114 0 l 16 0 l 382 979 l 474 979 l 840 0 l 742 0 m 250 380 l 606 380 l 430 864 l 426 864 "},"Å":{"ha":856,"x_min":0,"x_max":0,"o":"m 428 1028 b 304 1152 360 1028 304 1084 b 428 1276 304 1220 360 1276 b 551 1152 496 1276 551 1220 b 428 1028 551 1084 496 1028 m 428 1077 b 503 1152 469 1077 503 1110 b 428 1227 503 1194 469 1227 b 353 1152 386 1227 353 1194 b 428 1077 353 1110 386 1077 m 633 300 l 222 300 l 114 0 l 16 0 l 382 979 l 474 979 l 840 0 l 742 0 m 250 380 l 606 380 l 430 864 l 426 864 "},"Ǻ":{"ha":856,"x_min":0,"x_max":0,"o":"m 567 1419 l 465 1297 l 390 1297 l 483 1419 m 428 1014 b 307 1135 361 1014 307 1068 b 428 1255 307 1201 361 1255 b 549 1135 494 1255 549 1201 b 428 1014 549 1068 494 1014 m 428 1061 b 502 1135 469 1061 502 1093 b 428 1209 502 1176 469 1209 b 354 1135 387 1209 354 1176 b 428 1061 354 1093 387 1061 m 633 300 l 222 300 l 114 0 l 16 0 l 382 979 l 474 979 l 840 0 l 742 0 m 250 380 l 606 380 l 430 864 l 426 864 "},"Ã":{"ha":856,"x_min":0,"x_max":0,"o":"m 507 1076 b 343 1174 412 1076 397 1174 b 288 1081 308 1174 288 1142 l 225 1081 b 347 1238 225 1177 269 1238 b 509 1139 440 1238 451 1139 b 568 1232 546 1139 568 1172 l 630 1232 b 507 1076 630 1137 585 1076 m 633 300 l 222 300 l 114 0 l 16 0 l 382 979 l 474 979 l 840 0 l 742 0 m 250 380 l 606 380 l 430 864 l 426 864 "},"Ằ":{"ha":856,"x_min":0,"x_max":0,"o":"m 404 1224 l 269 1367 l 359 1367 l 484 1224 m 631 1223 b 428 1048 625 1120 544 1048 b 224 1223 312 1048 230 1120 l 292 1223 b 428 1108 297 1155 351 1108 b 564 1223 505 1108 558 1155 l 631 1223 m 633 300 l 222 300 l 114 0 l 16 0 l 382 979 l 474 979 l 840 0 l 742 0 m 250 380 l 606 380 l 430 864 l 426 864 "},"Ǡ":{"ha":856,"x_min":0,"x_max":0,"o":"m 635 1280 l 221 1280 l 221 1342 l 635 1342 m 428 1063 b 360 1131 391 1063 360 1093 b 428 1196 360 1166 391 1196 b 495 1131 465 1196 495 1166 b 428 1063 495 1093 465 1063 m 633 300 l 222 300 l 114 0 l 16 0 l 382 979 l 474 979 l 840 0 l 742 0 m 250 380 l 606 380 l 430 864 l 426 864 "},"Ḁ":{"ha":856,"x_min":0,"x_max":0,"o":"m 633 300 l 222 300 l 114 0 l 16 0 l 382 979 l 474 979 l 840 0 l 742 0 m 250 380 l 606 380 l 430 864 l 426 864 m 428 -291 b 304 -168 360 -291 304 -235 b 428 -44 304 -100 360 -44 b 551 -168 496 -44 551 -100 b 428 -291 551 -235 496 -291 m 428 -243 b 503 -168 469 -243 503 -209 b 428 -92 503 -126 469 -92 b 353 -168 386 -92 353 -126 b 428 -243 353 -209 386 -243 "},"Â":{"ha":856,"x_min":0,"x_max":0,"o":"m 463 1252 l 644 1053 l 557 1053 l 429 1196 l 426 1196 l 298 1053 l 211 1053 l 393 1252 m 633 300 l 222 300 l 114 0 l 16 0 l 382 979 l 474 979 l 840 0 l 742 0 m 250 380 l 606 380 l 430 864 l 426 864 "},"Ậ":{"ha":856,"x_min":0,"x_max":0,"o":"m 463 1252 l 644 1053 l 557 1053 l 429 1196 l 426 1196 l 298 1053 l 211 1053 l 393 1252 m 633 300 l 222 300 l 114 0 l 16 0 l 382 979 l 474 979 l 840 0 l 742 0 m 250 380 l 606 380 l 430 864 l 426 864 m 428 -227 b 368 -168 395 -227 368 -201 b 428 -108 368 -134 395 -108 b 488 -168 461 -108 488 -134 b 428 -227 488 -201 461 -227 "},"Ấ":{"ha":856,"x_min":0,"x_max":0,"o":"m 671 1367 l 762 1367 l 626 1224 l 547 1224 m 467 1211 l 655 1047 l 562 1047 l 429 1162 l 426 1162 l 294 1047 l 201 1047 l 388 1211 m 633 300 l 222 300 l 114 0 l 16 0 l 382 979 l 474 979 l 840 0 l 742 0 m 250 380 l 606 380 l 430 864 l 426 864 "},"Ẫ":{"ha":856,"x_min":0,"x_max":0,"o":"m 509 1242 b 349 1334 420 1242 401 1334 b 292 1257 314 1334 294 1303 l 229 1257 b 347 1389 229 1333 273 1389 b 507 1299 436 1389 454 1299 b 564 1374 539 1299 561 1328 l 627 1374 b 509 1242 627 1299 580 1242 m 467 1206 l 655 1047 l 562 1047 l 429 1158 l 426 1158 l 294 1047 l 201 1047 l 388 1206 m 633 300 l 222 300 l 114 0 l 16 0 l 382 979 l 474 979 l 840 0 l 742 0 m 250 380 l 606 380 l 430 864 l 426 864 "},"Ầ":{"ha":856,"x_min":0,"x_max":0,"o":"m 592 1224 l 456 1367 l 547 1367 l 671 1224 m 467 1211 l 655 1047 l 562 1047 l 429 1162 l 426 1162 l 294 1047 l 201 1047 l 388 1211 m 633 300 l 222 300 l 114 0 l 16 0 l 382 979 l 474 979 l 840 0 l 742 0 m 250 380 l 606 380 l 430 864 l 426 864 "},"Ẩ":{"ha":856,"x_min":0,"x_max":0,"o":"m 512 1355 b 581 1371 530 1364 557 1371 b 688 1278 644 1371 688 1333 b 616 1178 688 1234 661 1194 l 575 1213 b 627 1274 607 1225 627 1248 b 572 1320 627 1301 604 1320 b 512 1307 549 1320 526 1315 m 467 1211 l 655 1047 l 562 1047 l 429 1162 l 426 1162 l 294 1047 l 201 1047 l 388 1211 m 633 300 l 222 300 l 114 0 l 16 0 l 382 979 l 474 979 l 840 0 l 742 0 m 250 380 l 606 380 l 430 864 l 426 864 "},"Ă":{"ha":856,"x_min":0,"x_max":0,"o":"m 296 1242 b 428 1115 303 1163 353 1115 b 559 1242 503 1115 552 1163 l 627 1242 b 428 1055 619 1137 547 1055 b 229 1242 309 1055 237 1137 m 633 300 l 222 300 l 114 0 l 16 0 l 382 979 l 474 979 l 840 0 l 742 0 m 250 380 l 606 380 l 430 864 l 426 864 "},"Ắ":{"ha":856,"x_min":0,"x_max":0,"o":"m 496 1367 l 587 1367 l 451 1224 l 372 1224 m 292 1223 b 428 1108 297 1155 351 1108 b 564 1223 505 1108 558 1155 l 631 1223 b 428 1048 625 1120 544 1048 b 224 1223 312 1048 230 1120 m 633 300 l 222 300 l 114 0 l 16 0 l 382 979 l 474 979 l 840 0 l 742 0 m 250 380 l 606 380 l 430 864 l 426 864 "},"Ẵ":{"ha":856,"x_min":0,"x_max":0,"o":"m 509 1242 b 349 1334 420 1242 401 1334 b 292 1257 314 1334 294 1303 l 229 1257 b 347 1389 229 1333 273 1389 b 507 1299 436 1389 454 1299 b 564 1374 539 1299 561 1328 l 627 1374 b 509 1242 627 1299 580 1242 m 292 1214 b 428 1108 297 1156 351 1108 b 564 1214 505 1108 558 1156 l 631 1214 b 428 1048 625 1124 544 1048 b 224 1214 312 1048 230 1124 m 633 300 l 222 300 l 114 0 l 16 0 l 382 979 l 474 979 l 840 0 l 742 0 m 250 380 l 606 380 l 430 864 l 426 864 "},"Ẳ":{"ha":856,"x_min":0,"x_max":0,"o":"m 331 1393 b 406 1411 347 1403 376 1411 b 522 1309 475 1411 522 1370 b 432 1194 522 1260 488 1216 l 400 1238 b 456 1305 435 1250 456 1277 b 396 1356 456 1334 431 1356 b 331 1340 372 1356 347 1348 m 292 1223 b 428 1108 297 1155 351 1108 b 564 1223 505 1108 558 1155 l 631 1223 b 428 1048 625 1120 544 1048 b 224 1223 312 1048 230 1120 m 633 300 l 222 300 l 114 0 l 16 0 l 382 979 l 474 979 l 840 0 l 742 0 m 250 380 l 606 380 l 430 864 l 426 864 "},"Ặ":{"ha":856,"x_min":0,"x_max":0,"o":"m 296 1242 b 428 1115 303 1163 353 1115 b 559 1242 503 1115 552 1163 l 627 1242 b 428 1055 619 1137 547 1055 b 229 1242 309 1055 237 1137 m 633 300 l 222 300 l 114 0 l 16 0 l 382 979 l 474 979 l 840 0 l 742 0 m 250 380 l 606 380 l 430 864 l 426 864 m 428 -227 b 368 -168 395 -227 368 -201 b 428 -108 368 -134 395 -108 b 488 -168 461 -108 488 -134 b 428 -227 488 -201 461 -227 "},"Ȃ":{"ha":856,"x_min":0,"x_max":0,"o":"m 559 1055 b 428 1182 552 1133 503 1182 b 296 1055 353 1182 303 1133 l 229 1055 b 428 1242 237 1160 309 1242 b 627 1055 547 1242 619 1160 m 633 300 l 222 300 l 114 0 l 16 0 l 382 979 l 474 979 l 840 0 l 742 0 m 250 380 l 606 380 l 430 864 l 426 864 "},"Ǎ":{"ha":856,"x_min":0,"x_max":0,"o":"m 393 1053 l 211 1252 l 298 1252 l 426 1109 l 429 1109 l 557 1252 l 644 1252 l 463 1053 m 633 300 l 222 300 l 114 0 l 16 0 l 382 979 l 474 979 l 840 0 l 742 0 m 250 380 l 606 380 l 430 864 l 426 864 "},"Ȧ":{"ha":856,"x_min":0,"x_max":0,"o":"m 428 1101 b 368 1160 395 1101 368 1128 b 428 1221 368 1194 395 1221 b 488 1160 461 1221 488 1194 b 428 1101 488 1128 461 1101 m 633 300 l 222 300 l 114 0 l 16 0 l 382 979 l 474 979 l 840 0 l 742 0 m 250 380 l 606 380 l 430 864 l 426 864 "},"Ạ":{"ha":856,"x_min":0,"x_max":0,"o":"m 633 300 l 222 300 l 114 0 l 16 0 l 382 979 l 474 979 l 840 0 l 742 0 m 250 380 l 606 380 l 430 864 l 426 864 m 428 -227 b 368 -168 395 -227 368 -201 b 428 -108 368 -134 395 -108 b 488 -168 461 -108 488 -134 b 428 -227 488 -201 461 -227 "},"Ả":{"ha":856,"x_min":0,"x_max":0,"o":"m 325 1239 b 405 1255 345 1249 375 1255 b 526 1154 477 1255 526 1216 b 432 1039 526 1104 490 1060 l 399 1082 b 458 1150 434 1095 458 1121 b 394 1201 458 1180 431 1201 b 325 1186 370 1201 342 1196 m 633 300 l 222 300 l 114 0 l 16 0 l 382 979 l 474 979 l 840 0 l 742 0 m 250 380 l 606 380 l 430 864 l 426 864 "},"Ȁ":{"ha":856,"x_min":0,"x_max":0,"o":"m 488 1057 l 370 1252 l 465 1252 l 555 1057 m 299 1057 l 156 1252 l 255 1252 l 371 1057 m 633 300 l 222 300 l 114 0 l 16 0 l 382 979 l 474 979 l 840 0 l 742 0 m 250 380 l 606 380 l 430 864 l 426 864 "},"Ā":{"ha":856,"x_min":0,"x_max":0,"o":"m 610 1124 l 245 1124 l 245 1189 l 610 1189 m 633 300 l 222 300 l 114 0 l 16 0 l 382 979 l 474 979 l 840 0 l 742 0 m 250 380 l 606 380 l 430 864 l 426 864 "},"Ą":{"ha":856,"x_min":0,"x_max":0,"o":"m 771 -270 b 630 -153 700 -270 630 -236 b 740 4 630 -94 663 -43 l 633 300 l 222 300 l 114 0 l 16 0 l 382 979 l 474 979 l 840 0 b 711 -134 771 -32 711 -75 b 789 -201 711 -187 751 -201 b 836 -194 806 -201 826 -198 l 836 -259 b 771 -270 817 -265 794 -270 m 250 380 l 606 380 l 430 864 l 426 864 "},"B":{"ha":817,"x_min":0,"x_max":0,"o":"m 92 0 l 92 979 l 444 979 b 726 737 612 979 726 882 b 547 517 726 629 651 536 l 547 512 b 777 269 682 496 777 404 b 446 0 777 102 652 0 m 184 544 l 397 544 b 632 727 545 544 632 612 b 424 897 632 833 554 897 l 184 897 m 433 82 b 682 273 593 82 682 152 b 420 464 682 395 589 464 l 184 464 l 184 82 "},"Ḇ":{"ha":817,"x_min":0,"x_max":0,"o":"m 92 0 l 92 979 l 444 979 b 726 737 612 979 726 882 b 547 517 726 629 651 536 l 547 512 b 777 269 682 496 777 404 b 446 0 777 102 652 0 m 184 544 l 397 544 b 632 727 545 544 632 612 b 424 897 632 833 554 897 l 184 897 m 433 82 b 682 273 593 82 682 152 b 420 464 682 395 589 464 l 184 464 l 184 82 m 550 -200 l 184 -200 l 184 -136 l 550 -136 "},"Ḅ":{"ha":817,"x_min":0,"x_max":0,"o":"m 92 0 l 92 979 l 444 979 b 726 737 612 979 726 882 b 547 517 726 629 651 536 l 547 512 b 777 269 682 496 777 404 b 446 0 777 102 652 0 m 184 544 l 397 544 b 632 727 545 544 632 612 b 424 897 632 833 554 897 l 184 897 m 433 82 b 682 273 593 82 682 152 b 420 464 682 395 589 464 l 184 464 l 184 82 m 368 -227 b 307 -168 334 -227 307 -201 b 368 -108 307 -134 334 -108 b 427 -168 401 -108 427 -134 b 368 -227 427 -201 401 -227 "},"Ḃ":{"ha":817,"x_min":0,"x_max":0,"o":"m 368 1101 b 307 1160 334 1101 307 1128 b 368 1221 307 1194 334 1221 b 427 1160 401 1221 427 1194 b 368 1101 427 1128 401 1101 m 92 0 l 92 979 l 444 979 b 726 737 612 979 726 882 b 547 517 726 629 651 536 l 547 512 b 777 269 682 496 777 404 b 446 0 777 102 652 0 m 184 544 l 397 544 b 632 727 545 544 632 612 b 424 897 632 833 554 897 l 184 897 m 433 82 b 682 273 593 82 682 152 b 420 464 682 395 589 464 l 184 464 l 184 82 "},"C":{"ha":930,"x_min":0,"x_max":0,"o":"m 488 -16 b 52 492 222 -16 52 182 b 488 994 52 798 222 994 b 885 668 695 994 859 859 l 792 668 b 488 908 765 809 640 908 b 147 492 281 908 147 746 b 489 71 147 234 281 71 b 792 290 645 71 763 154 l 885 290 b 488 -16 850 99 701 -16 "},"Ć":{"ha":930,"x_min":0,"x_max":0,"o":"m 458 1056 l 583 1252 l 686 1252 l 531 1056 m 488 -16 b 52 492 222 -16 52 182 b 488 994 52 798 222 994 b 885 668 695 994 859 859 l 792 668 b 488 908 765 809 640 908 b 147 492 281 908 147 746 b 489 71 147 234 281 71 b 792 290 645 71 763 154 l 885 290 b 488 -16 850 99 701 -16 "},"Č":{"ha":930,"x_min":0,"x_max":0,"o":"m 453 1053 l 272 1252 l 359 1252 l 487 1109 l 490 1109 l 618 1252 l 705 1252 l 524 1053 m 488 -16 b 52 492 222 -16 52 182 b 488 994 52 798 222 994 b 885 668 695 994 859 859 l 792 668 b 488 908 765 809 640 908 b 147 492 281 908 147 746 b 489 71 147 234 281 71 b 792 290 645 71 763 154 l 885 290 b 488 -16 850 99 701 -16 "},"Ĉ":{"ha":930,"x_min":0,"x_max":0,"o":"m 524 1252 l 705 1053 l 618 1053 l 490 1196 l 487 1196 l 359 1053 l 272 1053 l 453 1252 m 488 -16 b 52 492 222 -16 52 182 b 488 994 52 798 222 994 b 885 668 695 994 859 859 l 792 668 b 488 908 765 809 640 908 b 147 492 281 908 147 746 b 489 71 147 234 281 71 b 792 290 645 71 763 154 l 885 290 b 488 -16 850 99 701 -16 "},"Ċ":{"ha":930,"x_min":0,"x_max":0,"o":"m 488 1101 b 429 1160 456 1101 429 1128 b 488 1221 429 1194 456 1221 b 549 1160 522 1221 549 1194 b 488 1101 549 1128 522 1101 m 488 -16 b 52 492 222 -16 52 182 b 488 994 52 798 222 994 b 885 668 695 994 859 859 l 792 668 b 488 908 765 809 640 908 b 147 492 281 908 147 746 b 489 71 147 234 281 71 b 792 290 645 71 763 154 l 885 290 b 488 -16 850 99 701 -16 "},"Ç":{"ha":930,"x_min":0,"x_max":0,"o":"m 419 -106 l 462 -15 b 52 492 210 -2 52 192 b 488 994 52 798 222 994 b 885 668 695 994 859 859 l 792 668 b 488 908 765 809 640 908 b 147 492 281 908 147 746 b 489 71 147 234 281 71 b 792 290 645 71 763 154 l 885 290 b 530 -14 852 112 720 0 l 494 -89 b 637 -197 582 -91 637 -130 b 480 -316 637 -272 568 -315 b 385 -306 444 -317 402 -312 l 385 -248 b 463 -257 399 -252 430 -257 b 562 -199 513 -257 562 -237 b 462 -146 562 -163 528 -146 l 419 -146 "},"Ḉ":{"ha":930,"x_min":0,"x_max":0,"o":"m 458 1056 l 583 1252 l 686 1252 l 531 1056 m 419 -106 l 462 -15 b 52 492 210 -2 52 192 b 488 994 52 798 222 994 b 885 668 695 994 859 859 l 792 668 b 488 908 765 809 640 908 b 147 492 281 908 147 746 b 489 71 147 234 281 71 b 792 290 645 71 763 154 l 885 290 b 530 -14 852 112 720 0 l 494 -89 b 637 -197 582 -91 637 -130 b 480 -316 637 -272 568 -315 b 385 -306 444 -317 402 -312 l 385 -248 b 463 -257 399 -252 430 -257 b 562 -199 513 -257 562 -237 b 462 -146 562 -163 528 -146 l 419 -146 "},"D":{"ha":925,"x_min":0,"x_max":0,"o":"m 409 979 b 873 490 702 979 873 799 b 409 0 873 180 703 0 l 92 0 l 92 979 m 184 84 l 404 84 b 779 489 644 84 779 229 b 404 895 779 749 644 895 l 184 895 "},"Ḋ":{"ha":925,"x_min":0,"x_max":0,"o":"m 366 1101 b 307 1160 334 1101 307 1128 b 366 1221 307 1194 334 1221 b 427 1160 400 1221 427 1194 b 366 1101 427 1128 400 1101 m 409 979 b 873 490 702 979 873 799 b 409 0 873 180 703 0 l 92 0 l 92 979 m 184 84 l 404 84 b 779 489 644 84 779 229 b 404 895 779 749 644 895 l 184 895 "},"Ḓ":{"ha":925,"x_min":0,"x_max":0,"o":"m 409 979 b 873 490 702 979 873 799 b 409 0 873 180 703 0 l 92 0 l 92 979 m 184 84 l 404 84 b 779 489 644 84 779 229 b 404 895 779 749 644 895 l 184 895 m 402 -89 l 583 -288 l 496 -288 l 368 -145 l 365 -145 l 237 -288 l 150 -288 l 331 -89 "},"Ḑ":{"ha":925,"x_min":0,"x_max":0,"o":"m 409 979 b 873 490 702 979 873 799 b 409 0 873 180 703 0 l 92 0 l 92 979 m 184 84 l 404 84 b 779 489 644 84 779 229 b 404 895 779 749 644 895 l 184 895 m 252 -328 l 323 -89 l 408 -89 l 321 -328 "},"Ḏ":{"ha":925,"x_min":0,"x_max":0,"o":"m 409 979 b 873 490 702 979 873 799 b 409 0 873 180 703 0 l 92 0 l 92 979 m 184 84 l 404 84 b 779 489 644 84 779 229 b 404 895 779 749 644 895 l 184 895 m 549 -200 l 184 -200 l 184 -136 l 549 -136 "},"Ď":{"ha":925,"x_min":0,"x_max":0,"o":"m 331 1053 l 150 1252 l 237 1252 l 365 1109 l 368 1109 l 496 1252 l 583 1252 l 402 1053 m 409 979 b 873 490 702 979 873 799 b 409 0 873 180 703 0 l 92 0 l 92 979 m 184 84 l 404 84 b 779 489 644 84 779 229 b 404 895 779 749 644 895 l 184 895 "},"Ḍ":{"ha":925,"x_min":0,"x_max":0,"o":"m 409 979 b 873 490 702 979 873 799 b 409 0 873 180 703 0 l 92 0 l 92 979 m 184 84 l 404 84 b 779 489 644 84 779 229 b 404 895 779 749 644 895 l 184 895 m 366 -227 b 307 -168 334 -227 307 -201 b 366 -108 307 -134 334 -108 b 427 -168 400 -108 427 -134 b 366 -227 427 -201 400 -227 "},"Đ":{"ha":925,"x_min":0,"x_max":0,"o":"m 3 546 l 92 546 l 92 979 l 409 979 b 873 490 702 979 873 799 b 409 0 873 180 703 0 l 92 0 l 92 462 l 3 462 m 184 546 l 433 546 l 433 462 l 184 462 l 184 84 l 404 84 b 779 489 644 84 779 229 b 404 895 779 749 644 895 l 184 895 "},"E":{"ha":749,"x_min":0,"x_max":0,"o":"m 682 0 l 92 0 l 92 979 l 682 979 l 682 895 l 184 895 l 184 543 l 657 543 l 657 460 l 184 460 l 184 84 l 682 84 "},"È":{"ha":749,"x_min":0,"x_max":0,"o":"m 190 1252 l 292 1252 l 416 1056 l 345 1056 m 682 0 l 92 0 l 92 979 l 682 979 l 682 895 l 184 895 l 184 543 l 657 543 l 657 460 l 184 460 l 184 84 l 682 84 "},"Ȅ":{"ha":749,"x_min":0,"x_max":0,"o":"m 447 1057 l 330 1252 l 424 1252 l 514 1057 m 258 1057 l 115 1252 l 214 1252 l 330 1057 m 682 0 l 92 0 l 92 979 l 682 979 l 682 895 l 184 895 l 184 543 l 657 543 l 657 460 l 184 460 l 184 84 l 682 84 "},"É":{"ha":749,"x_min":0,"x_max":0,"o":"m 357 1056 l 482 1252 l 584 1252 l 429 1056 m 682 0 l 92 0 l 92 979 l 682 979 l 682 895 l 184 895 l 184 543 l 657 543 l 657 460 l 184 460 l 184 84 l 682 84 "},"Ê":{"ha":749,"x_min":0,"x_max":0,"o":"m 422 1252 l 604 1053 l 517 1053 l 389 1196 l 385 1196 l 257 1053 l 170 1053 l 351 1252 m 682 0 l 92 0 l 92 979 l 682 979 l 682 895 l 184 895 l 184 543 l 657 543 l 657 460 l 184 460 l 184 84 l 682 84 "},"Ể":{"ha":749,"x_min":0,"x_max":0,"o":"m 471 1355 b 540 1371 488 1364 516 1371 b 648 1278 604 1371 648 1333 b 576 1178 648 1234 620 1194 l 534 1213 b 586 1274 566 1225 586 1248 b 530 1320 586 1301 563 1320 b 471 1307 508 1320 485 1315 m 427 1211 l 614 1047 l 521 1047 l 389 1162 l 385 1162 l 254 1047 l 160 1047 l 347 1211 m 682 0 l 92 0 l 92 979 l 682 979 l 682 895 l 184 895 l 184 543 l 657 543 l 657 460 l 184 460 l 184 84 l 682 84 "},"Ề":{"ha":749,"x_min":0,"x_max":0,"o":"m 551 1224 l 415 1367 l 506 1367 l 630 1224 m 427 1211 l 614 1047 l 521 1047 l 389 1162 l 385 1162 l 254 1047 l 160 1047 l 347 1211 m 682 0 l 92 0 l 92 979 l 682 979 l 682 895 l 184 895 l 184 543 l 657 543 l 657 460 l 184 460 l 184 84 l 682 84 "},"Ễ":{"ha":749,"x_min":0,"x_max":0,"o":"m 468 1242 b 308 1334 378 1242 360 1334 b 252 1257 273 1334 253 1303 l 189 1257 b 306 1389 189 1333 232 1389 b 466 1299 395 1389 414 1299 b 522 1374 498 1299 520 1328 l 586 1374 b 468 1242 586 1299 539 1242 m 427 1206 l 614 1047 l 521 1047 l 389 1158 l 385 1158 l 254 1047 l 160 1047 l 347 1206 m 682 0 l 92 0 l 92 979 l 682 979 l 682 895 l 184 895 l 184 543 l 657 543 l 657 460 l 184 460 l 184 84 l 682 84 "},"Ệ":{"ha":749,"x_min":0,"x_max":0,"o":"m 422 1252 l 604 1053 l 517 1053 l 389 1196 l 385 1196 l 257 1053 l 170 1053 l 351 1252 m 682 0 l 92 0 l 92 979 l 682 979 l 682 895 l 184 895 l 184 543 l 657 543 l 657 460 l 184 460 l 184 84 l 682 84 m 387 -227 b 327 -168 354 -227 327 -201 b 387 -108 327 -134 354 -108 b 447 -168 420 -108 447 -134 b 387 -227 447 -201 420 -227 "},"Ế":{"ha":749,"x_min":0,"x_max":0,"o":"m 630 1367 l 721 1367 l 585 1224 l 506 1224 m 427 1211 l 614 1047 l 521 1047 l 389 1162 l 385 1162 l 254 1047 l 160 1047 l 347 1211 m 682 0 l 92 0 l 92 979 l 682 979 l 682 895 l 184 895 l 184 543 l 657 543 l 657 460 l 184 460 l 184 84 l 682 84 "},"Ë":{"ha":749,"x_min":0,"x_max":0,"o":"m 271 1101 b 211 1160 238 1101 211 1128 b 271 1221 211 1194 238 1221 b 331 1160 304 1221 331 1194 b 271 1101 331 1128 304 1101 m 503 1101 b 443 1160 470 1101 443 1128 b 503 1221 443 1194 470 1221 b 563 1160 536 1221 563 1194 b 503 1101 563 1128 536 1101 m 682 0 l 92 0 l 92 979 l 682 979 l 682 895 l 184 895 l 184 543 l 657 543 l 657 460 l 184 460 l 184 84 l 682 84 "},"Ẹ":{"ha":749,"x_min":0,"x_max":0,"o":"m 682 0 l 92 0 l 92 979 l 682 979 l 682 895 l 184 895 l 184 543 l 657 543 l 657 460 l 184 460 l 184 84 l 682 84 m 387 -227 b 327 -168 354 -227 327 -201 b 387 -108 327 -134 354 -108 b 447 -168 420 -108 447 -134 b 387 -227 447 -201 420 -227 "},"Ȇ":{"ha":749,"x_min":0,"x_max":0,"o":"m 518 1055 b 387 1182 511 1133 462 1182 b 256 1055 312 1182 262 1133 l 188 1055 b 387 1242 195 1160 268 1242 b 586 1055 506 1242 578 1160 m 682 0 l 92 0 l 92 979 l 682 979 l 682 895 l 184 895 l 184 543 l 657 543 l 657 460 l 184 460 l 184 84 l 682 84 "},"Ẻ":{"ha":749,"x_min":0,"x_max":0,"o":"m 283 1239 b 364 1255 304 1249 334 1255 b 486 1154 435 1255 486 1216 b 391 1039 486 1104 448 1060 l 358 1082 b 417 1150 393 1095 417 1121 b 353 1201 417 1180 391 1201 b 283 1186 330 1201 302 1196 m 682 0 l 92 0 l 92 979 l 682 979 l 682 895 l 184 895 l 184 543 l 657 543 l 657 460 l 184 460 l 184 84 l 682 84 "},"Ě":{"ha":749,"x_min":0,"x_max":0,"o":"m 351 1053 l 170 1252 l 257 1252 l 385 1109 l 389 1109 l 517 1252 l 604 1252 l 422 1053 m 682 0 l 92 0 l 92 979 l 682 979 l 682 895 l 184 895 l 184 543 l 657 543 l 657 460 l 184 460 l 184 84 l 682 84 "},"Ē":{"ha":749,"x_min":0,"x_max":0,"o":"m 570 1124 l 204 1124 l 204 1189 l 570 1189 m 682 0 l 92 0 l 92 979 l 682 979 l 682 895 l 184 895 l 184 543 l 657 543 l 657 460 l 184 460 l 184 84 l 682 84 "},"Ḕ":{"ha":749,"x_min":0,"x_max":0,"o":"m 351 1224 l 214 1367 l 305 1367 l 429 1224 m 180 1147 l 594 1147 l 594 1084 l 180 1084 m 682 0 l 92 0 l 92 979 l 682 979 l 682 895 l 184 895 l 184 543 l 657 543 l 657 460 l 184 460 l 184 84 l 682 84 "},"Ḗ":{"ha":749,"x_min":0,"x_max":0,"o":"m 471 1367 l 562 1367 l 426 1224 l 347 1224 m 180 1084 l 180 1147 l 594 1147 l 594 1084 m 682 0 l 92 0 l 92 979 l 682 979 l 682 895 l 184 895 l 184 543 l 657 543 l 657 460 l 184 460 l 184 84 l 682 84 "},"Ẽ":{"ha":749,"x_min":0,"x_max":0,"o":"m 466 1076 b 302 1174 371 1076 356 1174 b 248 1081 267 1174 248 1142 l 184 1081 b 306 1238 184 1177 229 1238 b 468 1139 399 1238 410 1139 b 526 1232 505 1139 526 1172 l 589 1232 b 466 1076 589 1137 544 1076 m 682 0 l 92 0 l 92 979 l 682 979 l 682 895 l 184 895 l 184 543 l 657 543 l 657 460 l 184 460 l 184 84 l 682 84 "},"Ḙ":{"ha":749,"x_min":0,"x_max":0,"o":"m 682 0 l 92 0 l 92 979 l 682 979 l 682 895 l 184 895 l 184 543 l 657 543 l 657 460 l 184 460 l 184 84 l 682 84 m 594 -293 l 510 -293 l 389 -148 l 385 -148 l 264 -293 l 180 -293 l 351 -89 l 422 -89 "},"Ĕ":{"ha":749,"x_min":0,"x_max":0,"o":"m 256 1242 b 387 1115 262 1163 312 1115 b 518 1242 462 1115 511 1163 l 586 1242 b 387 1055 578 1137 506 1055 b 188 1242 268 1055 195 1137 m 682 0 l 92 0 l 92 979 l 682 979 l 682 895 l 184 895 l 184 543 l 657 543 l 657 460 l 184 460 l 184 84 l 682 84 "},"Ḛ":{"ha":749,"x_min":0,"x_max":0,"o":"m 682 0 l 92 0 l 92 979 l 682 979 l 682 895 l 184 895 l 184 543 l 657 543 l 657 460 l 184 460 l 184 84 l 682 84 m 466 -249 b 302 -151 371 -249 356 -151 b 248 -243 267 -151 248 -182 l 184 -243 b 306 -87 184 -148 229 -87 b 468 -185 399 -87 410 -185 b 526 -93 505 -185 526 -153 l 589 -93 b 466 -249 589 -187 544 -249 "},"Ė":{"ha":749,"x_min":0,"x_max":0,"o":"m 387 1101 b 327 1160 354 1101 327 1128 b 387 1221 327 1194 354 1221 b 447 1160 420 1221 447 1194 b 387 1101 447 1128 420 1101 m 682 0 l 92 0 l 92 979 l 682 979 l 682 895 l 184 895 l 184 543 l 657 543 l 657 460 l 184 460 l 184 84 l 682 84 "},"Ȩ":{"ha":749,"x_min":0,"x_max":0,"o":"m 317 -106 l 367 0 l 92 0 l 92 979 l 682 979 l 682 895 l 184 895 l 184 543 l 657 543 l 657 460 l 184 460 l 184 84 l 682 84 l 682 0 l 435 0 l 393 -89 b 536 -197 481 -91 536 -130 b 378 -316 536 -272 466 -315 b 283 -306 342 -317 300 -312 l 283 -248 b 361 -257 297 -252 329 -257 b 460 -199 412 -257 460 -237 b 360 -146 460 -163 427 -146 l 317 -146 "},"Ḝ":{"ha":749,"x_min":0,"x_max":0,"o":"m 256 1242 b 387 1115 262 1163 312 1115 b 518 1242 462 1115 511 1163 l 586 1242 b 387 1055 578 1137 506 1055 b 188 1242 268 1055 195 1137 m 317 -106 l 367 0 l 92 0 l 92 979 l 682 979 l 682 895 l 184 895 l 184 543 l 657 543 l 657 460 l 184 460 l 184 84 l 682 84 l 682 0 l 435 0 l 393 -89 b 536 -197 481 -91 536 -130 b 378 -316 536 -272 466 -315 b 283 -306 342 -317 300 -312 l 283 -248 b 361 -257 297 -252 329 -257 b 460 -199 412 -257 460 -237 b 360 -146 460 -163 427 -146 l 317 -146 "},"Ę":{"ha":749,"x_min":0,"x_max":0,"o":"m 614 -270 b 473 -153 543 -270 473 -236 b 576 0 473 -96 504 -46 l 92 0 l 92 979 l 682 979 l 682 895 l 184 895 l 184 543 l 657 543 l 657 460 l 184 460 l 184 84 l 682 84 l 682 0 b 553 -134 614 -32 553 -75 b 631 -201 553 -187 594 -201 b 679 -194 649 -201 668 -198 l 679 -259 b 614 -270 659 -265 637 -270 "},"F":{"ha":720,"x_min":0,"x_max":0,"o":"m 92 0 l 92 979 l 672 979 l 672 895 l 184 895 l 184 527 l 633 527 l 633 444 l 184 444 l 184 0 "},"Ḟ":{"ha":720,"x_min":0,"x_max":0,"o":"m 382 1101 b 321 1160 349 1101 321 1128 b 382 1221 321 1194 349 1221 b 441 1160 415 1221 441 1194 b 382 1101 441 1128 415 1101 m 92 0 l 92 979 l 672 979 l 672 895 l 184 895 l 184 527 l 633 527 l 633 444 l 184 444 l 184 0 "},"G":{"ha":956,"x_min":0,"x_max":0,"o":"m 898 397 b 492 -16 898 139 746 -16 b 52 495 227 -16 52 186 b 492 994 52 798 224 994 b 892 684 697 994 855 871 l 795 684 b 492 908 755 824 641 908 b 147 495 279 908 147 750 b 492 71 147 237 282 71 b 806 376 681 71 806 191 l 806 410 l 502 410 l 502 492 l 898 492 l 898 397 "},"Ǵ":{"ha":956,"x_min":0,"x_max":0,"o":"m 462 1056 l 587 1252 l 689 1252 l 534 1056 m 898 397 b 492 -16 898 139 746 -16 b 52 495 227 -16 52 186 b 492 994 52 798 224 994 b 892 684 697 994 855 871 l 795 684 b 492 908 755 824 641 908 b 147 495 279 908 147 750 b 492 71 147 237 282 71 b 806 376 681 71 806 191 l 806 410 l 502 410 l 502 492 l 898 492 l 898 397 "},"Ǧ":{"ha":956,"x_min":0,"x_max":0,"o":"m 456 1053 l 275 1252 l 362 1252 l 490 1109 l 494 1109 l 622 1252 l 709 1252 l 527 1053 m 898 397 b 492 -16 898 139 746 -16 b 52 495 227 -16 52 186 b 492 994 52 798 224 994 b 892 684 697 994 855 871 l 795 684 b 492 908 755 824 641 908 b 147 495 279 908 147 750 b 492 71 147 237 282 71 b 806 376 681 71 806 191 l 806 410 l 502 410 l 502 492 l 898 492 l 898 397 "},"Ĝ":{"ha":956,"x_min":0,"x_max":0,"o":"m 527 1252 l 709 1053 l 622 1053 l 494 1196 l 490 1196 l 362 1053 l 275 1053 l 456 1252 m 898 397 b 492 -16 898 139 746 -16 b 52 495 227 -16 52 186 b 492 994 52 798 224 994 b 892 684 697 994 855 871 l 795 684 b 492 908 755 824 641 908 b 147 495 279 908 147 750 b 492 71 147 237 282 71 b 806 376 681 71 806 191 l 806 410 l 502 410 l 502 492 l 898 492 l 898 397 "},"Ğ":{"ha":956,"x_min":0,"x_max":0,"o":"m 360 1242 b 492 1115 368 1163 417 1115 b 623 1242 567 1115 616 1163 l 691 1242 b 492 1055 683 1137 611 1055 b 293 1242 373 1055 300 1137 m 898 397 b 492 -16 898 139 746 -16 b 52 495 227 -16 52 186 b 492 994 52 798 224 994 b 892 684 697 994 855 871 l 795 684 b 492 908 755 824 641 908 b 147 495 279 908 147 750 b 492 71 147 237 282 71 b 806 376 681 71 806 191 l 806 410 l 502 410 l 502 492 l 898 492 l 898 397 "},"Ḡ":{"ha":956,"x_min":0,"x_max":0,"o":"m 674 1124 l 309 1124 l 309 1189 l 674 1189 m 898 397 b 492 -16 898 139 746 -16 b 52 495 227 -16 52 186 b 492 994 52 798 224 994 b 892 684 697 994 855 871 l 795 684 b 492 908 755 824 641 908 b 147 495 279 908 147 750 b 492 71 147 237 282 71 b 806 376 681 71 806 191 l 806 410 l 502 410 l 502 492 l 898 492 l 898 397 "},"Ġ":{"ha":956,"x_min":0,"x_max":0,"o":"m 492 1101 b 432 1160 459 1101 432 1128 b 492 1221 432 1194 459 1221 b 552 1160 525 1221 552 1194 b 492 1101 552 1128 525 1101 m 898 397 b 492 -16 898 139 746 -16 b 52 495 227 -16 52 186 b 492 994 52 798 224 994 b 892 684 697 994 855 871 l 795 684 b 492 908 755 824 641 908 b 147 495 279 908 147 750 b 492 71 147 237 282 71 b 806 376 681 71 806 191 l 806 410 l 502 410 l 502 492 l 898 492 l 898 397 "},"Ģ":{"ha":956,"x_min":0,"x_max":0,"o":"m 898 397 b 492 -16 898 139 746 -16 b 52 495 227 -16 52 186 b 492 994 52 798 224 994 b 892 684 697 994 855 871 l 795 684 b 492 908 755 824 641 908 b 147 495 279 908 147 750 b 492 71 147 237 282 71 b 806 376 681 71 806 191 l 806 410 l 502 410 l 502 492 l 898 492 l 898 397 m 377 -328 l 449 -89 l 533 -89 l 447 -328 "},"H":{"ha":941,"x_min":0,"x_max":0,"o":"m 756 0 l 756 459 l 184 459 l 184 0 l 92 0 l 92 979 l 184 979 l 184 543 l 756 543 l 756 979 l 849 979 l 849 0 "},"Ḧ":{"ha":941,"x_min":0,"x_max":0,"o":"m 354 1101 b 294 1160 321 1101 294 1128 b 354 1221 294 1194 321 1221 b 414 1160 388 1221 414 1194 b 354 1101 414 1128 388 1101 m 586 1101 b 526 1160 553 1101 526 1128 b 586 1221 526 1194 553 1221 b 646 1160 619 1221 646 1194 b 586 1101 646 1128 619 1101 m 756 0 l 756 459 l 184 459 l 184 0 l 92 0 l 92 979 l 184 979 l 184 543 l 756 543 l 756 979 l 849 979 l 849 0 "},"Ȟ":{"ha":941,"x_min":0,"x_max":0,"o":"m 435 1053 l 254 1252 l 340 1252 l 469 1109 l 472 1109 l 600 1252 l 687 1252 l 505 1053 m 756 0 l 756 459 l 184 459 l 184 0 l 92 0 l 92 979 l 184 979 l 184 543 l 756 543 l 756 979 l 849 979 l 849 0 "},"Ĥ":{"ha":941,"x_min":0,"x_max":0,"o":"m 505 1252 l 687 1053 l 600 1053 l 472 1196 l 469 1196 l 340 1053 l 254 1053 l 435 1252 m 756 0 l 756 459 l 184 459 l 184 0 l 92 0 l 92 979 l 184 979 l 184 543 l 756 543 l 756 979 l 849 979 l 849 0 "},"Ḥ":{"ha":941,"x_min":0,"x_max":0,"o":"m 756 0 l 756 459 l 184 459 l 184 0 l 92 0 l 92 979 l 184 979 l 184 543 l 756 543 l 756 979 l 849 979 l 849 0 m 470 -227 b 410 -168 437 -227 410 -201 b 470 -108 410 -134 437 -108 b 530 -168 504 -108 530 -134 b 470 -227 530 -201 504 -227 "},"Ḣ":{"ha":941,"x_min":0,"x_max":0,"o":"m 470 1101 b 410 1160 437 1101 410 1128 b 470 1221 410 1194 437 1221 b 530 1160 504 1221 530 1194 b 470 1101 530 1128 504 1101 m 756 0 l 756 459 l 184 459 l 184 0 l 92 0 l 92 979 l 184 979 l 184 543 l 756 543 l 756 979 l 849 979 l 849 0 "},"Ḫ":{"ha":941,"x_min":0,"x_max":0,"o":"m 756 0 l 756 459 l 184 459 l 184 0 l 92 0 l 92 979 l 184 979 l 184 543 l 756 543 l 756 979 l 849 979 l 849 0 m 345 -71 b 470 -204 345 -153 389 -204 b 595 -71 551 -204 595 -153 l 665 -71 b 470 -264 665 -187 593 -264 b 275 -71 347 -264 275 -187 "},"Ḩ":{"ha":941,"x_min":0,"x_max":0,"o":"m 66 -106 l 116 0 l 92 0 l 92 979 l 184 979 l 184 543 l 756 543 l 756 979 l 849 979 l 849 0 l 756 0 l 756 459 l 184 459 l 184 0 l 142 -89 b 285 -197 229 -91 285 -130 b 127 -316 285 -272 215 -315 b 32 -306 91 -317 50 -312 l 32 -248 b 110 -257 46 -252 77 -257 b 209 -199 161 -257 209 -237 b 109 -146 209 -163 176 -146 l 66 -146 "},"Ħ":{"ha":941,"x_min":0,"x_max":0,"o":"m -3 814 l 92 814 l 92 979 l 184 979 l 184 814 l 756 814 l 756 979 l 849 979 l 849 814 l 944 814 l 944 740 l 849 740 l 849 0 l 756 0 l 756 459 l 184 459 l 184 0 l 92 0 l 92 740 l -3 740 m 756 543 l 756 740 l 184 740 l 184 543 "},"I":{"ha":275,"x_min":0,"x_max":0,"o":"m 92 0 l 92 979 l 184 979 l 184 0 "},"İ":{"ha":275,"x_min":0,"x_max":0,"o":"m 138 1101 b 77 1160 105 1101 77 1128 b 138 1221 77 1194 105 1221 b 198 1160 171 1221 198 1194 b 138 1101 198 1128 171 1101 m 92 0 l 92 979 l 184 979 l 184 0 "},"Ì":{"ha":275,"x_min":0,"x_max":0,"o":"m -60 1252 l 43 1252 l 168 1056 l 95 1056 m 92 0 l 92 979 l 184 979 l 184 0 "},"Ȉ":{"ha":275,"x_min":0,"x_max":0,"o":"m 198 1057 l 80 1252 l 175 1252 l 264 1057 m 9 1057 l -134 1252 l -35 1252 l 81 1057 m 92 0 l 92 979 l 184 979 l 184 0 "},"Í":{"ha":275,"x_min":0,"x_max":0,"o":"m 108 1056 l 233 1252 l 335 1252 l 180 1056 m 92 0 l 92 979 l 184 979 l 184 0 "},"Î":{"ha":275,"x_min":0,"x_max":0,"o":"m 173 1252 l 355 1053 l 268 1053 l 139 1196 l 136 1196 l 7 1053 l -79 1053 l 102 1252 m 92 0 l 92 979 l 184 979 l 184 0 "},"Ǐ":{"ha":275,"x_min":0,"x_max":0,"o":"m 102 1053 l -79 1252 l 7 1252 l 136 1109 l 139 1109 l 268 1252 l 355 1252 l 173 1053 m 92 0 l 92 979 l 184 979 l 184 0 "},"Ï":{"ha":275,"x_min":0,"x_max":0,"o":"m 22 1101 b -38 1160 -11 1101 -38 1128 b 22 1221 -38 1194 -11 1221 b 82 1160 55 1221 82 1194 b 22 1101 82 1128 55 1101 m 254 1101 b 193 1160 220 1101 193 1128 b 254 1221 193 1194 220 1221 b 313 1160 287 1221 313 1194 b 254 1101 313 1128 287 1101 m 92 0 l 92 979 l 184 979 l 184 0 "},"Ḯ":{"ha":275,"x_min":0,"x_max":0,"o":"m 214 1367 l 305 1367 l 170 1224 l 90 1224 m 26 1054 b -33 1114 -6 1054 -33 1080 b 26 1174 -33 1147 -6 1174 b 85 1114 59 1174 85 1147 b 26 1054 85 1080 59 1054 m 249 1054 b 190 1114 216 1054 190 1080 b 249 1174 190 1147 216 1174 b 309 1114 281 1174 309 1147 b 249 1054 309 1080 281 1054 m 92 0 l 92 979 l 184 979 l 184 0 "},"Ĭ":{"ha":275,"x_min":0,"x_max":0,"o":"m 6 1242 b 138 1115 13 1163 62 1115 b 269 1242 213 1115 262 1163 l 336 1242 b 138 1055 329 1137 257 1055 b -61 1242 18 1055 -54 1137 m 92 0 l 92 979 l 184 979 l 184 0 "},"Ị":{"ha":275,"x_min":0,"x_max":0,"o":"m 92 0 l 92 979 l 184 979 l 184 0 m 138 -227 b 77 -168 105 -227 77 -201 b 138 -108 77 -134 105 -108 b 198 -168 171 -108 198 -134 b 138 -227 198 -201 171 -227 "},"Ȋ":{"ha":275,"x_min":0,"x_max":0,"o":"m 269 1055 b 138 1182 262 1133 213 1182 b 6 1055 62 1182 13 1133 l -61 1055 b 138 1242 -54 1160 18 1242 b 336 1055 257 1242 329 1160 m 92 0 l 92 979 l 184 979 l 184 0 "},"Ī":{"ha":275,"x_min":0,"x_max":0,"o":"m 320 1124 l -45 1124 l -45 1189 l 320 1189 m 92 0 l 92 979 l 184 979 l 184 0 "},"Ḭ":{"ha":275,"x_min":0,"x_max":0,"o":"m 92 0 l 92 979 l 184 979 l 184 0 m 216 -249 b 53 -151 121 -249 106 -151 b -2 -243 18 -151 -2 -182 l -65 -243 b 57 -87 -65 -148 -20 -87 b 218 -185 151 -87 161 -185 b 277 -93 256 -185 277 -153 l 340 -93 b 216 -249 340 -187 295 -249 "},"Ỉ":{"ha":275,"x_min":0,"x_max":0,"o":"m 35 1239 b 115 1255 55 1249 85 1255 b 236 1154 186 1255 236 1216 b 142 1039 236 1104 199 1060 l 109 1082 b 168 1150 144 1095 168 1121 b 104 1201 168 1180 141 1201 b 35 1186 80 1201 52 1196 m 92 0 l 92 979 l 184 979 l 184 0 "},"Ĩ":{"ha":275,"x_min":0,"x_max":0,"o":"m 216 1076 b 53 1174 121 1076 106 1174 b -2 1081 18 1174 -2 1142 l -65 1081 b 57 1238 -65 1177 -20 1238 b 218 1139 151 1238 161 1139 b 277 1232 256 1139 277 1172 l 340 1232 b 216 1076 340 1137 295 1076 m 92 0 l 92 979 l 184 979 l 184 0 "},"Į":{"ha":275,"x_min":0,"x_max":0,"o":"m 115 -270 b -26 -153 44 -270 -26 -236 b 92 9 -26 -93 9 -40 l 92 979 l 184 979 l 184 0 b 55 -134 115 -32 55 -75 b 133 -201 55 -187 96 -201 b 180 -194 151 -201 170 -198 l 180 -259 b 115 -270 161 -265 138 -270 "},"J":{"ha":669,"x_min":0,"x_max":0,"o":"m 120 224 b 298 66 124 131 197 66 b 486 269 417 66 486 138 l 486 979 l 578 979 l 578 268 b 298 -20 578 88 473 -20 b 28 224 141 -20 30 81 "},"Ĵ":{"ha":669,"x_min":0,"x_max":0,"o":"m 567 1252 l 749 1053 l 662 1053 l 533 1196 l 530 1196 l 401 1053 l 315 1053 l 496 1252 m 120 224 b 298 66 124 131 197 66 b 486 269 417 66 486 138 l 486 979 l 578 979 l 578 268 b 298 -20 578 88 473 -20 b 28 224 141 -20 30 81 "},"K":{"ha":820,"x_min":0,"x_max":0,"o":"m 92 0 l 92 979 l 184 979 l 184 471 l 189 471 l 654 979 l 772 979 l 370 546 l 812 0 l 693 0 l 304 480 l 184 349 l 184 0 "},"Ḱ":{"ha":820,"x_min":0,"x_max":0,"o":"m 364 1056 l 489 1252 l 591 1252 l 437 1056 m 92 0 l 92 979 l 184 979 l 184 471 l 189 471 l 654 979 l 772 979 l 370 546 l 812 0 l 693 0 l 304 480 l 184 349 l 184 0 "},"Ǩ":{"ha":820,"x_min":0,"x_max":0,"o":"m 359 1053 l 178 1252 l 264 1252 l 393 1109 l 395 1109 l 524 1252 l 611 1252 l 429 1053 m 92 0 l 92 979 l 184 979 l 184 471 l 189 471 l 654 979 l 772 979 l 370 546 l 812 0 l 693 0 l 304 480 l 184 349 l 184 0 "},"Ḳ":{"ha":820,"x_min":0,"x_max":0,"o":"m 92 0 l 92 979 l 184 979 l 184 471 l 189 471 l 654 979 l 772 979 l 370 546 l 812 0 l 693 0 l 304 480 l 184 349 l 184 0 m 394 -227 b 334 -168 361 -227 334 -201 b 394 -108 334 -134 361 -108 b 454 -168 427 -108 454 -134 b 394 -227 454 -201 427 -227 "},"Ḵ":{"ha":820,"x_min":0,"x_max":0,"o":"m 92 0 l 92 979 l 184 979 l 184 471 l 189 471 l 654 979 l 772 979 l 370 546 l 812 0 l 693 0 l 304 480 l 184 349 l 184 0 m 576 -200 l 212 -200 l 212 -136 l 576 -136 "},"Ķ":{"ha":820,"x_min":0,"x_max":0,"o":"m 92 0 l 92 979 l 184 979 l 184 471 l 189 471 l 654 979 l 772 979 l 370 546 l 812 0 l 693 0 l 304 480 l 184 349 l 184 0 m 279 -328 l 351 -89 l 435 -89 l 349 -328 "},"L":{"ha":713,"x_min":0,"x_max":0,"o":"m 674 0 l 92 0 l 92 979 l 184 979 l 184 84 l 674 84 "},"Ĺ":{"ha":713,"x_min":0,"x_max":0,"o":"m 108 1056 l 233 1252 l 335 1252 l 180 1056 m 674 0 l 92 0 l 92 979 l 184 979 l 184 84 l 674 84 "},"Ḽ":{"ha":713,"x_min":0,"x_max":0,"o":"m 674 0 l 92 0 l 92 979 l 184 979 l 184 84 l 674 84 m 590 -293 l 506 -293 l 385 -148 l 381 -148 l 259 -293 l 176 -293 l 347 -89 l 418 -89 "},"Ŀ":{"ha":713,"x_min":0,"x_max":0,"o":"m 674 0 l 92 0 l 92 979 l 184 979 l 184 84 l 674 84 m 446 426 b 382 490 411 426 382 454 b 446 553 382 525 411 553 b 509 490 481 553 509 525 b 446 426 509 454 481 426 "},"Ḷ":{"ha":713,"x_min":0,"x_max":0,"o":"m 674 0 l 92 0 l 92 979 l 184 979 l 184 84 l 674 84 m 382 -227 b 323 -168 350 -227 323 -201 b 382 -108 323 -134 350 -108 b 443 -168 416 -108 443 -134 b 382 -227 443 -201 416 -227 "},"Ḹ":{"ha":713,"x_min":0,"x_max":0,"o":"m 320 1124 l -45 1124 l -45 1189 l 320 1189 m 674 0 l 92 0 l 92 979 l 184 979 l 184 84 l 674 84 m 382 -227 b 323 -168 350 -227 323 -201 b 382 -108 323 -134 350 -108 b 443 -168 416 -108 443 -134 b 382 -227 443 -201 416 -227 "},"Ḻ":{"ha":713,"x_min":0,"x_max":0,"o":"m 674 0 l 92 0 l 92 979 l 184 979 l 184 84 l 674 84 m 566 -200 l 200 -200 l 200 -136 l 566 -136 "},"Ļ":{"ha":713,"x_min":0,"x_max":0,"o":"m 674 0 l 92 0 l 92 979 l 184 979 l 184 84 l 674 84 m 268 -328 l 340 -89 l 425 -89 l 338 -328 "},"Ľ":{"ha":713,"x_min":0,"x_max":0,"o":"m 455 1017 l 429 699 l 366 699 l 366 1017 m 674 0 l 92 0 l 92 979 l 184 979 l 184 84 l 674 84 "},"Ł":{"ha":720,"x_min":0,"x_max":0,"o":"m 680 0 l 98 0 l 98 476 l 14 435 l 14 509 l 98 551 l 98 979 l 190 979 l 190 597 l 432 716 l 432 641 l 190 522 l 190 84 l 680 84 "},"M":{"ha":1126,"x_min":0,"x_max":0,"o":"m 947 0 l 947 803 l 943 803 l 603 0 l 522 0 l 182 803 l 178 803 l 178 0 l 92 0 l 92 979 l 198 979 l 561 118 l 565 118 l 927 979 l 1034 979 l 1034 0 "},"Ḿ":{"ha":1126,"x_min":0,"x_max":0,"o":"m 533 1056 l 658 1252 l 760 1252 l 605 1056 m 947 0 l 947 803 l 943 803 l 603 0 l 522 0 l 182 803 l 178 803 l 178 0 l 92 0 l 92 979 l 198 979 l 561 118 l 565 118 l 927 979 l 1034 979 l 1034 0 "},"Ṁ":{"ha":1126,"x_min":0,"x_max":0,"o":"m 563 1101 b 503 1160 530 1101 503 1128 b 563 1221 503 1194 530 1221 b 623 1160 596 1221 623 1194 b 563 1101 623 1128 596 1101 m 947 0 l 947 803 l 943 803 l 603 0 l 522 0 l 182 803 l 178 803 l 178 0 l 92 0 l 92 979 l 198 979 l 561 118 l 565 118 l 927 979 l 1034 979 l 1034 0 "},"Ṃ":{"ha":1126,"x_min":0,"x_max":0,"o":"m 947 0 l 947 803 l 943 803 l 603 0 l 522 0 l 182 803 l 178 803 l 178 0 l 92 0 l 92 979 l 198 979 l 561 118 l 565 118 l 927 979 l 1034 979 l 1034 0 m 563 -227 b 503 -168 530 -227 503 -201 b 563 -108 503 -134 530 -108 b 623 -168 596 -108 623 -134 b 563 -227 623 -201 596 -227 "},"N":{"ha":945,"x_min":0,"x_max":0,"o":"m 92 0 l 92 979 l 183 979 l 757 161 l 762 161 l 762 979 l 853 979 l 853 0 l 764 0 l 188 818 l 183 818 l 183 0 "},"Ǹ":{"ha":945,"x_min":0,"x_max":0,"o":"m 275 1252 l 377 1252 l 502 1056 l 430 1056 m 92 0 l 92 979 l 183 979 l 757 161 l 762 161 l 762 979 l 853 979 l 853 0 l 764 0 l 188 818 l 183 818 l 183 0 "},"Ń":{"ha":945,"x_min":0,"x_max":0,"o":"m 442 1056 l 568 1252 l 669 1252 l 515 1056 m 92 0 l 92 979 l 183 979 l 757 161 l 762 161 l 762 979 l 853 979 l 853 0 l 764 0 l 188 818 l 183 818 l 183 0 "},"Ñ":{"ha":945,"x_min":0,"x_max":0,"o":"m 551 1076 b 388 1174 456 1076 441 1174 b 333 1081 353 1174 333 1142 l 270 1081 b 391 1238 270 1177 314 1238 b 553 1139 485 1238 495 1139 b 612 1232 591 1139 612 1172 l 675 1232 b 551 1076 675 1137 629 1076 m 92 0 l 92 979 l 183 979 l 757 161 l 762 161 l 762 979 l 853 979 l 853 0 l 764 0 l 188 818 l 183 818 l 183 0 "},"Ṇ":{"ha":945,"x_min":0,"x_max":0,"o":"m 92 0 l 92 979 l 183 979 l 757 161 l 762 161 l 762 979 l 853 979 l 853 0 l 764 0 l 188 818 l 183 818 l 183 0 m 472 -227 b 412 -168 439 -227 412 -201 b 472 -108 412 -134 439 -108 b 532 -168 506 -108 532 -134 b 472 -227 532 -201 506 -227 "},"Ṅ":{"ha":945,"x_min":0,"x_max":0,"o":"m 472 1101 b 412 1160 439 1101 412 1128 b 472 1221 412 1194 439 1221 b 532 1160 506 1221 532 1194 b 472 1101 532 1128 506 1101 m 92 0 l 92 979 l 183 979 l 757 161 l 762 161 l 762 979 l 853 979 l 853 0 l 764 0 l 188 818 l 183 818 l 183 0 "},"Ň":{"ha":945,"x_min":0,"x_max":0,"o":"m 437 1053 l 256 1252 l 342 1252 l 471 1109 l 474 1109 l 602 1252 l 689 1252 l 508 1053 m 92 0 l 92 979 l 183 979 l 757 161 l 762 161 l 762 979 l 853 979 l 853 0 l 764 0 l 188 818 l 183 818 l 183 0 "},"Ṋ":{"ha":945,"x_min":0,"x_max":0,"o":"m 92 0 l 92 979 l 183 979 l 757 161 l 762 161 l 762 979 l 853 979 l 853 0 l 764 0 l 188 818 l 183 818 l 183 0 m 680 -293 l 595 -293 l 474 -148 l 471 -148 l 349 -293 l 265 -293 l 437 -89 l 508 -89 "},"Ṉ":{"ha":945,"x_min":0,"x_max":0,"o":"m 92 0 l 92 979 l 183 979 l 757 161 l 762 161 l 762 979 l 853 979 l 853 0 l 764 0 l 188 818 l 183 818 l 183 0 m 655 -200 l 290 -200 l 290 -136 l 655 -136 "},"Ņ":{"ha":945,"x_min":0,"x_max":0,"o":"m 92 0 l 92 979 l 183 979 l 757 161 l 762 161 l 762 979 l 853 979 l 853 0 l 764 0 l 188 818 l 183 818 l 183 0 m 357 -328 l 429 -89 l 514 -89 l 427 -328 "},"O":{"ha":994,"x_min":0,"x_max":0,"o":"m 496 994 b 941 489 769 994 941 799 b 496 -16 941 179 770 -16 b 52 489 224 -16 52 179 b 496 994 52 799 224 994 m 496 908 b 147 489 282 908 147 746 b 496 71 147 233 282 71 b 846 489 711 71 846 233 b 496 908 846 746 711 908 "},"Ö":{"ha":994,"x_min":0,"x_max":0,"o":"m 380 1101 b 321 1160 348 1101 321 1128 b 380 1221 321 1194 348 1221 b 441 1160 414 1221 441 1194 b 380 1101 441 1128 414 1101 m 612 1101 b 553 1160 580 1101 553 1128 b 612 1221 553 1194 580 1221 b 673 1160 646 1221 673 1194 b 612 1101 673 1128 646 1101 m 496 994 b 941 489 769 994 941 799 b 496 -16 941 179 770 -16 b 52 489 224 -16 52 179 b 496 994 52 799 224 994 m 496 908 b 147 489 282 908 147 746 b 496 71 147 233 282 71 b 846 489 711 71 846 233 b 496 908 846 746 711 908 "},"Ø":{"ha":994,"x_min":0,"x_max":0,"o":"m 496 994 b 786 893 613 994 711 958 l 873 1004 l 926 966 l 831 846 b 941 489 902 759 941 637 b 496 -16 941 179 770 -16 b 220 75 387 -16 292 16 l 140 -26 l 87 14 l 172 121 b 52 489 95 208 52 334 b 496 994 52 799 224 994 m 496 914 b 142 489 279 914 142 749 b 228 192 142 366 173 265 l 731 825 b 496 914 672 882 592 914 m 851 489 b 774 774 851 606 823 703 l 274 143 b 496 64 332 92 408 64 b 851 489 713 64 851 229 "},"Õ":{"ha":994,"x_min":0,"x_max":0,"o":"m 576 1076 b 412 1174 480 1076 466 1174 b 357 1081 377 1174 357 1142 l 294 1081 b 416 1238 294 1177 338 1238 b 578 1139 509 1238 519 1139 b 636 1232 615 1139 636 1172 l 699 1232 b 576 1076 699 1137 654 1076 m 496 994 b 941 489 769 994 941 799 b 496 -16 941 179 770 -16 b 52 489 224 -16 52 179 b 496 994 52 799 224 994 m 496 908 b 147 489 282 908 147 746 b 496 71 147 233 282 71 b 846 489 711 71 846 233 b 496 908 846 746 711 908 "},"Ó":{"ha":994,"x_min":0,"x_max":0,"o":"m 467 1056 l 591 1252 l 694 1252 l 539 1056 m 496 994 b 941 489 769 994 941 799 b 496 -16 941 179 770 -16 b 52 489 224 -16 52 179 b 496 994 52 799 224 994 m 496 908 b 147 489 282 908 147 746 b 496 71 147 233 282 71 b 846 489 711 71 846 233 b 496 908 846 746 711 908 "},"Ô":{"ha":994,"x_min":0,"x_max":0,"o":"m 532 1252 l 713 1053 l 627 1053 l 498 1196 l 495 1196 l 367 1053 l 280 1053 l 461 1252 m 496 994 b 941 489 769 994 941 799 b 496 -16 941 179 770 -16 b 52 489 224 -16 52 179 b 496 994 52 799 224 994 m 496 908 b 147 489 282 908 147 746 b 496 71 147 233 282 71 b 846 489 711 71 846 233 b 496 908 846 746 711 908 "},"Ò":{"ha":994,"x_min":0,"x_max":0,"o":"m 299 1252 l 401 1252 l 526 1056 l 454 1056 m 496 994 b 941 489 769 994 941 799 b 496 -16 941 179 770 -16 b 52 489 224 -16 52 179 b 496 994 52 799 224 994 m 496 908 b 147 489 282 908 147 746 b 496 71 147 233 282 71 b 846 489 711 71 846 233 b 496 908 846 746 711 908 "},"Ổ":{"ha":994,"x_min":0,"x_max":0,"o":"m 581 1355 b 650 1371 598 1364 626 1371 b 757 1278 713 1371 757 1333 b 685 1178 757 1234 730 1194 l 644 1213 b 696 1274 675 1225 696 1248 b 640 1320 696 1301 673 1320 b 581 1307 618 1320 594 1315 m 536 1211 l 724 1047 l 630 1047 l 498 1162 l 495 1162 l 363 1047 l 269 1047 l 457 1211 m 496 994 b 941 489 769 994 941 799 b 496 -16 941 179 770 -16 b 52 489 224 -16 52 179 b 496 994 52 799 224 994 m 496 908 b 147 489 282 908 147 746 b 496 71 147 233 282 71 b 846 489 711 71 846 233 b 496 908 846 746 711 908 "},"Ồ":{"ha":994,"x_min":0,"x_max":0,"o":"m 661 1224 l 525 1367 l 616 1367 l 740 1224 m 536 1211 l 724 1047 l 630 1047 l 498 1162 l 495 1162 l 363 1047 l 269 1047 l 457 1211 m 496 994 b 941 489 769 994 941 799 b 496 -16 941 179 770 -16 b 52 489 224 -16 52 179 b 496 994 52 799 224 994 m 496 908 b 147 489 282 908 147 746 b 496 71 147 233 282 71 b 846 489 711 71 846 233 b 496 908 846 746 711 908 "},"Ọ":{"ha":994,"x_min":0,"x_max":0,"o":"m 496 994 b 941 489 769 994 941 799 b 496 -16 941 179 770 -16 b 52 489 224 -16 52 179 b 496 994 52 799 224 994 m 496 908 b 147 489 282 908 147 746 b 496 71 147 233 282 71 b 846 489 711 71 846 233 b 496 908 846 746 711 908 m 496 -227 b 437 -168 464 -227 437 -201 b 496 -108 437 -134 464 -108 b 557 -168 530 -108 557 -134 b 496 -227 557 -201 530 -227 "},"Ȍ":{"ha":994,"x_min":0,"x_max":0,"o":"m 557 1057 l 439 1252 l 534 1252 l 624 1057 m 368 1057 l 225 1252 l 323 1252 l 440 1057 m 496 994 b 941 489 769 994 941 799 b 496 -16 941 179 770 -16 b 52 489 224 -16 52 179 b 496 994 52 799 224 994 m 496 908 b 147 489 282 908 147 746 b 496 71 147 233 282 71 b 846 489 711 71 846 233 b 496 908 846 746 711 908 "},"Ṍ":{"ha":994,"x_min":0,"x_max":0,"o":"m 581 1367 l 672 1367 l 548 1242 l 469 1242 m 581 1048 b 413 1149 495 1048 469 1149 b 361 1061 379 1149 359 1114 l 300 1061 b 414 1208 300 1152 345 1208 b 581 1107 498 1208 524 1107 b 632 1195 614 1107 632 1141 l 692 1195 b 581 1048 692 1107 648 1048 m 496 994 b 941 489 769 994 941 799 b 496 -16 941 179 770 -16 b 52 489 224 -16 52 179 b 496 994 52 799 224 994 m 496 908 b 147 489 282 908 147 746 b 496 71 147 233 282 71 b 846 489 711 71 846 233 b 496 908 846 746 711 908 "},"Ṓ":{"ha":994,"x_min":0,"x_max":0,"o":"m 581 1367 l 672 1367 l 536 1224 l 457 1224 m 290 1084 l 290 1147 l 703 1147 l 703 1084 m 496 994 b 941 489 769 994 941 799 b 496 -16 941 179 770 -16 b 52 489 224 -16 52 179 b 496 994 52 799 224 994 m 496 908 b 147 489 282 908 147 746 b 496 71 147 233 282 71 b 846 489 711 71 846 233 b 496 908 846 746 711 908 "},"Ỗ":{"ha":994,"x_min":0,"x_max":0,"o":"m 578 1242 b 418 1334 488 1242 470 1334 b 361 1257 382 1334 363 1303 l 298 1257 b 416 1389 298 1333 341 1389 b 576 1299 505 1389 524 1299 b 632 1374 608 1299 630 1328 l 695 1374 b 578 1242 695 1299 648 1242 m 536 1206 l 724 1047 l 630 1047 l 498 1158 l 495 1158 l 363 1047 l 269 1047 l 457 1206 m 496 994 b 941 489 769 994 941 799 b 496 -16 941 179 770 -16 b 52 489 224 -16 52 179 b 496 994 52 799 224 994 m 496 908 b 147 489 282 908 147 746 b 496 71 147 233 282 71 b 846 489 711 71 846 233 b 496 908 846 746 711 908 "},"Ȱ":{"ha":994,"x_min":0,"x_max":0,"o":"m 703 1280 l 290 1280 l 290 1342 l 703 1342 m 496 1063 b 429 1131 459 1063 429 1093 b 496 1196 429 1166 459 1196 b 564 1131 534 1196 564 1166 b 496 1063 564 1093 534 1063 m 496 994 b 941 489 769 994 941 799 b 496 -16 941 179 770 -16 b 52 489 224 -16 52 179 b 496 994 52 799 224 994 m 496 908 b 147 489 282 908 147 746 b 496 71 147 233 282 71 b 846 489 711 71 846 233 b 496 908 846 746 711 908 "},"Ṑ":{"ha":994,"x_min":0,"x_max":0,"o":"m 460 1224 l 324 1367 l 415 1367 l 539 1224 m 290 1147 l 703 1147 l 703 1084 l 290 1084 m 496 994 b 941 489 769 994 941 799 b 496 -16 941 179 770 -16 b 52 489 224 -16 52 179 b 496 994 52 799 224 994 m 496 908 b 147 489 282 908 147 746 b 496 71 147 233 282 71 b 846 489 711 71 846 233 b 496 908 846 746 711 908 "},"Ǒ":{"ha":994,"x_min":0,"x_max":0,"o":"m 461 1053 l 280 1252 l 367 1252 l 495 1109 l 498 1109 l 627 1252 l 713 1252 l 532 1053 m 496 994 b 941 489 769 994 941 799 b 496 -16 941 179 770 -16 b 52 489 224 -16 52 179 b 496 994 52 799 224 994 m 496 908 b 147 489 282 908 147 746 b 496 71 147 233 282 71 b 846 489 711 71 846 233 b 496 908 846 746 711 908 "},"Ǿ":{"ha":994,"x_min":0,"x_max":0,"o":"m 467 1056 l 591 1252 l 694 1252 l 539 1056 m 496 994 b 786 893 613 994 711 958 l 873 1004 l 926 966 l 831 846 b 941 489 902 759 941 637 b 496 -16 941 179 770 -16 b 220 75 387 -16 292 16 l 140 -26 l 87 14 l 172 121 b 52 489 95 208 52 334 b 496 994 52 799 224 994 m 496 914 b 142 489 279 914 142 749 b 228 192 142 366 173 265 l 731 825 b 496 914 672 882 592 914 m 851 489 b 774 774 851 606 823 703 l 274 143 b 496 64 332 92 408 64 b 851 489 713 64 851 229 "},"Ő":{"ha":994,"x_min":0,"x_max":0,"o":"m 460 1252 l 554 1252 l 437 1057 l 370 1057 m 670 1252 l 768 1252 l 625 1057 l 553 1057 m 496 994 b 941 489 769 994 941 799 b 496 -16 941 179 770 -16 b 52 489 224 -16 52 179 b 496 994 52 799 224 994 m 496 908 b 147 489 282 908 147 746 b 496 71 147 233 282 71 b 846 489 711 71 846 233 b 496 908 846 746 711 908 "},"Ŏ":{"ha":994,"x_min":0,"x_max":0,"o":"m 366 1242 b 496 1115 372 1163 422 1115 b 628 1242 572 1115 621 1163 l 696 1242 b 496 1055 688 1137 616 1055 b 298 1242 378 1055 305 1137 m 496 994 b 941 489 769 994 941 799 b 496 -16 941 179 770 -16 b 52 489 224 -16 52 179 b 496 994 52 799 224 994 m 496 908 b 147 489 282 908 147 746 b 496 71 147 233 282 71 b 846 489 711 71 846 233 b 496 908 846 746 711 908 "},"Ȏ":{"ha":994,"x_min":0,"x_max":0,"o":"m 628 1055 b 496 1182 621 1133 572 1182 b 366 1055 422 1182 372 1133 l 298 1055 b 496 1242 305 1160 378 1242 b 696 1055 616 1242 688 1160 m 496 994 b 941 489 769 994 941 799 b 496 -16 941 179 770 -16 b 52 489 224 -16 52 179 b 496 994 52 799 224 994 m 496 908 b 147 489 282 908 147 746 b 496 71 147 233 282 71 b 846 489 711 71 846 233 b 496 908 846 746 711 908 "},"Ỏ":{"ha":994,"x_min":0,"x_max":0,"o":"m 393 1239 b 474 1255 414 1249 444 1255 b 595 1154 545 1255 595 1216 b 501 1039 595 1104 558 1060 l 468 1082 b 526 1150 503 1095 526 1121 b 463 1201 526 1180 500 1201 b 393 1186 439 1201 412 1196 m 496 994 b 941 489 769 994 941 799 b 496 -16 941 179 770 -16 b 52 489 224 -16 52 179 b 496 994 52 799 224 994 m 496 908 b 147 489 282 908 147 746 b 496 71 147 233 282 71 b 846 489 711 71 846 233 b 496 908 846 746 711 908 "},"Ȫ":{"ha":994,"x_min":0,"x_max":0,"o":"m 703 1342 l 703 1280 l 290 1280 l 290 1342 m 385 1174 b 445 1114 418 1174 445 1147 b 385 1054 445 1080 418 1054 b 326 1114 353 1054 326 1080 b 385 1174 326 1147 353 1174 m 608 1174 b 667 1114 641 1174 667 1147 b 608 1054 667 1080 641 1054 b 549 1114 576 1054 549 1080 b 608 1174 549 1147 576 1174 m 496 994 b 941 489 769 994 941 799 b 496 -16 941 179 770 -16 b 52 489 224 -16 52 179 b 496 994 52 799 224 994 m 496 908 b 147 489 282 908 147 746 b 496 71 147 233 282 71 b 846 489 711 71 846 233 b 496 908 846 746 711 908 "},"Ȭ":{"ha":994,"x_min":0,"x_max":0,"o":"m 703 1280 l 290 1280 l 290 1342 l 703 1342 m 581 1048 b 413 1149 495 1048 469 1149 b 361 1061 379 1149 359 1114 l 300 1061 b 414 1208 300 1152 345 1208 b 581 1107 498 1208 524 1107 b 632 1195 614 1107 632 1141 l 692 1195 b 581 1048 692 1107 648 1048 m 496 994 b 941 489 769 994 941 799 b 496 -16 941 179 770 -16 b 52 489 224 -16 52 179 b 496 994 52 799 224 994 m 496 908 b 147 489 282 908 147 746 b 496 71 147 233 282 71 b 846 489 711 71 846 233 b 496 908 846 746 711 908 "},"Ȯ":{"ha":994,"x_min":0,"x_max":0,"o":"m 496 1101 b 437 1160 464 1101 437 1128 b 496 1221 437 1194 464 1221 b 557 1160 530 1221 557 1194 b 496 1101 557 1128 530 1101 m 496 994 b 941 489 769 994 941 799 b 496 -16 941 179 770 -16 b 52 489 224 -16 52 179 b 496 994 52 799 224 994 m 496 908 b 147 489 282 908 147 746 b 496 71 147 233 282 71 b 846 489 711 71 846 233 b 496 908 846 746 711 908 "},"Ộ":{"ha":994,"x_min":0,"x_max":0,"o":"m 532 1252 l 713 1053 l 627 1053 l 498 1196 l 495 1196 l 367 1053 l 280 1053 l 461 1252 m 496 994 b 941 489 769 994 941 799 b 496 -16 941 179 770 -16 b 52 489 224 -16 52 179 b 496 994 52 799 224 994 m 496 908 b 147 489 282 908 147 746 b 496 71 147 233 282 71 b 846 489 711 71 846 233 b 496 908 846 746 711 908 m 496 -227 b 437 -168 464 -227 437 -201 b 496 -108 437 -134 464 -108 b 557 -168 530 -108 557 -134 b 496 -227 557 -201 530 -227 "},"Ố":{"ha":994,"x_min":0,"x_max":0,"o":"m 740 1367 l 831 1367 l 694 1224 l 616 1224 m 536 1211 l 724 1047 l 630 1047 l 498 1162 l 495 1162 l 363 1047 l 269 1047 l 457 1211 m 496 994 b 941 489 769 994 941 799 b 496 -16 941 179 770 -16 b 52 489 224 -16 52 179 b 496 994 52 799 224 994 m 496 908 b 147 489 282 908 147 746 b 496 71 147 233 282 71 b 846 489 711 71 846 233 b 496 908 846 746 711 908 "},"Ṏ":{"ha":994,"x_min":0,"x_max":0,"o":"m 385 1379 b 445 1319 418 1379 445 1352 b 385 1259 445 1286 418 1259 b 326 1319 353 1259 326 1286 b 385 1379 326 1352 353 1379 m 608 1379 b 667 1319 641 1379 667 1352 b 608 1259 667 1286 641 1259 b 549 1319 576 1259 549 1286 b 608 1379 549 1352 576 1379 m 581 1049 b 413 1149 495 1049 469 1149 b 361 1062 379 1149 359 1115 l 300 1062 b 414 1206 300 1151 345 1206 b 581 1107 498 1206 524 1107 b 632 1194 614 1107 632 1140 l 692 1194 b 581 1049 692 1107 648 1049 m 496 994 b 941 489 769 994 941 799 b 496 -16 941 179 770 -16 b 52 489 224 -16 52 179 b 496 994 52 799 224 994 m 496 908 b 147 489 282 908 147 746 b 496 71 147 233 282 71 b 846 489 711 71 846 233 b 496 908 846 746 711 908 "},"Ō":{"ha":994,"x_min":0,"x_max":0,"o":"m 680 1124 l 314 1124 l 314 1189 l 680 1189 m 496 994 b 941 489 769 994 941 799 b 496 -16 941 179 770 -16 b 52 489 224 -16 52 179 b 496 994 52 799 224 994 m 496 908 b 147 489 282 908 147 746 b 496 71 147 233 282 71 b 846 489 711 71 846 233 b 496 908 846 746 711 908 "},"Ǫ":{"ha":994,"x_min":0,"x_max":0,"o":"m 665 -270 b 530 -155 593 -270 530 -233 b 615 -2 530 -103 553 -56 b 496 -16 578 -11 538 -16 b 52 489 224 -16 52 179 b 496 994 52 799 224 994 b 941 489 769 994 941 799 b 755 61 941 294 873 145 b 611 -132 678 -3 611 -68 b 684 -201 611 -164 627 -201 b 737 -192 700 -201 719 -198 l 737 -257 b 665 -270 715 -265 690 -270 m 496 908 b 147 489 282 908 147 746 b 496 71 147 233 282 71 b 846 489 711 71 846 233 b 496 908 846 746 711 908 "},"Ǭ":{"ha":994,"x_min":0,"x_max":0,"o":"m 680 1124 l 314 1124 l 314 1189 l 680 1189 m 665 -270 b 530 -155 593 -270 530 -233 b 615 -2 530 -103 553 -56 b 496 -16 578 -11 538 -16 b 52 489 224 -16 52 179 b 496 994 52 799 224 994 b 941 489 769 994 941 799 b 755 61 941 294 873 145 b 611 -132 678 -3 611 -68 b 684 -201 611 -164 627 -201 b 737 -192 700 -201 719 -198 l 737 -257 b 665 -270 715 -265 690 -270 m 496 908 b 147 489 282 908 147 746 b 496 71 147 233 282 71 b 846 489 711 71 846 233 b 496 908 846 746 711 908 "},"Ơ":{"ha":994,"x_min":0,"x_max":0,"o":"m 496 -16 b 52 489 224 -16 52 179 b 496 994 52 799 224 994 b 770 971 593 994 660 971 b 865 1044 842 971 865 989 l 865 1131 l 948 1131 l 948 1017 b 811 902 948 944 899 902 l 762 902 l 762 899 b 941 489 870 833 941 668 b 496 -16 941 179 770 -16 m 496 71 b 846 489 711 71 846 233 b 496 908 846 747 711 908 b 147 489 282 908 147 746 b 496 71 147 233 282 71 "},"Ợ":{"ha":994,"x_min":0,"x_max":0,"o":"m 496 -16 b 52 489 224 -16 52 179 b 496 994 52 799 224 994 b 770 971 593 994 660 971 b 865 1044 842 971 865 989 l 865 1131 l 948 1131 l 948 1017 b 811 902 948 944 899 902 l 762 902 l 762 899 b 941 489 870 833 941 668 b 496 -16 941 179 770 -16 m 496 71 b 846 489 711 71 846 233 b 496 908 846 747 711 908 b 147 489 282 908 147 746 b 496 71 147 233 282 71 m 497 -227 b 437 -167 464 -227 437 -199 b 497 -106 437 -133 464 -106 b 557 -167 530 -106 557 -133 b 497 -227 557 -199 530 -227 "},"Ở":{"ha":994,"x_min":0,"x_max":0,"o":"m 393 1240 b 474 1257 414 1251 444 1257 b 595 1156 545 1257 595 1217 b 501 1040 595 1105 558 1061 l 468 1083 b 527 1152 503 1096 527 1122 b 463 1202 527 1181 500 1202 b 393 1187 439 1202 412 1197 m 496 -16 b 52 489 224 -16 52 179 b 496 994 52 799 224 994 b 770 971 593 994 660 971 b 865 1044 842 971 865 989 l 865 1131 l 948 1131 l 948 1017 b 811 902 948 944 899 902 l 762 902 l 762 899 b 941 489 870 833 941 668 b 496 -16 941 179 770 -16 m 496 71 b 846 489 711 71 846 233 b 496 908 846 747 711 908 b 147 489 282 908 147 746 b 496 71 147 233 282 71 "},"Ỡ":{"ha":994,"x_min":0,"x_max":0,"o":"m 576 1077 b 412 1175 481 1077 466 1175 b 357 1082 377 1175 357 1143 l 294 1082 b 416 1239 294 1178 338 1239 b 578 1141 509 1239 520 1141 b 636 1233 615 1141 636 1173 l 699 1233 b 576 1077 699 1138 654 1077 m 496 -16 b 52 489 224 -16 52 179 b 496 994 52 799 224 994 b 770 971 593 994 660 971 b 865 1044 842 971 865 989 l 865 1131 l 948 1131 l 948 1017 b 811 902 948 944 899 902 l 762 902 l 762 899 b 941 489 870 833 941 668 b 496 -16 941 179 770 -16 m 496 71 b 846 489 711 71 846 233 b 496 908 846 747 711 908 b 147 489 282 908 147 746 b 496 71 147 233 282 71 "},"Ờ":{"ha":994,"x_min":0,"x_max":0,"o":"m 300 1253 l 401 1253 l 526 1057 l 454 1057 m 496 -16 b 52 489 224 -16 52 179 b 496 994 52 799 224 994 b 770 971 593 994 660 971 b 865 1044 842 971 865 989 l 865 1131 l 948 1131 l 948 1017 b 811 902 948 944 899 902 l 762 902 l 762 899 b 941 489 870 833 941 668 b 496 -16 941 179 770 -16 m 496 71 b 846 489 711 71 846 233 b 496 908 846 747 711 908 b 147 489 282 908 147 746 b 496 71 147 233 282 71 "},"Ớ":{"ha":994,"x_min":0,"x_max":0,"o":"m 467 1057 l 592 1253 l 694 1253 l 539 1057 m 496 -16 b 52 489 224 -16 52 179 b 496 994 52 799 224 994 b 770 971 593 994 660 971 b 865 1044 842 971 865 989 l 865 1131 l 948 1131 l 948 1017 b 811 902 948 944 899 902 l 762 902 l 762 899 b 941 489 870 833 941 668 b 496 -16 941 179 770 -16 m 496 71 b 846 489 711 71 846 233 b 496 908 846 747 711 908 b 147 489 282 908 147 746 b 496 71 147 233 282 71 "},"P":{"ha":780,"x_min":0,"x_max":0,"o":"m 425 979 b 739 674 612 979 739 856 b 424 369 739 492 610 369 l 184 369 l 184 0 l 92 0 l 92 979 m 184 452 l 403 452 b 644 674 553 452 644 535 b 403 896 644 813 554 896 l 184 896 "},"Ṗ":{"ha":780,"x_min":0,"x_max":0,"o":"m 339 1101 b 279 1160 307 1101 279 1128 b 339 1221 279 1194 307 1221 b 399 1160 372 1221 399 1194 b 339 1101 399 1128 372 1101 m 425 979 b 739 674 612 979 739 856 b 424 369 739 492 610 369 l 184 369 l 184 0 l 92 0 l 92 979 m 184 452 l 403 452 b 644 674 553 452 644 535 b 403 896 644 813 554 896 l 184 896 "},"Ṕ":{"ha":780,"x_min":0,"x_max":0,"o":"m 309 1056 l 434 1252 l 536 1252 l 382 1056 m 425 979 b 739 674 612 979 739 856 b 424 369 739 492 610 369 l 184 369 l 184 0 l 92 0 l 92 979 m 184 452 l 403 452 b 644 674 553 452 644 535 b 403 896 644 813 554 896 l 184 896 "},"Q":{"ha":994,"x_min":0,"x_max":0,"o":"m 496 -16 b 52 489 223 -16 52 179 b 496 994 52 799 224 994 b 941 489 769 994 941 799 b 754 60 941 295 873 145 l 882 -115 l 777 -115 l 679 20 b 496 -16 625 -3 564 -16 m 496 71 b 625 94 543 71 587 79 l 498 268 l 603 268 l 700 135 b 846 489 793 205 846 330 b 496 908 846 746 711 908 b 147 489 282 908 147 746 b 496 71 147 233 283 71 "},"R":{"ha":809,"x_min":0,"x_max":0,"o":"m 184 0 l 92 0 l 92 979 l 437 979 b 750 692 628 979 750 867 b 541 416 750 554 671 450 l 778 0 l 669 0 l 444 401 b 429 401 441 401 434 401 l 184 401 m 184 483 l 429 483 b 654 690 572 483 654 559 b 426 896 654 819 568 896 l 184 896 "},"Ř":{"ha":809,"x_min":0,"x_max":0,"o":"m 325 1053 l 144 1252 l 231 1252 l 359 1109 l 362 1109 l 490 1252 l 577 1252 l 396 1053 m 184 0 l 92 0 l 92 979 l 437 979 b 750 692 628 979 750 867 b 541 416 750 554 671 450 l 778 0 l 669 0 l 444 401 b 429 401 441 401 434 401 l 184 401 m 184 483 l 429 483 b 654 690 572 483 654 559 b 426 896 654 819 568 896 l 184 896 "},"Ṟ":{"ha":809,"x_min":0,"x_max":0,"o":"m 184 0 l 92 0 l 92 979 l 437 979 b 750 692 628 979 750 867 b 541 416 750 554 671 450 l 778 0 l 669 0 l 444 401 b 429 401 441 401 434 401 l 184 401 m 184 483 l 429 483 b 654 690 572 483 654 559 b 426 896 654 819 568 896 l 184 896 m 543 -200 l 178 -200 l 178 -136 l 543 -136 "},"Ṝ":{"ha":809,"x_min":0,"x_max":0,"o":"m 543 1124 l 178 1124 l 178 1189 l 543 1189 m 184 0 l 92 0 l 92 979 l 437 979 b 750 692 628 979 750 867 b 541 416 750 554 671 450 l 778 0 l 669 0 l 444 401 b 429 401 441 401 434 401 l 184 401 m 184 483 l 429 483 b 654 690 572 483 654 559 b 426 896 654 819 568 896 l 184 896 m 360 -227 b 300 -168 328 -227 300 -201 b 360 -108 300 -134 328 -108 b 420 -168 394 -108 420 -134 b 360 -227 420 -201 394 -227 "},"Ȑ":{"ha":809,"x_min":0,"x_max":0,"o":"m 420 1057 l 302 1252 l 397 1252 l 488 1057 m 232 1057 l 89 1252 l 187 1252 l 304 1057 m 184 0 l 92 0 l 92 979 l 437 979 b 750 692 628 979 750 867 b 541 416 750 554 671 450 l 778 0 l 669 0 l 444 401 b 429 401 441 401 434 401 l 184 401 m 184 483 l 429 483 b 654 690 572 483 654 559 b 426 896 654 819 568 896 l 184 896 "},"Ȓ":{"ha":809,"x_min":0,"x_max":0,"o":"m 492 1055 b 360 1182 485 1133 435 1182 b 229 1055 286 1182 236 1133 l 161 1055 b 360 1242 169 1160 241 1242 b 559 1055 479 1242 552 1160 m 184 0 l 92 0 l 92 979 l 437 979 b 750 692 628 979 750 867 b 541 416 750 554 671 450 l 778 0 l 669 0 l 444 401 b 429 401 441 401 434 401 l 184 401 m 184 483 l 429 483 b 654 690 572 483 654 559 b 426 896 654 819 568 896 l 184 896 "},"Ŕ":{"ha":809,"x_min":0,"x_max":0,"o":"m 330 1056 l 456 1252 l 557 1252 l 403 1056 m 184 0 l 92 0 l 92 979 l 437 979 b 750 692 628 979 750 867 b 541 416 750 554 671 450 l 778 0 l 669 0 l 444 401 b 429 401 441 401 434 401 l 184 401 m 184 483 l 429 483 b 654 690 572 483 654 559 b 426 896 654 819 568 896 l 184 896 "},"Ṛ":{"ha":809,"x_min":0,"x_max":0,"o":"m 184 0 l 92 0 l 92 979 l 437 979 b 750 692 628 979 750 867 b 541 416 750 554 671 450 l 778 0 l 669 0 l 444 401 b 429 401 441 401 434 401 l 184 401 m 184 483 l 429 483 b 654 690 572 483 654 559 b 426 896 654 819 568 896 l 184 896 m 360 -227 b 300 -168 328 -227 300 -201 b 360 -108 300 -134 328 -108 b 420 -168 394 -108 420 -134 b 360 -227 420 -201 394 -227 "},"Ṙ":{"ha":809,"x_min":0,"x_max":0,"o":"m 360 1101 b 300 1160 328 1101 300 1128 b 360 1221 300 1194 328 1221 b 420 1160 394 1221 420 1194 b 360 1101 420 1128 394 1101 m 184 0 l 92 0 l 92 979 l 437 979 b 750 692 628 979 750 867 b 541 416 750 554 671 450 l 778 0 l 669 0 l 444 401 b 429 401 441 401 434 401 l 184 401 m 184 483 l 429 483 b 654 690 572 483 654 559 b 426 896 654 819 568 896 l 184 896 "},"Ŗ":{"ha":809,"x_min":0,"x_max":0,"o":"m 184 0 l 92 0 l 92 979 l 437 979 b 750 692 628 979 750 867 b 541 416 750 554 671 450 l 778 0 l 669 0 l 444 401 b 429 401 441 401 434 401 l 184 401 m 184 483 l 429 483 b 654 690 572 483 654 559 b 426 896 654 819 568 896 l 184 896 m 245 -328 l 317 -89 l 402 -89 l 315 -328 "},"S":{"ha":801,"x_min":0,"x_max":0,"o":"m 136 261 b 410 68 148 144 257 68 b 663 258 557 68 663 146 b 451 440 663 350 602 406 l 345 464 b 68 726 150 507 68 591 b 403 994 68 884 211 994 b 739 724 593 994 734 881 l 646 724 b 401 910 637 836 540 910 b 163 730 269 910 163 841 b 369 552 163 641 224 585 l 475 528 b 758 270 677 482 758 406 b 406 -16 758 96 618 -16 b 43 261 197 -16 54 96 "},"Š":{"ha":801,"x_min":0,"x_max":0,"o":"m 372 1053 l 190 1252 l 277 1252 l 406 1109 l 408 1109 l 537 1252 l 623 1252 l 442 1053 m 136 261 b 410 68 148 144 257 68 b 663 258 557 68 663 146 b 451 440 663 350 602 406 l 345 464 b 68 726 150 507 68 591 b 403 994 68 884 211 994 b 739 724 593 994 734 881 l 646 724 b 401 910 637 836 540 910 b 163 730 269 910 163 841 b 369 552 163 641 224 585 l 475 528 b 758 270 677 482 758 406 b 406 -16 758 96 618 -16 b 43 261 197 -16 54 96 "},"Ş":{"ha":801,"x_min":0,"x_max":0,"o":"m 136 261 b 410 68 148 144 257 68 b 663 258 557 68 663 146 b 451 440 663 350 602 406 l 345 464 b 68 726 150 507 68 591 b 403 994 68 884 211 994 b 739 724 593 994 734 881 l 646 724 b 401 910 637 836 540 910 b 163 730 269 910 163 841 b 369 552 163 641 224 585 l 475 528 b 758 270 677 482 758 406 b 441 -14 758 106 633 -3 l 406 -89 b 549 -197 493 -91 549 -130 b 391 -316 549 -272 479 -315 b 295 -306 355 -317 313 -312 l 295 -248 b 374 -257 309 -252 341 -257 b 473 -199 425 -257 473 -237 b 372 -146 473 -163 439 -146 l 330 -146 l 330 -106 l 372 -14 b 43 261 182 -3 53 104 "},"Ṡ":{"ha":801,"x_min":0,"x_max":0,"o":"m 407 1101 b 347 1160 374 1101 347 1128 b 407 1221 347 1194 374 1221 b 467 1160 440 1221 467 1194 b 407 1101 467 1128 440 1101 m 136 261 b 410 68 148 144 257 68 b 663 258 557 68 663 146 b 451 440 663 350 602 406 l 345 464 b 68 726 150 507 68 591 b 403 994 68 884 211 994 b 739 724 593 994 734 881 l 646 724 b 401 910 637 836 540 910 b 163 730 269 910 163 841 b 369 552 163 641 224 585 l 475 528 b 758 270 677 482 758 406 b 406 -16 758 96 618 -16 b 43 261 197 -16 54 96 "},"Ṣ":{"ha":801,"x_min":0,"x_max":0,"o":"m 136 261 b 410 68 148 144 257 68 b 663 258 557 68 663 146 b 451 440 663 350 602 406 l 345 464 b 68 726 150 507 68 591 b 403 994 68 884 211 994 b 739 724 593 994 734 881 l 646 724 b 401 910 637 836 540 910 b 163 730 269 910 163 841 b 369 552 163 641 224 585 l 475 528 b 758 270 677 482 758 406 b 406 -16 758 96 618 -16 b 43 261 197 -16 54 96 m 399 -227 b 339 -168 366 -227 339 -201 b 399 -108 339 -134 366 -108 b 459 -168 433 -108 459 -134 b 399 -227 459 -201 433 -227 "},"Ș":{"ha":801,"x_min":0,"x_max":0,"o":"m 136 261 b 410 68 148 144 257 68 b 663 258 557 68 663 146 b 451 440 663 350 602 406 l 345 464 b 68 726 150 507 68 591 b 403 994 68 884 211 994 b 739 724 593 994 734 881 l 646 724 b 401 910 637 836 540 910 b 163 730 269 910 163 841 b 369 552 163 641 224 585 l 475 528 b 758 270 677 482 758 406 b 406 -16 758 96 618 -16 b 43 261 197 -16 54 96 m 285 -328 l 357 -89 l 441 -89 l 355 -328 "},"Ṩ":{"ha":801,"x_min":0,"x_max":0,"o":"m 407 1101 b 347 1160 374 1101 347 1128 b 407 1221 347 1194 374 1221 b 467 1160 440 1221 467 1194 b 407 1101 467 1128 440 1101 m 136 261 b 410 68 148 144 257 68 b 663 258 557 68 663 146 b 451 440 663 350 602 406 l 345 464 b 68 726 150 507 68 591 b 403 994 68 884 211 994 b 739 724 593 994 734 881 l 646 724 b 401 910 637 836 540 910 b 163 730 269 910 163 841 b 369 552 163 641 224 585 l 475 528 b 758 270 677 482 758 406 b 406 -16 758 96 618 -16 b 43 261 197 -16 54 96 m 399 -227 b 339 -168 366 -227 339 -201 b 399 -108 339 -134 366 -108 b 459 -168 433 -108 459 -134 b 399 -227 459 -201 433 -227 "},"Ṧ":{"ha":801,"x_min":0,"x_max":0,"o":"m 407 1243 b 343 1308 372 1243 343 1272 b 407 1371 343 1343 372 1371 b 471 1308 442 1371 471 1343 b 407 1243 471 1272 442 1243 m 180 1211 l 273 1211 l 406 1096 l 408 1096 l 541 1211 l 634 1211 l 446 1047 l 368 1047 m 136 261 b 410 68 148 144 257 68 b 663 258 557 68 663 146 b 451 440 663 350 602 406 l 345 464 b 68 726 150 507 68 591 b 403 994 68 884 211 994 b 739 724 593 994 734 881 l 646 724 b 401 910 637 836 540 910 b 163 730 269 910 163 841 b 369 552 163 641 224 585 l 475 528 b 758 270 677 482 758 406 b 406 -16 758 96 618 -16 b 43 261 197 -16 54 96 "},"Ŝ":{"ha":801,"x_min":0,"x_max":0,"o":"m 442 1252 l 623 1053 l 537 1053 l 408 1196 l 406 1196 l 277 1053 l 190 1053 l 372 1252 m 136 261 b 410 68 148 144 257 68 b 663 258 557 68 663 146 b 451 440 663 350 602 406 l 345 464 b 68 726 150 507 68 591 b 403 994 68 884 211 994 b 739 724 593 994 734 881 l 646 724 b 401 910 637 836 540 910 b 163 730 269 910 163 841 b 369 552 163 641 224 585 l 475 528 b 758 270 677 482 758 406 b 406 -16 758 96 618 -16 b 43 261 197 -16 54 96 "},"Ṥ":{"ha":801,"x_min":0,"x_max":0,"o":"m 431 1056 l 555 1252 l 658 1252 l 503 1056 m 299 1124 b 239 1183 266 1124 239 1150 b 299 1244 239 1217 266 1244 b 359 1183 332 1244 359 1217 b 299 1124 359 1150 332 1124 m 136 261 b 410 68 148 144 257 68 b 663 258 557 68 663 146 b 451 440 663 350 602 406 l 345 464 b 68 726 150 507 68 591 b 403 994 68 884 211 994 b 739 724 593 994 734 881 l 646 724 b 401 910 637 836 540 910 b 163 730 269 910 163 841 b 369 552 163 641 224 585 l 475 528 b 758 270 677 482 758 406 b 406 -16 758 96 618 -16 b 43 261 197 -16 54 96 "},"Ś":{"ha":801,"x_min":0,"x_max":0,"o":"m 377 1056 l 502 1252 l 604 1252 l 449 1056 m 136 261 b 410 68 148 144 257 68 b 663 258 557 68 663 146 b 451 440 663 350 602 406 l 345 464 b 68 726 150 507 68 591 b 403 994 68 884 211 994 b 739 724 593 994 734 881 l 646 724 b 401 910 637 836 540 910 b 163 730 269 910 163 841 b 369 552 163 641 224 585 l 475 528 b 758 270 677 482 758 406 b 406 -16 758 96 618 -16 b 43 261 197 -16 54 96 "},"ẞ":{"ha":926,"x_min":0,"x_max":0,"o":"m 591 -16 b 368 32 516 -16 437 1 l 368 125 b 588 70 447 85 517 70 b 788 258 709 70 788 143 l 788 259 b 551 462 788 368 713 433 l 458 479 l 458 551 l 724 849 b 471 908 635 889 554 907 b 184 631 294 909 184 817 l 184 0 l 92 0 l 92 642 b 473 994 92 870 241 994 b 825 901 581 994 701 962 l 825 831 l 562 540 l 599 532 b 883 260 793 493 883 407 l 883 259 b 591 -16 883 92 768 -16 "},"T":{"ha":790,"x_min":0,"x_max":0,"o":"m 349 0 l 349 895 l 26 895 l 26 979 l 765 979 l 765 895 l 441 895 l 441 0 "},"Ṱ":{"ha":790,"x_min":0,"x_max":0,"o":"m 349 0 l 349 895 l 26 895 l 26 979 l 765 979 l 765 895 l 441 895 l 441 0 m 602 -293 l 518 -293 l 397 -148 l 393 -148 l 272 -293 l 188 -293 l 359 -89 l 431 -89 "},"Ṭ":{"ha":790,"x_min":0,"x_max":0,"o":"m 349 0 l 349 895 l 26 895 l 26 979 l 765 979 l 765 895 l 441 895 l 441 0 m 395 -227 b 335 -168 362 -227 335 -201 b 395 -108 335 -134 362 -108 b 455 -168 429 -108 455 -134 b 395 -227 455 -201 429 -227 "},"Ț":{"ha":790,"x_min":0,"x_max":0,"o":"m 349 0 l 349 895 l 26 895 l 26 979 l 765 979 l 765 895 l 441 895 l 441 0 m 280 -328 l 352 -89 l 437 -89 l 350 -328 "},"Ṫ":{"ha":790,"x_min":0,"x_max":0,"o":"m 395 1101 b 335 1160 362 1101 335 1128 b 395 1221 335 1194 362 1221 b 455 1160 429 1221 455 1194 b 395 1101 455 1128 429 1101 m 349 0 l 349 895 l 26 895 l 26 979 l 765 979 l 765 895 l 441 895 l 441 0 "},"Ţ":{"ha":790,"x_min":0,"x_max":0,"o":"m 324 -106 l 373 0 l 349 0 l 349 895 l 26 895 l 26 979 l 765 979 l 765 895 l 441 895 l 441 0 l 399 -89 b 543 -197 487 -91 543 -130 b 385 -316 543 -272 472 -315 b 289 -306 349 -317 307 -312 l 289 -248 b 368 -257 303 -252 335 -257 b 467 -199 418 -257 467 -237 b 366 -146 467 -163 433 -146 l 324 -146 "},"Ṯ":{"ha":790,"x_min":0,"x_max":0,"o":"m 349 0 l 349 895 l 26 895 l 26 979 l 765 979 l 765 895 l 441 895 l 441 0 m 578 -200 l 212 -200 l 212 -136 l 578 -136 "},"Ť":{"ha":790,"x_min":0,"x_max":0,"o":"m 359 1053 l 178 1252 l 265 1252 l 393 1109 l 397 1109 l 525 1252 l 612 1252 l 431 1053 m 349 0 l 349 895 l 26 895 l 26 979 l 765 979 l 765 895 l 441 895 l 441 0 "},"Ŧ":{"ha":790,"x_min":0,"x_max":0,"o":"m 349 0 l 349 453 l 118 453 l 118 528 l 349 528 l 349 895 l 26 895 l 26 979 l 765 979 l 765 895 l 441 895 l 441 528 l 673 528 l 673 453 l 441 453 l 441 0 "},"U":{"ha":940,"x_min":0,"x_max":0,"o":"m 184 347 b 470 71 184 183 291 71 b 756 347 650 71 756 183 l 756 979 l 849 979 l 849 342 b 470 -16 849 131 705 -16 b 92 342 235 -16 92 131 l 92 979 l 184 979 "},"Ù":{"ha":940,"x_min":0,"x_max":0,"o":"m 273 1252 l 375 1252 l 500 1056 l 427 1056 m 184 347 b 470 71 184 183 291 71 b 756 347 650 71 756 183 l 756 979 l 849 979 l 849 342 b 470 -16 849 131 705 -16 b 92 342 235 -16 92 131 l 92 979 l 184 979 "},"Ȕ":{"ha":940,"x_min":0,"x_max":0,"o":"m 530 1057 l 412 1252 l 507 1252 l 597 1057 m 342 1057 l 199 1252 l 297 1252 l 414 1057 m 184 347 b 470 71 184 183 291 71 b 756 347 650 71 756 183 l 756 979 l 849 979 l 849 342 b 470 -16 849 131 705 -16 b 92 342 235 -16 92 131 l 92 979 l 184 979 "},"Ú":{"ha":940,"x_min":0,"x_max":0,"o":"m 440 1056 l 565 1252 l 667 1252 l 513 1056 m 184 347 b 470 71 184 183 291 71 b 756 347 650 71 756 183 l 756 979 l 849 979 l 849 342 b 470 -16 849 131 705 -16 b 92 342 235 -16 92 131 l 92 979 l 184 979 "},"Ű":{"ha":940,"x_min":0,"x_max":0,"o":"m 433 1252 l 528 1252 l 410 1057 l 343 1057 m 643 1252 l 742 1252 l 599 1057 l 527 1057 m 184 347 b 470 71 184 183 291 71 b 756 347 650 71 756 183 l 756 979 l 849 979 l 849 342 b 470 -16 849 131 705 -16 b 92 342 235 -16 92 131 l 92 979 l 184 979 "},"Û":{"ha":940,"x_min":0,"x_max":0,"o":"m 505 1252 l 687 1053 l 600 1053 l 472 1196 l 469 1196 l 340 1053 l 254 1053 l 435 1252 m 184 347 b 470 71 184 183 291 71 b 756 347 650 71 756 183 l 756 979 l 849 979 l 849 342 b 470 -16 849 131 705 -16 b 92 342 235 -16 92 131 l 92 979 l 184 979 "},"Ǔ":{"ha":940,"x_min":0,"x_max":0,"o":"m 435 1053 l 254 1252 l 340 1252 l 469 1109 l 472 1109 l 600 1252 l 687 1252 l 505 1053 m 184 347 b 470 71 184 183 291 71 b 756 347 650 71 756 183 l 756 979 l 849 979 l 849 342 b 470 -16 849 131 705 -16 b 92 342 235 -16 92 131 l 92 979 l 184 979 "},"Ṷ":{"ha":940,"x_min":0,"x_max":0,"o":"m 184 347 b 470 71 184 183 291 71 b 756 347 650 71 756 183 l 756 979 l 849 979 l 849 342 b 470 -16 849 131 705 -16 b 92 342 235 -16 92 131 l 92 979 l 184 979 m 677 -293 l 593 -293 l 472 -148 l 469 -148 l 347 -293 l 262 -293 l 435 -89 l 505 -89 "},"Ü":{"ha":940,"x_min":0,"x_max":0,"o":"m 354 1101 b 294 1160 321 1101 294 1128 b 354 1221 294 1194 321 1221 b 414 1160 388 1221 414 1194 b 354 1101 414 1128 388 1101 m 586 1101 b 526 1160 553 1101 526 1128 b 586 1221 526 1194 553 1221 b 646 1160 619 1221 646 1194 b 586 1101 646 1128 619 1101 m 184 347 b 470 71 184 183 291 71 b 756 347 650 71 756 183 l 756 979 l 849 979 l 849 342 b 470 -16 849 131 705 -16 b 92 342 235 -16 92 131 l 92 979 l 184 979 "},"Ǜ":{"ha":940,"x_min":0,"x_max":0,"o":"m 434 1224 l 298 1367 l 389 1367 l 513 1224 m 359 1054 b 299 1114 326 1054 299 1080 b 359 1174 299 1147 326 1174 b 418 1114 391 1174 418 1147 b 359 1054 418 1080 391 1054 m 581 1054 b 522 1114 549 1054 522 1080 b 581 1174 522 1147 549 1174 b 641 1114 614 1174 641 1147 b 581 1054 641 1080 614 1054 m 184 347 b 470 71 184 183 291 71 b 756 347 650 71 756 183 l 756 979 l 849 979 l 849 342 b 470 -16 849 131 705 -16 b 92 342 235 -16 92 131 l 92 979 l 184 979 "},"Ǘ":{"ha":940,"x_min":0,"x_max":0,"o":"m 547 1367 l 637 1367 l 502 1224 l 423 1224 m 359 1054 b 299 1114 326 1054 299 1080 b 359 1174 299 1147 326 1174 b 418 1114 391 1174 418 1147 b 359 1054 418 1080 391 1054 m 581 1054 b 522 1114 549 1054 522 1080 b 581 1174 522 1147 549 1174 b 641 1114 614 1174 641 1147 b 581 1054 641 1080 614 1054 m 184 347 b 470 71 184 183 291 71 b 756 347 650 71 756 183 l 756 979 l 849 979 l 849 342 b 470 -16 849 131 705 -16 b 92 342 235 -16 92 131 l 92 979 l 184 979 "},"Ǖ":{"ha":940,"x_min":0,"x_max":0,"o":"m 677 1342 l 677 1280 l 263 1280 l 263 1342 m 359 1174 b 418 1114 391 1174 418 1147 b 359 1054 418 1080 391 1054 b 299 1114 326 1054 299 1080 b 359 1174 299 1147 326 1174 m 581 1174 b 641 1114 614 1174 641 1147 b 581 1054 641 1080 614 1054 b 522 1114 549 1054 522 1080 b 581 1174 522 1147 549 1174 m 184 347 b 470 71 184 183 291 71 b 756 347 650 71 756 183 l 756 979 l 849 979 l 849 342 b 470 -16 849 131 705 -16 b 92 342 235 -16 92 131 l 92 979 l 184 979 "},"Ǚ":{"ha":940,"x_min":0,"x_max":0,"o":"m 252 1369 l 345 1369 l 469 1265 l 472 1265 l 595 1369 l 689 1369 l 509 1217 l 431 1217 m 359 1174 b 418 1114 391 1174 418 1147 b 359 1054 418 1080 391 1054 b 299 1114 326 1054 299 1080 b 359 1174 299 1147 326 1174 m 581 1174 b 641 1114 614 1174 641 1147 b 581 1054 641 1080 614 1054 b 522 1114 549 1054 522 1080 b 581 1174 522 1147 549 1174 m 184 347 b 470 71 184 183 291 71 b 756 347 650 71 756 183 l 756 979 l 849 979 l 849 342 b 470 -16 849 131 705 -16 b 92 342 235 -16 92 131 l 92 979 l 184 979 "},"Ṳ":{"ha":940,"x_min":0,"x_max":0,"o":"m 184 347 b 470 71 184 183 291 71 b 756 347 650 71 756 183 l 756 979 l 849 979 l 849 342 b 470 -16 849 131 705 -16 b 92 342 235 -16 92 131 l 92 979 l 184 979 m 354 -227 b 294 -168 321 -227 294 -201 b 354 -108 294 -134 321 -108 b 414 -168 388 -108 414 -134 b 354 -227 414 -201 388 -227 m 586 -227 b 526 -168 553 -227 526 -201 b 586 -108 526 -134 553 -108 b 646 -168 619 -108 646 -134 b 586 -227 646 -201 619 -227 "},"Ṵ":{"ha":940,"x_min":0,"x_max":0,"o":"m 184 347 b 470 71 184 183 291 71 b 756 347 650 71 756 183 l 756 979 l 849 979 l 849 342 b 470 -16 849 131 705 -16 b 92 342 235 -16 92 131 l 92 979 l 184 979 m 549 -249 b 385 -151 454 -249 439 -151 b 330 -243 351 -151 330 -182 l 268 -243 b 389 -87 268 -148 312 -87 b 551 -185 483 -87 493 -185 b 610 -93 589 -185 610 -153 l 673 -93 b 549 -249 673 -187 627 -249 "},"Ủ":{"ha":940,"x_min":0,"x_max":0,"o":"m 367 1239 b 447 1255 387 1249 418 1255 b 569 1154 519 1255 569 1216 b 475 1039 569 1104 532 1060 l 441 1082 b 500 1150 477 1095 500 1121 b 437 1201 500 1180 473 1201 b 367 1186 412 1201 385 1196 m 184 347 b 470 71 184 183 291 71 b 756 347 650 71 756 183 l 756 979 l 849 979 l 849 342 b 470 -16 849 131 705 -16 b 92 342 235 -16 92 131 l 92 979 l 184 979 "},"Ŭ":{"ha":940,"x_min":0,"x_max":0,"o":"m 338 1242 b 470 1115 346 1163 395 1115 b 602 1242 545 1115 595 1163 l 669 1242 b 470 1055 661 1137 589 1055 b 271 1242 351 1055 279 1137 m 184 347 b 470 71 184 183 291 71 b 756 347 650 71 756 183 l 756 979 l 849 979 l 849 342 b 470 -16 849 131 705 -16 b 92 342 235 -16 92 131 l 92 979 l 184 979 "},"Ȗ":{"ha":940,"x_min":0,"x_max":0,"o":"m 602 1055 b 470 1182 595 1133 545 1182 b 338 1055 395 1182 346 1133 l 271 1055 b 470 1242 279 1160 351 1242 b 669 1055 589 1242 661 1160 m 184 347 b 470 71 184 183 291 71 b 756 347 650 71 756 183 l 756 979 l 849 979 l 849 342 b 470 -16 849 131 705 -16 b 92 342 235 -16 92 131 l 92 979 l 184 979 "},"Ṹ":{"ha":940,"x_min":0,"x_max":0,"o":"m 554 1367 l 646 1367 l 522 1242 l 443 1242 m 554 1048 b 387 1149 469 1048 443 1149 b 334 1061 353 1149 333 1114 l 274 1061 b 387 1208 274 1152 318 1208 b 554 1107 471 1208 497 1107 b 606 1195 588 1107 606 1141 l 666 1195 b 554 1048 666 1107 621 1048 m 184 347 b 470 71 184 183 291 71 b 756 347 650 71 756 183 l 756 979 l 849 979 l 849 342 b 470 -16 849 131 705 -16 b 92 342 235 -16 92 131 l 92 979 l 184 979 "},"Ụ":{"ha":940,"x_min":0,"x_max":0,"o":"m 184 347 b 470 71 184 183 291 71 b 756 347 650 71 756 183 l 756 979 l 849 979 l 849 342 b 470 -16 849 131 705 -16 b 92 342 235 -16 92 131 l 92 979 l 184 979 m 470 -227 b 410 -168 437 -227 410 -201 b 470 -108 410 -134 437 -108 b 530 -168 503 -108 530 -134 b 470 -227 530 -201 503 -227 "},"Ũ":{"ha":940,"x_min":0,"x_max":0,"o":"m 549 1076 b 385 1174 454 1076 439 1174 b 330 1081 351 1174 330 1142 l 268 1081 b 389 1238 268 1177 312 1238 b 551 1139 483 1238 493 1139 b 610 1232 589 1139 610 1172 l 673 1232 b 549 1076 673 1137 627 1076 m 184 347 b 470 71 184 183 291 71 b 756 347 650 71 756 183 l 756 979 l 849 979 l 849 342 b 470 -16 849 131 705 -16 b 92 342 235 -16 92 131 l 92 979 l 184 979 "},"Ū":{"ha":940,"x_min":0,"x_max":0,"o":"m 652 1124 l 288 1124 l 288 1189 l 652 1189 m 184 347 b 470 71 184 183 291 71 b 756 347 650 71 756 183 l 756 979 l 849 979 l 849 342 b 470 -16 849 131 705 -16 b 92 342 235 -16 92 131 l 92 979 l 184 979 "},"Ṻ":{"ha":940,"x_min":0,"x_max":0,"o":"m 359 1236 b 299 1297 326 1236 299 1263 b 359 1356 299 1330 326 1356 b 418 1297 391 1356 418 1330 b 359 1236 418 1263 391 1236 m 581 1236 b 522 1297 549 1236 522 1263 b 581 1356 522 1330 549 1356 b 641 1297 614 1356 641 1330 b 581 1236 641 1263 614 1236 m 263 1084 l 263 1147 l 677 1147 l 677 1084 m 184 347 b 470 71 184 183 291 71 b 756 347 650 71 756 183 l 756 979 l 849 979 l 849 342 b 470 -16 849 131 705 -16 b 92 342 235 -16 92 131 l 92 979 l 184 979 "},"Ů":{"ha":940,"x_min":0,"x_max":0,"o":"m 470 1028 b 347 1152 402 1028 347 1084 b 470 1276 347 1220 402 1276 b 593 1152 538 1276 593 1220 b 470 1028 593 1084 538 1028 m 470 1077 b 545 1152 512 1077 545 1110 b 470 1227 545 1194 512 1227 b 395 1152 429 1227 395 1194 b 470 1077 395 1110 429 1077 m 184 347 b 470 71 184 183 291 71 b 756 347 650 71 756 183 l 756 979 l 849 979 l 849 342 b 470 -16 849 131 705 -16 b 92 342 235 -16 92 131 l 92 979 l 184 979 "},"Ų":{"ha":940,"x_min":0,"x_max":0,"o":"m 630 -270 b 494 -155 558 -270 494 -233 b 578 -4 494 -104 517 -57 b 470 -16 545 -12 509 -16 b 92 342 235 -16 92 131 l 92 979 l 184 979 l 184 347 b 470 71 184 183 291 71 b 756 347 650 71 756 183 l 756 979 l 849 979 l 849 342 b 715 56 849 220 801 119 b 576 -132 640 -5 576 -69 b 648 -201 576 -164 593 -201 b 703 -192 665 -201 684 -198 l 703 -257 b 630 -270 680 -265 655 -270 "},"Ư":{"ha":1038,"x_min":0,"x_max":0,"o":"m 470 -16 b 92 342 241 -16 92 125 l 92 979 l 184 979 l 184 347 b 470 71 184 180 297 71 b 756 347 644 71 756 180 l 756 979 l 867 979 b 935 1042 913 979 935 999 l 935 1149 l 1018 1149 l 1018 1026 b 890 911 1018 954 970 911 l 849 911 l 849 342 b 470 -16 849 125 699 -16 "},"Ừ":{"ha":1038,"x_min":0,"x_max":0,"o":"m 273 1252 l 375 1252 l 500 1056 l 427 1056 m 470 -16 b 92 342 241 -16 92 125 l 92 979 l 184 979 l 184 347 b 470 71 184 180 297 71 b 756 347 644 71 756 180 l 756 979 l 867 979 b 935 1042 913 979 935 999 l 935 1149 l 1018 1149 l 1018 1026 b 890 911 1018 954 970 911 l 849 911 l 849 342 b 470 -16 849 125 699 -16 "},"Ứ":{"ha":1038,"x_min":0,"x_max":0,"o":"m 440 1056 l 565 1252 l 667 1252 l 513 1056 m 470 -16 b 92 342 241 -16 92 125 l 92 979 l 184 979 l 184 347 b 470 71 184 180 297 71 b 756 347 644 71 756 180 l 756 979 l 867 979 b 935 1042 913 979 935 999 l 935 1149 l 1018 1149 l 1018 1026 b 890 911 1018 954 970 911 l 849 911 l 849 342 b 470 -16 849 125 699 -16 "},"Ự":{"ha":1038,"x_min":0,"x_max":0,"o":"m 470 -16 b 92 342 241 -16 92 125 l 92 979 l 184 979 l 184 347 b 470 71 184 180 297 71 b 756 347 644 71 756 180 l 756 979 l 867 979 b 935 1042 913 979 935 999 l 935 1149 l 1018 1149 l 1018 1026 b 890 911 1018 954 970 911 l 849 911 l 849 342 b 470 -16 849 125 699 -16 m 470 -227 b 410 -168 437 -227 410 -201 b 470 -108 410 -134 437 -108 b 530 -168 503 -108 530 -134 b 470 -227 530 -201 503 -227 "},"Ử":{"ha":1038,"x_min":0,"x_max":0,"o":"m 367 1239 b 447 1255 387 1249 418 1255 b 569 1154 519 1255 569 1216 b 475 1039 569 1104 532 1060 l 441 1082 b 500 1150 477 1095 500 1121 b 437 1201 500 1180 473 1201 b 367 1186 412 1201 385 1196 m 470 -16 b 92 342 241 -16 92 125 l 92 979 l 184 979 l 184 347 b 470 71 184 180 297 71 b 756 347 644 71 756 180 l 756 979 l 867 979 b 935 1042 913 979 935 999 l 935 1149 l 1018 1149 l 1018 1026 b 890 911 1018 954 970 911 l 849 911 l 849 342 b 470 -16 849 125 699 -16 "},"Ữ":{"ha":1038,"x_min":0,"x_max":0,"o":"m 549 1076 b 385 1174 454 1076 439 1174 b 330 1081 351 1174 330 1142 l 268 1081 b 389 1238 268 1177 312 1238 b 551 1139 483 1238 493 1139 b 610 1232 589 1139 610 1172 l 673 1232 b 549 1076 673 1137 627 1076 m 470 -16 b 92 342 241 -16 92 125 l 92 979 l 184 979 l 184 347 b 470 71 184 180 297 71 b 756 347 644 71 756 180 l 756 979 l 867 979 b 935 1042 913 979 935 999 l 935 1149 l 1018 1149 l 1018 1026 b 890 911 1018 954 970 911 l 849 911 l 849 342 b 470 -16 849 125 699 -16 "},"V":{"ha":856,"x_min":0,"x_max":0,"o":"m 382 0 l 16 979 l 114 979 l 426 115 l 430 115 l 743 979 l 840 979 l 474 0 "},"Ṽ":{"ha":856,"x_min":0,"x_max":0,"o":"m 507 1076 b 343 1174 412 1076 397 1174 b 288 1081 309 1174 288 1142 l 226 1081 b 347 1238 226 1177 270 1238 b 509 1139 441 1238 451 1139 b 568 1232 547 1139 568 1172 l 631 1232 b 507 1076 631 1137 585 1076 m 382 0 l 16 979 l 114 979 l 426 115 l 430 115 l 743 979 l 840 979 l 474 0 "},"Ṿ":{"ha":856,"x_min":0,"x_max":0,"o":"m 382 0 l 16 979 l 114 979 l 426 115 l 430 115 l 743 979 l 840 979 l 474 0 m 428 -227 b 368 -168 395 -227 368 -201 b 428 -108 368 -134 395 -108 b 488 -168 461 -108 488 -134 b 428 -227 488 -201 461 -227 "},"W":{"ha":1257,"x_min":0,"x_max":0,"o":"m 385 0 l 299 0 l 30 979 l 126 979 l 342 142 l 346 142 l 583 979 l 675 979 l 911 142 l 916 142 l 1131 979 l 1227 979 l 958 0 l 872 0 l 631 820 l 626 820 "},"Ẁ":{"ha":1257,"x_min":0,"x_max":0,"o":"m 431 1252 l 533 1252 l 658 1056 l 586 1056 m 385 0 l 299 0 l 30 979 l 126 979 l 342 142 l 346 142 l 583 979 l 675 979 l 911 142 l 916 142 l 1131 979 l 1227 979 l 958 0 l 872 0 l 631 820 l 626 820 "},"Ẃ":{"ha":1257,"x_min":0,"x_max":0,"o":"m 599 1056 l 724 1252 l 825 1252 l 671 1056 m 385 0 l 299 0 l 30 979 l 126 979 l 342 142 l 346 142 l 583 979 l 675 979 l 911 142 l 916 142 l 1131 979 l 1227 979 l 958 0 l 872 0 l 631 820 l 626 820 "},"Ẇ":{"ha":1257,"x_min":0,"x_max":0,"o":"m 629 1101 b 568 1160 595 1101 568 1128 b 629 1221 568 1194 595 1221 b 688 1160 662 1221 688 1194 b 629 1101 688 1128 662 1101 m 385 0 l 299 0 l 30 979 l 126 979 l 342 142 l 346 142 l 583 979 l 675 979 l 911 142 l 916 142 l 1131 979 l 1227 979 l 958 0 l 872 0 l 631 820 l 626 820 "},"Ẉ":{"ha":1257,"x_min":0,"x_max":0,"o":"m 385 0 l 299 0 l 30 979 l 126 979 l 342 142 l 346 142 l 583 979 l 675 979 l 911 142 l 916 142 l 1131 979 l 1227 979 l 958 0 l 872 0 l 631 820 l 626 820 m 629 -227 b 568 -168 595 -227 568 -201 b 629 -108 568 -134 595 -108 b 688 -168 662 -108 688 -134 b 629 -227 688 -201 662 -227 "},"Ẅ":{"ha":1257,"x_min":0,"x_max":0,"o":"m 513 1101 b 452 1160 479 1101 452 1128 b 513 1221 452 1194 479 1221 b 572 1160 546 1221 572 1194 b 513 1101 572 1128 546 1101 m 745 1101 b 684 1160 711 1101 684 1128 b 745 1221 684 1194 711 1221 b 804 1160 778 1221 804 1194 b 745 1101 804 1128 778 1101 m 385 0 l 299 0 l 30 979 l 126 979 l 342 142 l 346 142 l 583 979 l 675 979 l 911 142 l 916 142 l 1131 979 l 1227 979 l 958 0 l 872 0 l 631 820 l 626 820 "},"Ŵ":{"ha":1257,"x_min":0,"x_max":0,"o":"m 664 1252 l 845 1053 l 758 1053 l 630 1196 l 627 1196 l 498 1053 l 412 1053 l 593 1252 m 385 0 l 299 0 l 30 979 l 126 979 l 342 142 l 346 142 l 583 979 l 675 979 l 911 142 l 916 142 l 1131 979 l 1227 979 l 958 0 l 872 0 l 631 820 l 626 820 "},"X":{"ha":857,"x_min":0,"x_max":0,"o":"m 370 490 l 370 493 l 33 979 l 144 979 l 429 563 l 433 563 l 721 979 l 827 979 l 484 489 l 484 486 l 822 0 l 711 0 l 426 414 l 422 414 l 135 0 l 29 0 "},"Ẋ":{"ha":857,"x_min":0,"x_max":0,"o":"m 428 1101 b 368 1160 395 1101 368 1128 b 428 1221 368 1194 395 1221 b 488 1160 462 1221 488 1194 b 428 1101 488 1128 462 1101 m 370 490 l 370 493 l 33 979 l 144 979 l 429 563 l 433 563 l 721 979 l 827 979 l 484 489 l 484 486 l 822 0 l 711 0 l 426 414 l 422 414 l 135 0 l 29 0 "},"Ẍ":{"ha":857,"x_min":0,"x_max":0,"o":"m 313 1101 b 252 1160 279 1101 252 1128 b 313 1221 252 1194 279 1221 b 372 1160 346 1221 372 1194 b 313 1101 372 1128 346 1101 m 544 1101 b 484 1160 511 1101 484 1128 b 544 1221 484 1194 511 1221 b 604 1160 578 1221 604 1194 b 544 1101 604 1128 578 1101 m 370 490 l 370 493 l 33 979 l 144 979 l 429 563 l 433 563 l 721 979 l 827 979 l 484 489 l 484 486 l 822 0 l 711 0 l 426 414 l 422 414 l 135 0 l 29 0 "},"Y":{"ha":827,"x_min":0,"x_max":0,"o":"m 367 0 l 367 423 l 16 979 l 122 979 l 412 514 l 415 514 l 705 979 l 810 979 l 460 423 l 460 0 "},"Ỳ":{"ha":827,"x_min":0,"x_max":0,"o":"m 216 1252 l 318 1252 l 443 1056 l 371 1056 m 367 0 l 367 423 l 16 979 l 122 979 l 412 514 l 415 514 l 705 979 l 810 979 l 460 423 l 460 0 "},"Ý":{"ha":827,"x_min":0,"x_max":0,"o":"m 383 1056 l 508 1252 l 610 1252 l 456 1056 m 367 0 l 367 423 l 16 979 l 122 979 l 412 514 l 415 514 l 705 979 l 810 979 l 460 423 l 460 0 "},"Ẏ":{"ha":827,"x_min":0,"x_max":0,"o":"m 413 1101 b 353 1160 380 1101 353 1128 b 413 1221 353 1194 380 1221 b 473 1160 447 1221 473 1194 b 413 1101 473 1128 447 1101 m 367 0 l 367 423 l 16 979 l 122 979 l 412 514 l 415 514 l 705 979 l 810 979 l 460 423 l 460 0 "},"Ỵ":{"ha":827,"x_min":0,"x_max":0,"o":"m 367 0 l 367 423 l 16 979 l 122 979 l 412 514 l 415 514 l 705 979 l 810 979 l 460 423 l 460 0 m 413 -227 b 353 -168 380 -227 353 -201 b 413 -108 353 -134 380 -108 b 473 -168 447 -108 473 -134 b 413 -227 473 -201 447 -227 "},"Ÿ":{"ha":827,"x_min":0,"x_max":0,"o":"m 297 1101 b 237 1160 264 1101 237 1128 b 297 1221 237 1194 264 1221 b 357 1160 331 1221 357 1194 b 297 1101 357 1128 331 1101 m 529 1101 b 469 1160 496 1101 469 1128 b 529 1221 469 1194 496 1221 b 589 1160 562 1221 589 1194 b 529 1101 589 1128 562 1101 m 367 0 l 367 423 l 16 979 l 122 979 l 412 514 l 415 514 l 705 979 l 810 979 l 460 423 l 460 0 "},"Ỹ":{"ha":827,"x_min":0,"x_max":0,"o":"m 492 1076 b 328 1174 397 1076 382 1174 b 274 1081 294 1174 274 1142 l 211 1081 b 332 1238 211 1177 255 1238 b 494 1139 426 1238 436 1139 b 553 1232 532 1139 553 1172 l 616 1232 b 492 1076 616 1137 570 1076 m 367 0 l 367 423 l 16 979 l 122 979 l 412 514 l 415 514 l 705 979 l 810 979 l 460 423 l 460 0 "},"Ŷ":{"ha":827,"x_min":0,"x_max":0,"o":"m 448 1252 l 630 1053 l 543 1053 l 415 1196 l 412 1196 l 283 1053 l 197 1053 l 378 1252 m 367 0 l 367 423 l 16 979 l 122 979 l 412 514 l 415 514 l 705 979 l 810 979 l 460 423 l 460 0 "},"Ȳ":{"ha":827,"x_min":0,"x_max":0,"o":"m 596 1124 l 231 1124 l 231 1189 l 596 1189 m 367 0 l 367 423 l 16 979 l 122 979 l 412 514 l 415 514 l 705 979 l 810 979 l 460 423 l 460 0 "},"Ỷ":{"ha":827,"x_min":0,"x_max":0,"o":"m 310 1239 b 391 1255 330 1249 361 1255 b 512 1154 462 1255 512 1216 b 418 1039 512 1104 475 1060 l 385 1082 b 443 1150 420 1095 443 1121 b 380 1201 443 1180 417 1201 b 310 1186 355 1201 328 1196 m 367 0 l 367 423 l 16 979 l 122 979 l 412 514 l 415 514 l 705 979 l 810 979 l 460 423 l 460 0 "},"Z":{"ha":830,"x_min":0,"x_max":0,"o":"m 59 67 l 646 890 l 646 895 l 78 895 l 78 979 l 764 979 l 764 911 l 178 88 l 178 84 l 772 84 l 772 0 l 59 0 "},"Ź":{"ha":830,"x_min":0,"x_max":0,"o":"m 385 1056 l 511 1252 l 612 1252 l 458 1056 m 59 67 l 646 890 l 646 895 l 78 895 l 78 979 l 764 979 l 764 911 l 178 88 l 178 84 l 772 84 l 772 0 l 59 0 "},"Ž":{"ha":830,"x_min":0,"x_max":0,"o":"m 380 1053 l 199 1252 l 286 1252 l 414 1109 l 417 1109 l 545 1252 l 632 1252 l 451 1053 m 59 67 l 646 890 l 646 895 l 78 895 l 78 979 l 764 979 l 764 911 l 178 88 l 178 84 l 772 84 l 772 0 l 59 0 "},"Ẑ":{"ha":830,"x_min":0,"x_max":0,"o":"m 451 1252 l 632 1053 l 545 1053 l 417 1196 l 414 1196 l 286 1053 l 199 1053 l 380 1252 m 59 67 l 646 890 l 646 895 l 78 895 l 78 979 l 764 979 l 764 911 l 178 88 l 178 84 l 772 84 l 772 0 l 59 0 "},"Ẕ":{"ha":830,"x_min":0,"x_max":0,"o":"m 59 67 l 646 890 l 646 895 l 78 895 l 78 979 l 764 979 l 764 911 l 178 88 l 178 84 l 772 84 l 772 0 l 59 0 m 598 -200 l 233 -200 l 233 -136 l 598 -136 "},"Ẓ":{"ha":830,"x_min":0,"x_max":0,"o":"m 59 67 l 646 890 l 646 895 l 78 895 l 78 979 l 764 979 l 764 911 l 178 88 l 178 84 l 772 84 l 772 0 l 59 0 m 415 -227 b 355 -168 382 -227 355 -201 b 415 -108 355 -134 382 -108 b 475 -168 449 -108 475 -134 b 415 -227 475 -201 449 -227 "},"Ż":{"ha":830,"x_min":0,"x_max":0,"o":"m 415 1101 b 355 1160 382 1101 355 1128 b 415 1221 355 1194 382 1221 b 475 1160 449 1221 475 1194 b 415 1101 475 1128 449 1101 m 59 67 l 646 890 l 646 895 l 78 895 l 78 979 l 764 979 l 764 911 l 178 88 l 178 84 l 772 84 l 772 0 l 59 0 "},"Æ":{"ha":1316,"x_min":0,"x_max":0,"o":"m 663 300 l 256 300 l 111 0 l 16 0 l 492 979 l 1232 979 l 1232 895 l 755 895 l 755 538 l 1206 538 l 1206 455 l 755 455 l 755 84 l 1232 84 l 1232 0 l 663 0 m 294 380 l 663 380 l 663 900 l 548 900 "},"Ǣ":{"ha":1316,"x_min":0,"x_max":0,"o":"m 1044 1124 l 679 1124 l 679 1189 l 1044 1189 m 663 300 l 256 300 l 111 0 l 16 0 l 492 979 l 1232 979 l 1232 895 l 755 895 l 755 538 l 1206 538 l 1206 455 l 755 455 l 755 84 l 1232 84 l 1232 0 l 663 0 m 294 380 l 663 380 l 663 900 l 548 900 "},"Ǽ":{"ha":1316,"x_min":0,"x_max":0,"o":"m 832 1056 l 957 1252 l 1059 1252 l 904 1056 m 663 300 l 256 300 l 111 0 l 16 0 l 492 979 l 1232 979 l 1232 895 l 755 895 l 755 538 l 1206 538 l 1206 455 l 755 455 l 755 84 l 1232 84 l 1232 0 l 663 0 m 294 380 l 663 380 l 663 900 l 548 900 "},"Œ":{"ha":1492,"x_min":0,"x_max":0,"o":"m 856 197 b 501 -16 791 62 663 -16 b 52 489 225 -16 52 178 b 501 994 52 800 225 994 b 856 784 664 994 791 918 l 856 979 l 1432 979 l 1432 895 l 949 895 l 949 543 l 1406 543 l 1406 460 l 949 460 l 949 84 l 1432 84 l 1432 0 l 856 0 m 501 908 b 147 489 284 908 147 746 b 501 71 147 233 284 71 b 854 489 718 71 854 233 b 501 908 854 745 717 908 "},"Ð":{"ha":925,"x_min":0,"x_max":0,"o":"m 3 546 l 92 546 l 92 979 l 409 979 b 873 490 702 979 873 799 b 409 0 873 180 703 0 l 92 0 l 92 462 l 3 462 m 184 546 l 433 546 l 433 462 l 184 462 l 184 84 l 404 84 b 779 489 644 84 779 229 b 404 895 779 749 644 895 l 184 895 "},"Þ":{"ha":829,"x_min":0,"x_max":0,"o":"m 202 979 l 202 793 l 464 793 b 756 515 625 793 756 690 b 463 236 756 339 625 236 l 202 236 l 202 0 l 109 0 l 109 979 m 202 319 l 441 319 b 661 515 572 319 661 388 b 441 709 661 641 572 709 l 202 709 "},"Ǝ":{"ha":749,"x_min":0,"x_max":0,"o":"m 565 84 l 565 460 l 92 460 l 92 543 l 565 543 l 565 895 l 66 895 l 66 979 l 657 979 l 657 0 l 66 0 l 66 84 "},"Α":{"ha":856,"x_min":0,"x_max":0,"o":"m 633 300 l 222 300 l 114 0 l 16 0 l 382 979 l 474 979 l 840 0 l 742 0 m 250 380 l 606 380 l 430 864 l 426 864 "},"Β":{"ha":817,"x_min":0,"x_max":0,"o":"m 92 0 l 92 979 l 444 979 b 726 737 612 979 726 882 b 547 517 726 629 651 536 l 547 512 b 777 269 682 496 777 404 b 446 0 777 102 652 0 m 184 544 l 397 544 b 632 727 545 544 632 612 b 424 897 632 833 554 897 l 184 897 m 433 82 b 682 273 593 82 682 152 b 420 464 682 395 589 464 l 184 464 l 184 82 "},"Γ":{"ha":706,"x_min":0,"x_max":0,"o":"m 92 0 l 92 979 l 659 979 l 659 895 l 184 895 l 184 0 "},"Δ":{"ha":870,"x_min":0,"x_max":0,"o":"m 34 0 l 34 66 l 389 979 l 481 979 l 836 66 l 836 0 m 139 84 l 732 84 l 732 88 l 437 869 l 433 869 l 139 88 "},"Ε":{"ha":749,"x_min":0,"x_max":0,"o":"m 682 0 l 92 0 l 92 979 l 682 979 l 682 895 l 184 895 l 184 543 l 657 543 l 657 460 l 184 460 l 184 84 l 682 84 "},"Ζ":{"ha":830,"x_min":0,"x_max":0,"o":"m 59 67 l 646 890 l 646 895 l 78 895 l 78 979 l 764 979 l 764 911 l 178 88 l 178 84 l 772 84 l 772 0 l 59 0 "},"Η":{"ha":941,"x_min":0,"x_max":0,"o":"m 756 0 l 756 459 l 184 459 l 184 0 l 92 0 l 92 979 l 184 979 l 184 543 l 756 543 l 756 979 l 849 979 l 849 0 "},"Θ":{"ha":998,"x_min":0,"x_max":0,"o":"m 499 994 b 946 489 776 994 946 799 b 499 -16 946 179 776 -16 b 52 489 222 -16 52 179 b 499 994 52 799 223 994 m 499 908 b 147 489 282 908 147 746 b 499 71 147 233 282 71 b 851 489 717 71 851 233 b 499 908 851 746 717 908 m 283 448 l 283 532 l 715 532 l 715 448 "},"Ι":{"ha":275,"x_min":0,"x_max":0,"o":"m 92 0 l 92 979 l 184 979 l 184 0 "},"Κ":{"ha":820,"x_min":0,"x_max":0,"o":"m 92 0 l 92 979 l 184 979 l 184 471 l 189 471 l 654 979 l 772 979 l 370 546 l 812 0 l 693 0 l 304 480 l 184 349 l 184 0 "},"Λ":{"ha":829,"x_min":0,"x_max":0,"o":"m 416 859 l 412 859 l 114 0 l 16 0 l 368 979 l 460 979 l 812 0 l 715 0 "},"Μ":{"ha":1126,"x_min":0,"x_max":0,"o":"m 947 0 l 947 803 l 943 803 l 603 0 l 522 0 l 182 803 l 178 803 l 178 0 l 92 0 l 92 979 l 198 979 l 561 118 l 565 118 l 927 979 l 1034 979 l 1034 0 "},"Ν":{"ha":945,"x_min":0,"x_max":0,"o":"m 92 0 l 92 979 l 183 979 l 757 161 l 762 161 l 762 979 l 853 979 l 853 0 l 764 0 l 188 818 l 183 818 l 183 0 "},"Ξ":{"ha":827,"x_min":0,"x_max":0,"o":"m 767 979 l 767 893 l 60 893 l 60 979 m 113 458 l 113 543 l 715 543 l 715 458 m 767 85 l 767 0 l 60 0 l 60 85 "},"Ο":{"ha":994,"x_min":0,"x_max":0,"o":"m 496 994 b 941 489 769 994 941 799 b 496 -16 941 179 770 -16 b 52 489 224 -16 52 179 b 496 994 52 799 224 994 m 496 908 b 147 489 282 908 147 746 b 496 71 147 233 282 71 b 846 489 711 71 846 233 b 496 908 846 746 711 908 "},"Π":{"ha":927,"x_min":0,"x_max":0,"o":"m 743 0 l 743 895 l 184 895 l 184 0 l 92 0 l 92 979 l 836 979 l 836 0 "},"Ρ":{"ha":780,"x_min":0,"x_max":0,"o":"m 425 979 b 739 674 612 979 739 856 b 424 369 739 492 610 369 l 184 369 l 184 0 l 92 0 l 92 979 m 184 452 l 403 452 b 644 674 553 452 644 535 b 403 896 644 813 554 896 l 184 896 "},"Σ":{"ha":812,"x_min":0,"x_max":0,"o":"m 172 84 l 753 84 l 753 0 l 59 0 l 59 67 l 357 495 l 71 905 l 71 979 l 741 979 l 741 895 l 186 895 l 186 890 l 458 503 l 458 499 l 172 88 "},"Τ":{"ha":790,"x_min":0,"x_max":0,"o":"m 349 0 l 349 895 l 26 895 l 26 979 l 765 979 l 765 895 l 441 895 l 441 0 "},"Υ":{"ha":827,"x_min":0,"x_max":0,"o":"m 367 0 l 367 423 l 16 979 l 122 979 l 412 514 l 415 514 l 705 979 l 810 979 l 460 423 l 460 0 "},"Φ":{"ha":1082,"x_min":0,"x_max":0,"o":"m 494 -39 l 494 53 b 45 488 217 61 45 228 b 494 924 45 749 217 915 l 494 1014 l 587 1014 l 587 924 b 1037 488 865 915 1037 749 b 587 53 1037 228 865 61 l 587 -39 m 942 488 b 587 840 942 703 809 835 l 587 136 b 942 488 809 141 942 273 m 140 488 b 494 136 140 273 273 141 l 494 840 b 140 488 273 835 140 703 "},"Χ":{"ha":857,"x_min":0,"x_max":0,"o":"m 370 490 l 370 493 l 33 979 l 144 979 l 429 563 l 433 563 l 721 979 l 827 979 l 484 489 l 484 486 l 822 0 l 711 0 l 426 414 l 422 414 l 135 0 l 29 0 "},"Ψ":{"ha":1030,"x_min":0,"x_max":0,"o":"m 469 0 l 469 234 b 78 613 227 235 78 378 l 78 979 l 170 979 l 170 616 b 469 319 170 427 276 322 l 469 979 l 562 979 l 562 319 b 860 616 754 322 860 427 l 860 979 l 952 979 l 952 613 b 562 234 952 378 803 234 l 562 0 "},"Ω":{"ha":1029,"x_min":0,"x_max":0,"o":"m 865 532 b 515 908 865 758 728 908 b 165 532 302 908 165 759 b 427 104 165 343 248 209 l 427 0 l 71 0 l 71 84 l 317 84 l 317 88 b 70 534 158 184 70 339 b 515 994 70 806 250 994 b 960 534 781 994 960 804 b 712 88 960 339 872 184 l 712 84 l 958 84 l 958 0 l 603 0 l 603 104 b 865 532 782 209 865 343 "},"Ά":{"ha":856,"x_min":0,"x_max":0,"o":"m 633 300 l 222 300 l 114 0 l 16 0 l 382 979 l 474 979 l 840 0 l 742 0 m 87 774 l 152 979 l 254 979 l 159 774 m 250 380 l 606 380 l 430 864 l 426 864 "},"Έ":{"ha":947,"x_min":0,"x_max":0,"o":"m 29 774 l 94 979 l 195 979 l 100 774 m 881 0 l 290 0 l 290 979 l 881 979 l 881 895 l 382 895 l 382 543 l 857 543 l 857 460 l 382 460 l 382 84 l 881 84 "},"Ή":{"ha":1139,"x_min":0,"x_max":0,"o":"m 29 774 l 94 979 l 195 979 l 100 774 m 956 0 l 956 459 l 382 459 l 382 0 l 290 0 l 290 979 l 382 979 l 382 543 l 956 543 l 956 979 l 1048 979 l 1048 0 "},"Ί":{"ha":474,"x_min":0,"x_max":0,"o":"m 29 774 l 94 979 l 195 979 l 100 774 m 290 0 l 290 979 l 382 979 l 382 0 "},"Ϊ":{"ha":275,"x_min":0,"x_max":0,"o":"m 22 1101 b -38 1160 -11 1101 -38 1128 b 22 1221 -38 1194 -11 1221 b 82 1160 55 1221 82 1194 b 22 1101 82 1128 55 1101 m 254 1101 b 193 1160 220 1101 193 1128 b 254 1221 193 1194 220 1221 b 313 1160 287 1221 313 1194 b 254 1101 313 1128 287 1101 m 92 0 l 92 979 l 184 979 l 184 0 "},"Ό":{"ha":1097,"x_min":0,"x_max":0,"o":"m 601 994 b 1045 489 873 994 1045 799 b 601 -16 1045 179 873 -16 b 156 489 328 -16 156 179 b 601 994 156 799 328 994 m 29 774 l 94 979 l 195 979 l 100 774 m 601 908 b 251 489 387 908 251 746 b 601 71 251 233 387 71 b 950 489 814 71 950 233 b 601 908 950 746 814 908 "},"Ύ":{"ha":1047,"x_min":0,"x_max":0,"o":"m 29 774 l 94 979 l 195 979 l 100 774 m 588 0 l 588 423 l 237 979 l 343 979 l 633 514 l 636 514 l 925 979 l 1031 979 l 681 423 l 681 0 "},"Ϋ":{"ha":827,"x_min":0,"x_max":0,"o":"m 297 1101 b 237 1160 264 1101 237 1128 b 297 1221 237 1194 264 1221 b 357 1160 331 1221 357 1194 b 297 1101 357 1128 331 1101 m 529 1101 b 469 1160 496 1101 469 1128 b 529 1221 469 1194 496 1221 b 589 1160 562 1221 589 1194 b 529 1101 589 1128 562 1101 m 367 0 l 367 423 l 16 979 l 122 979 l 412 514 l 415 514 l 705 979 l 810 979 l 460 423 l 460 0 "},"Ώ":{"ha":1114,"x_min":0,"x_max":0,"o":"m 948 532 b 599 908 948 758 812 908 b 249 532 386 908 249 759 b 511 104 249 343 332 209 l 511 0 l 155 0 l 155 84 l 401 84 l 401 88 b 154 534 242 184 154 339 b 599 994 154 806 334 994 b 1044 534 864 994 1044 804 b 796 88 1044 339 956 184 l 796 84 l 1042 84 l 1042 0 l 687 0 l 687 104 b 948 532 866 209 948 343 m 29 774 l 94 979 l 195 979 l 100 774 "},"Ϝ":{"ha":720,"x_min":0,"x_max":0,"o":"m 92 0 l 92 979 l 672 979 l 672 895 l 184 895 l 184 527 l 633 527 l 633 444 l 184 444 l 184 0 "},"ϝ":{"ha":720,"x_min":0,"x_max":0,"o":"m 92 -308 l 92 671 l 672 671 l 672 587 l 184 587 l 184 219 l 633 219 l 633 136 l 184 136 l 184 -308 "},"∇":{"ha":870,"x_min":0,"x_max":0,"o":"m 836 979 l 836 913 l 481 0 l 389 0 l 34 913 l 34 979 m 732 895 l 139 895 l 139 890 l 433 110 l 437 110 l 732 890 "},"А":{"ha":869,"x_min":0,"x_max":0,"o":"m 640 300 l 229 300 l 121 0 l 22 0 l 389 979 l 481 979 l 846 0 l 749 0 m 257 380 l 612 380 l 437 864 l 433 864 "},"Ӑ":{"ha":869,"x_min":0,"x_max":0,"o":"m 302 1236 b 435 1106 302 1160 357 1106 b 567 1236 512 1106 567 1160 l 633 1236 b 435 1052 633 1125 552 1052 b 236 1236 317 1052 236 1125 m 640 300 l 229 300 l 121 0 l 22 0 l 389 979 l 481 979 l 846 0 l 749 0 m 257 380 l 612 380 l 437 864 l 433 864 "},"Ӓ":{"ha":869,"x_min":0,"x_max":0,"o":"m 319 1101 b 258 1160 286 1101 258 1128 b 319 1221 258 1194 286 1221 b 378 1160 352 1221 378 1194 b 319 1101 378 1128 352 1101 m 551 1101 b 490 1160 517 1101 490 1128 b 551 1221 490 1194 517 1221 b 610 1160 584 1221 610 1194 b 551 1101 610 1128 584 1101 m 640 300 l 229 300 l 121 0 l 22 0 l 389 979 l 481 979 l 846 0 l 749 0 m 257 380 l 612 380 l 437 864 l 433 864 "},"Б":{"ha":821,"x_min":0,"x_max":0,"o":"m 752 288 b 438 0 752 117 625 0 l 98 0 l 98 979 l 661 979 l 661 895 l 191 895 l 191 578 l 437 578 b 752 288 624 578 752 460 m 416 84 b 657 288 568 84 657 159 b 416 494 657 417 567 494 l 191 494 l 191 84 "},"В":{"ha":831,"x_min":0,"x_max":0,"o":"m 98 0 l 98 979 l 450 979 b 732 737 618 979 732 882 b 553 517 732 629 658 536 l 553 512 b 783 269 689 496 783 404 b 452 0 783 102 659 0 m 191 544 l 404 544 b 639 727 552 544 639 612 b 431 897 639 833 561 897 l 191 897 m 439 82 b 688 273 600 82 688 152 b 427 464 688 395 596 464 l 191 464 l 191 82 "},"Г":{"ha":713,"x_min":0,"x_max":0,"o":"m 98 0 l 98 979 l 669 979 l 669 894 l 191 894 l 191 0 "},"Ѓ":{"ha":713,"x_min":0,"x_max":0,"o":"m 345 1056 l 470 1252 l 572 1252 l 418 1056 m 98 0 l 98 979 l 669 979 l 669 894 l 191 894 l 191 0 "},"Ґ":{"ha":713,"x_min":0,"x_max":0,"o":"m 191 0 l 98 0 l 98 979 l 583 979 l 583 1164 l 669 1164 l 669 894 l 191 894 "},"Ӷ":{"ha":713,"x_min":0,"x_max":0,"o":"m 229 0 l 98 0 l 98 979 l 669 979 l 669 894 l 191 894 l 191 84 l 315 84 l 315 -193 l 229 -193 "},"Ғ":{"ha":713,"x_min":0,"x_max":0,"o":"m 98 0 l 98 481 l 27 481 l 27 555 l 98 555 l 98 979 l 669 979 l 669 894 l 191 894 l 191 555 l 570 555 l 570 481 l 191 481 l 191 0 "},"Ӻ":{"ha":713,"x_min":0,"x_max":0,"o":"m -35 -172 l -20 -172 b 98 -48 65 -172 98 -136 l 98 0 l 98 481 l 27 481 l 27 555 l 98 555 l 98 979 l 669 979 l 669 894 l 191 894 l 191 555 l 581 555 l 581 481 l 191 481 l 191 -46 b -18 -251 191 -191 123 -251 l -35 -251 "},"Д":{"ha":972,"x_min":0,"x_max":0,"o":"m 102 -193 l 16 -193 l 16 84 l 85 84 b 191 345 156 121 184 214 l 230 979 l 818 979 l 818 84 l 942 84 l 942 -193 l 855 -193 l 855 0 l 102 0 m 279 341 b 205 89 272 228 257 144 l 205 84 l 725 84 l 725 895 l 313 895 l 279 341 "},"Е":{"ha":762,"x_min":0,"x_max":0,"o":"m 689 0 l 98 0 l 98 979 l 689 979 l 689 895 l 191 895 l 191 543 l 664 543 l 664 460 l 191 460 l 191 84 l 689 84 "},"Ё":{"ha":762,"x_min":0,"x_max":0,"o":"m 278 1101 b 218 1160 245 1101 218 1128 b 278 1221 218 1194 245 1221 b 338 1160 311 1221 338 1194 b 278 1101 338 1128 311 1101 m 509 1101 b 450 1160 477 1101 450 1128 b 509 1221 450 1194 477 1221 b 570 1160 543 1221 570 1194 b 509 1101 570 1128 543 1101 m 689 0 l 98 0 l 98 979 l 689 979 l 689 895 l 191 895 l 191 543 l 664 543 l 664 460 l 191 460 l 191 84 l 689 84 "},"Ӗ":{"ha":762,"x_min":0,"x_max":0,"o":"m 261 1236 b 394 1106 261 1160 317 1106 b 526 1236 471 1106 526 1160 l 592 1236 b 394 1052 592 1125 511 1052 b 195 1236 277 1052 195 1125 m 689 0 l 98 0 l 98 979 l 689 979 l 689 895 l 191 895 l 191 543 l 664 543 l 664 460 l 191 460 l 191 84 l 689 84 "},"Ѐ":{"ha":762,"x_min":0,"x_max":0,"o":"m 197 1252 l 298 1252 l 423 1056 l 351 1056 m 689 0 l 98 0 l 98 979 l 689 979 l 689 895 l 191 895 l 191 543 l 664 543 l 664 460 l 191 460 l 191 84 l 689 84 "},"Ж":{"ha":1286,"x_min":0,"x_max":0,"o":"m 693 524 l 1115 979 l 1232 979 l 789 509 l 1273 0 l 1147 0 l 693 480 l 688 480 l 688 0 l 596 0 l 596 480 l 591 480 l 135 0 l 14 0 l 495 507 l 51 979 l 170 979 l 591 524 l 596 524 l 596 979 l 688 979 l 688 524 "},"Ӂ":{"ha":1286,"x_min":0,"x_max":0,"o":"m 510 1236 b 642 1106 510 1160 565 1106 b 775 1236 720 1106 775 1160 l 841 1236 b 642 1052 841 1125 760 1052 b 444 1236 526 1052 444 1125 m 693 524 l 1115 979 l 1232 979 l 789 509 l 1273 0 l 1147 0 l 693 480 l 688 480 l 688 0 l 596 0 l 596 480 l 591 480 l 135 0 l 14 0 l 495 507 l 51 979 l 170 979 l 591 524 l 596 524 l 596 979 l 688 979 l 688 524 "},"Ӝ":{"ha":1286,"x_min":0,"x_max":0,"o":"m 526 1101 b 467 1160 494 1101 467 1128 b 526 1221 467 1194 494 1221 b 587 1160 560 1221 587 1194 b 526 1101 587 1128 560 1101 m 758 1101 b 699 1160 726 1101 699 1128 b 758 1221 699 1194 726 1221 b 819 1160 791 1221 819 1194 b 758 1101 819 1128 791 1101 m 693 524 l 1115 979 l 1232 979 l 789 509 l 1273 0 l 1147 0 l 693 480 l 688 480 l 688 0 l 596 0 l 596 480 l 591 480 l 135 0 l 14 0 l 495 507 l 51 979 l 170 979 l 591 524 l 596 524 l 596 979 l 688 979 l 688 524 "},"Җ":{"ha":1339,"x_min":0,"x_max":0,"o":"m 693 524 l 1115 979 l 1232 979 l 789 509 l 1194 84 l 1308 84 l 1308 -193 l 1222 -193 l 1222 0 l 1147 0 l 693 480 l 688 480 l 688 0 l 596 0 l 596 480 l 591 480 l 135 0 l 14 0 l 495 507 l 51 979 l 170 979 l 591 524 l 596 524 l 596 979 l 688 979 l 688 524 "},"З":{"ha":785,"x_min":0,"x_max":0,"o":"m 258 545 l 383 545 b 614 734 523 545 614 623 b 397 916 614 841 531 916 b 168 734 267 916 180 844 l 78 734 b 401 999 92 895 215 999 b 709 742 583 999 709 889 b 514 512 709 629 632 538 l 514 508 b 738 264 653 492 738 399 b 395 -20 738 104 594 -20 b 48 250 197 -20 57 93 l 138 250 b 395 63 148 142 251 63 b 643 267 544 63 643 148 b 387 462 643 389 552 462 l 258 462 "},"Ӟ":{"ha":785,"x_min":0,"x_max":0,"o":"m 285 1101 b 224 1160 252 1101 224 1128 b 285 1221 224 1194 252 1221 b 345 1160 318 1221 345 1194 b 285 1101 345 1128 318 1101 m 517 1101 b 456 1160 484 1101 456 1128 b 517 1221 456 1194 484 1221 b 576 1160 550 1221 576 1194 b 517 1101 576 1128 550 1101 m 258 545 l 383 545 b 614 734 523 545 614 623 b 397 916 614 841 531 916 b 168 734 267 916 180 844 l 78 734 b 401 999 92 895 215 999 b 709 742 583 999 709 889 b 514 512 709 629 632 538 l 514 508 b 738 264 653 492 738 399 b 395 -20 738 104 594 -20 b 48 250 197 -20 57 93 l 138 250 b 395 63 148 142 251 63 b 643 267 544 63 643 148 b 387 462 643 389 552 462 l 258 462 "},"Ҙ":{"ha":785,"x_min":0,"x_max":0,"o":"m 258 545 l 383 545 b 614 734 523 545 614 623 b 397 916 614 841 531 916 b 168 734 267 916 180 844 l 78 734 b 401 999 92 895 215 999 b 709 742 583 999 709 889 b 514 512 709 629 632 538 l 514 508 b 738 264 653 492 738 399 b 440 -18 738 117 615 -1 l 440 -193 l 351 -193 l 351 -18 b 48 250 176 -3 56 105 l 138 250 b 395 63 148 142 251 63 b 643 267 544 63 643 148 b 387 462 643 389 552 462 l 258 462 "},"И":{"ha":958,"x_min":0,"x_max":0,"o":"m 768 826 l 760 826 l 190 0 l 98 0 l 98 979 l 190 979 l 190 151 l 198 151 l 768 979 l 860 979 l 860 0 l 768 0 "},"Й":{"ha":958,"x_min":0,"x_max":0,"o":"m 346 1236 b 478 1106 346 1160 401 1106 b 611 1236 555 1106 611 1160 l 677 1236 b 478 1052 677 1125 595 1052 b 280 1236 361 1052 280 1125 m 768 826 l 760 826 l 190 0 l 98 0 l 98 979 l 190 979 l 190 151 l 198 151 l 768 979 l 860 979 l 860 0 l 768 0 "},"Ѝ":{"ha":958,"x_min":0,"x_max":0,"o":"m 281 1252 l 383 1252 l 508 1056 l 436 1056 m 768 826 l 760 826 l 190 0 l 98 0 l 98 979 l 190 979 l 190 151 l 198 151 l 768 979 l 860 979 l 860 0 l 768 0 "},"Ӣ":{"ha":958,"x_min":0,"x_max":0,"o":"m 661 1124 l 296 1124 l 296 1189 l 661 1189 m 768 826 l 760 826 l 190 0 l 98 0 l 98 979 l 190 979 l 190 151 l 198 151 l 768 979 l 860 979 l 860 0 l 768 0 "},"Ӥ":{"ha":958,"x_min":0,"x_max":0,"o":"m 363 1101 b 302 1160 330 1101 302 1128 b 363 1221 302 1194 330 1221 b 422 1160 396 1221 422 1194 b 363 1101 422 1128 396 1101 m 594 1101 b 534 1160 562 1101 534 1128 b 594 1221 534 1194 562 1221 b 654 1160 628 1221 654 1194 b 594 1101 654 1128 628 1101 m 768 826 l 760 826 l 190 0 l 98 0 l 98 979 l 190 979 l 190 151 l 198 151 l 768 979 l 860 979 l 860 0 l 768 0 "},"Ҋ":{"ha":986,"x_min":0,"x_max":0,"o":"m 346 1236 b 478 1106 346 1160 401 1106 b 611 1236 555 1106 611 1160 l 677 1236 b 478 1052 677 1125 595 1052 b 280 1236 361 1052 280 1125 m 768 826 l 760 826 l 190 0 l 98 0 l 98 979 l 190 979 l 190 151 l 198 151 l 768 979 l 860 979 l 860 84 l 969 84 l 969 58 l 905 -193 l 819 -193 l 868 0 l 768 0 "},"К":{"ha":831,"x_min":0,"x_max":0,"o":"m 195 524 l 654 979 l 773 979 l 293 509 l 816 0 l 687 0 l 195 480 l 191 480 l 191 0 l 98 0 l 98 979 l 191 979 l 191 524 "},"Ќ":{"ha":831,"x_min":0,"x_max":0,"o":"m 355 1056 l 480 1252 l 582 1252 l 427 1056 m 195 524 l 654 979 l 773 979 l 293 509 l 816 0 l 687 0 l 195 480 l 191 480 l 191 0 l 98 0 l 98 979 l 191 979 l 191 524 "},"Қ":{"ha":878,"x_min":0,"x_max":0,"o":"m 195 524 l 654 979 l 773 979 l 293 509 l 730 84 l 848 84 l 848 -193 l 762 -193 l 762 0 l 687 0 l 195 480 l 191 480 l 191 0 l 98 0 l 98 979 l 191 979 l 191 524 "},"Ҝ":{"ha":890,"x_min":0,"x_max":0,"o":"m 191 0 l 98 0 l 98 979 l 191 979 l 191 538 l 279 538 l 279 758 l 356 758 l 356 538 l 399 538 l 717 979 l 829 979 l 488 507 l 876 0 l 753 0 l 399 464 l 356 464 l 356 230 l 279 230 l 279 464 l 191 464 "},"Ҟ":{"ha":831,"x_min":0,"x_max":0,"o":"m 195 524 l 654 979 l 773 979 l 293 509 l 816 0 l 687 0 l 195 480 l 191 480 l 191 0 l 98 0 l 98 806 l 3 806 l 3 881 l 98 881 l 98 979 l 191 979 l 191 881 l 325 881 l 325 806 l 191 806 l 191 524 "},"Ҡ":{"ha":1204,"x_min":0,"x_max":0,"o":"m 568 524 l 1027 979 l 1146 979 l 666 509 l 1189 0 l 1060 0 l 568 480 l 564 480 l 564 0 l 471 0 l 471 904 l 26 904 l 26 979 l 564 979 l 564 524 "},"Ӄ":{"ha":829,"x_min":0,"x_max":0,"o":"m 385 -271 b 340 -268 368 -271 352 -270 l 340 -186 b 383 -188 354 -187 366 -188 b 643 106 538 -188 643 -72 b 213 456 643 317 476 456 l 191 456 l 191 0 l 98 0 l 98 979 l 191 979 l 191 538 l 205 538 l 662 979 l 780 979 l 309 529 b 738 109 572 501 738 334 b 385 -271 738 -118 595 -271 "},"Л":{"ha":918,"x_min":0,"x_max":0,"o":"m 727 0 l 727 895 l 331 895 l 297 346 b 71 -6 283 116 220 -6 b 26 1 52 -6 35 -2 l 26 84 b 63 79 32 82 49 79 b 209 351 159 79 198 171 l 245 979 l 819 979 l 819 0 "},"Ӆ":{"ha":945,"x_min":0,"x_max":0,"o":"m 826 0 l 727 0 l 727 895 l 331 895 l 297 346 b 71 -6 283 116 220 -6 b 26 1 52 -6 35 -2 l 26 84 b 63 79 32 82 49 79 b 209 351 159 79 198 171 l 245 979 l 819 979 l 819 84 l 927 84 l 927 58 l 863 -193 l 777 -193 "},"Ԯ":{"ha":974,"x_min":0,"x_max":0,"o":"m 857 0 l 727 0 l 727 895 l 331 895 l 297 346 b 71 -6 283 116 220 -6 b 26 1 52 -6 35 -2 l 26 84 b 63 79 32 82 49 79 b 209 351 159 79 198 171 l 245 979 l 819 979 l 819 84 l 943 84 l 943 -193 l 857 -193 "},"Ԓ":{"ha":918,"x_min":0,"x_max":0,"o":"m 593 -172 l 608 -172 b 727 -48 693 -172 727 -136 l 727 895 l 331 895 l 297 346 b 71 -6 283 116 220 -6 b 26 1 52 -6 35 -2 l 26 84 b 63 79 32 82 49 79 b 209 351 159 79 198 171 l 245 979 l 819 979 l 819 -46 b 610 -251 819 -191 751 -251 l 593 -251 "},"М":{"ha":1139,"x_min":0,"x_max":0,"o":"m 954 0 l 954 803 l 950 803 l 610 0 l 529 0 l 189 803 l 185 803 l 185 0 l 98 0 l 98 979 l 205 979 l 568 118 l 572 118 l 934 979 l 1041 979 l 1041 0 "},"Ӎ":{"ha":1172,"x_min":0,"x_max":0,"o":"m 1053 0 l 954 0 l 954 803 l 950 803 l 610 0 l 529 0 l 189 803 l 185 803 l 185 0 l 98 0 l 98 979 l 205 979 l 568 118 l 572 118 l 934 979 l 1041 979 l 1041 84 l 1154 84 l 1154 58 l 1090 -193 l 1004 -193 "},"Н":{"ha":954,"x_min":0,"x_max":0,"o":"m 763 0 l 763 459 l 191 459 l 191 0 l 98 0 l 98 979 l 191 979 l 191 543 l 763 543 l 763 979 l 856 979 l 856 0 "},"Ӈ":{"ha":954,"x_min":0,"x_max":0,"o":"m 630 -172 l 644 -172 b 763 -48 730 -172 763 -136 l 763 459 l 191 459 l 191 0 l 98 0 l 98 979 l 191 979 l 191 543 l 763 543 l 763 979 l 856 979 l 856 -46 b 646 -251 856 -191 788 -251 l 630 -251 "},"Ң":{"ha":1010,"x_min":0,"x_max":0,"o":"m 894 0 l 763 0 l 763 459 l 191 459 l 191 0 l 98 0 l 98 979 l 191 979 l 191 543 l 763 543 l 763 979 l 856 979 l 856 84 l 980 84 l 980 -193 l 894 -193 "},"Ӊ":{"ha":981,"x_min":0,"x_max":0,"o":"m 863 0 l 763 0 l 763 459 l 191 459 l 191 0 l 98 0 l 98 979 l 191 979 l 191 543 l 763 543 l 763 979 l 856 979 l 856 84 l 964 84 l 964 58 l 900 -193 l 814 -193 "},"Ҥ":{"ha":1377,"x_min":0,"x_max":0,"o":"m 763 0 l 763 459 l 191 459 l 191 0 l 98 0 l 98 979 l 191 979 l 191 543 l 763 543 l 763 979 l 1335 979 l 1335 895 l 856 895 l 856 0 "},"О":{"ha":1007,"x_min":0,"x_max":0,"o":"m 503 994 b 948 489 776 994 948 799 b 503 -16 948 179 777 -16 b 59 489 231 -16 59 179 b 503 994 59 799 231 994 m 503 908 b 154 489 289 908 154 746 b 503 71 154 233 289 71 b 853 489 718 71 853 233 b 503 908 853 746 718 908 "},"Ӧ":{"ha":1007,"x_min":0,"x_max":0,"o":"m 387 1101 b 328 1160 355 1101 328 1128 b 387 1221 328 1194 355 1221 b 448 1160 421 1221 448 1194 b 387 1101 448 1128 421 1101 m 619 1101 b 559 1160 587 1101 559 1128 b 619 1221 559 1194 587 1221 b 680 1160 652 1221 680 1194 b 619 1101 680 1128 652 1101 m 503 994 b 948 489 776 994 948 799 b 503 -16 948 179 777 -16 b 59 489 231 -16 59 179 b 503 994 59 799 231 994 m 503 908 b 154 489 289 908 154 746 b 503 71 154 233 289 71 b 853 489 718 71 853 233 b 503 908 853 746 718 908 "},"Ө":{"ha":1004,"x_min":0,"x_max":0,"o":"m 503 999 b 945 490 777 999 945 802 b 503 -20 945 178 778 -20 b 59 490 227 -20 59 177 b 503 999 59 803 229 999 m 503 913 b 155 539 302 913 172 769 l 848 539 b 503 913 832 770 703 913 m 503 66 b 849 464 709 66 840 221 l 155 464 b 503 66 163 221 294 66 "},"Ӫ":{"ha":1004,"x_min":0,"x_max":0,"o":"m 387 1101 b 327 1160 354 1101 327 1128 b 387 1221 327 1194 354 1221 b 447 1160 420 1221 447 1194 b 387 1101 447 1128 420 1101 m 618 1101 b 559 1160 586 1101 559 1128 b 618 1221 559 1194 586 1221 b 679 1160 652 1221 679 1194 b 618 1101 679 1128 652 1101 m 503 999 b 945 490 777 999 945 802 b 503 -20 945 178 778 -20 b 59 490 227 -20 59 177 b 503 999 59 803 229 999 m 503 913 b 155 539 302 913 172 769 l 848 539 b 503 913 832 770 703 913 m 503 66 b 849 464 709 66 840 221 l 155 464 b 503 66 163 221 294 66 "},"Ѳ":{"ha":1004,"x_min":0,"x_max":0,"o":"m 503 999 b 945 490 777 999 945 802 b 503 -20 945 178 778 -20 b 59 490 227 -20 59 177 b 503 999 59 803 229 999 m 503 913 b 155 522 298 913 165 762 b 315 578 193 557 245 578 b 690 486 469 578 557 486 b 847 548 766 486 817 513 b 503 913 829 773 700 913 m 312 501 b 155 440 235 501 188 475 b 503 66 172 211 300 66 b 849 466 710 66 842 222 b 688 409 810 431 757 408 b 312 501 526 409 441 501 "},"П":{"ha":942,"x_min":0,"x_max":0,"o":"m 752 0 l 752 894 l 191 894 l 191 0 l 98 0 l 98 979 l 844 979 l 844 0 "},"Ԥ":{"ha":999,"x_min":0,"x_max":0,"o":"m 883 0 l 752 0 l 752 894 l 191 894 l 191 0 l 98 0 l 98 979 l 844 979 l 844 84 l 969 84 l 969 -193 l 883 -193 "},"Џ":{"ha":942,"x_min":0,"x_max":0,"o":"m 98 0 l 98 979 l 191 979 l 191 84 l 751 84 l 751 979 l 844 979 l 844 0 l 514 0 l 514 -193 l 428 -193 l 428 0 "},"Р":{"ha":793,"x_min":0,"x_max":0,"o":"m 431 979 b 745 674 618 979 745 856 b 431 369 745 492 617 369 l 191 369 l 191 0 l 98 0 l 98 979 m 191 452 l 410 452 b 650 674 560 452 650 535 b 410 896 650 813 561 896 l 191 896 "},"Ҏ":{"ha":789,"x_min":0,"x_max":0,"o":"m 427 979 b 741 672 614 979 741 854 b 594 414 741 557 686 465 l 706 243 l 632 192 l 513 382 b 403 369 479 374 442 369 l 186 369 l 186 0 l 94 0 l 94 979 m 433 658 l 547 484 b 646 672 611 519 646 585 b 405 896 646 814 557 896 l 186 896 l 186 451 l 405 451 b 470 456 428 451 450 452 l 370 616 "},"С":{"ha":943,"x_min":0,"x_max":0,"o":"m 495 -16 b 59 492 229 -16 59 182 b 495 994 59 798 229 994 b 892 668 702 994 865 859 l 799 668 b 495 908 772 809 647 908 b 154 492 288 908 154 746 b 496 71 154 234 288 71 b 799 290 652 71 770 154 l 892 290 b 495 -16 857 99 707 -16 "},"Ҫ":{"ha":943,"x_min":0,"x_max":0,"o":"m 426 -106 l 469 -15 b 59 492 217 -2 59 192 b 495 994 59 798 229 994 b 892 668 702 994 865 859 l 799 668 b 495 908 772 809 647 908 b 154 492 288 908 154 746 b 496 71 154 234 288 71 b 799 290 652 71 770 154 l 892 290 b 537 -14 859 112 727 0 l 501 -89 b 644 -197 589 -91 644 -130 b 487 -316 644 -272 574 -315 b 391 -306 451 -317 409 -312 l 391 -248 b 469 -257 406 -252 437 -257 b 568 -199 520 -257 568 -237 b 469 -146 568 -163 535 -146 l 426 -146 "},"Т":{"ha":804,"x_min":0,"x_max":0,"o":"m 355 0 l 355 895 l 33 895 l 33 979 l 772 979 l 772 895 l 448 895 l 448 0 "},"Ҭ":{"ha":804,"x_min":0,"x_max":0,"o":"m 486 0 l 355 0 l 355 895 l 33 895 l 33 979 l 772 979 l 772 895 l 448 895 l 448 84 l 572 84 l 572 -193 l 486 -193 "},"У":{"ha":804,"x_min":0,"x_max":0,"o":"m 190 -7 b 139 1 165 -7 146 -2 l 139 85 b 190 79 149 83 167 79 b 363 220 270 79 319 132 l 23 979 l 123 979 l 407 324 l 415 324 l 688 979 l 785 979 l 478 271 b 190 -7 395 77 326 -7 "},"Ў":{"ha":804,"x_min":0,"x_max":0,"o":"m 273 1236 b 406 1106 273 1160 329 1106 b 538 1236 484 1106 538 1160 l 604 1236 b 406 1052 604 1125 524 1052 b 208 1236 289 1052 208 1125 m 190 -7 b 139 1 165 -7 146 -2 l 139 85 b 190 79 149 83 167 79 b 363 220 270 79 319 132 l 23 979 l 123 979 l 407 324 l 415 324 l 688 979 l 785 979 l 478 271 b 190 -7 395 77 326 -7 "},"Ӯ":{"ha":804,"x_min":0,"x_max":0,"o":"m 589 1124 l 223 1124 l 223 1189 l 589 1189 m 190 -7 b 139 1 165 -7 146 -2 l 139 85 b 190 79 149 83 167 79 b 363 220 270 79 319 132 l 23 979 l 123 979 l 407 324 l 415 324 l 688 979 l 785 979 l 478 271 b 190 -7 395 77 326 -7 "},"Ӱ":{"ha":804,"x_min":0,"x_max":0,"o":"m 290 1101 b 230 1160 257 1101 230 1128 b 290 1221 230 1194 257 1221 b 350 1160 323 1221 350 1194 b 290 1101 350 1128 323 1101 m 522 1101 b 462 1160 489 1101 462 1128 b 522 1221 462 1194 489 1221 b 582 1160 555 1221 582 1194 b 522 1101 582 1128 555 1101 m 190 -7 b 139 1 165 -7 146 -2 l 139 85 b 190 79 149 83 167 79 b 363 220 270 79 319 132 l 23 979 l 123 979 l 407 324 l 415 324 l 688 979 l 785 979 l 478 271 b 190 -7 395 77 326 -7 "},"Ӳ":{"ha":804,"x_min":0,"x_max":0,"o":"m 369 1252 l 464 1252 l 346 1057 l 279 1057 m 579 1252 l 677 1252 l 534 1057 l 463 1057 m 190 -7 b 139 1 165 -7 146 -2 l 139 85 b 190 79 149 83 167 79 b 363 220 270 79 319 132 l 23 979 l 123 979 l 407 324 l 415 324 l 688 979 l 785 979 l 478 271 b 190 -7 395 77 326 -7 "},"Ф":{"ha":1072,"x_min":0,"x_max":0,"o":"m 491 93 b 53 492 222 97 53 251 b 491 890 53 732 221 885 l 491 990 l 583 990 l 583 890 b 1020 492 851 886 1020 732 b 583 93 1020 252 851 98 l 583 -12 l 491 -12 l 491 93 m 491 807 b 146 492 279 802 146 680 b 491 176 146 302 279 180 m 926 492 b 583 807 926 681 793 803 l 583 176 b 926 492 793 181 926 303 "},"Х":{"ha":870,"x_min":0,"x_max":0,"o":"m 376 490 l 376 493 l 39 979 l 151 979 l 436 563 l 439 563 l 728 979 l 833 979 l 490 489 l 490 486 l 829 0 l 718 0 l 433 414 l 429 414 l 142 0 l 36 0 "},"Ҳ":{"ha":909,"x_min":0,"x_max":0,"o":"m 376 490 l 376 493 l 39 979 l 151 979 l 436 563 l 439 563 l 728 979 l 833 979 l 490 489 l 490 486 l 770 84 l 879 84 l 879 -193 l 792 -193 l 792 0 l 718 0 l 433 414 l 429 414 l 142 0 l 36 0 "},"Ӿ":{"ha":870,"x_min":0,"x_max":0,"o":"m 351 452 l 96 452 l 96 527 l 353 527 l 39 979 l 151 979 l 436 563 l 439 563 l 728 979 l 833 979 l 517 527 l 774 527 l 774 452 l 514 452 l 829 0 l 718 0 l 433 414 l 429 414 l 142 0 l 36 0 "},"Ӽ":{"ha":870,"x_min":0,"x_max":0,"o":"m 151 979 l 434 566 l 441 566 l 728 979 l 833 979 l 490 488 l 688 203 b 772 69 722 154 749 112 b 819 -85 806 11 819 -35 b 628 -258 819 -187 741 -258 b 578 -253 606 -258 591 -256 l 578 -175 b 621 -179 588 -177 603 -179 b 725 -89 684 -179 725 -145 b 691 25 725 -54 715 -19 b 612 153 669 66 642 109 l 435 411 l 428 411 l 142 0 l 36 0 l 378 491 l 39 979 "},"Ц":{"ha":997,"x_min":0,"x_max":0,"o":"m 880 -193 l 880 0 l 98 0 l 98 979 l 191 979 l 191 84 l 749 84 l 749 979 l 842 979 l 842 84 l 966 84 l 966 -193 "},"Ҵ":{"ha":1203,"x_min":0,"x_max":0,"o":"m 26 979 l 677 979 l 677 904 l 397 904 l 397 84 l 956 84 l 956 979 l 1049 979 l 1049 84 l 1173 84 l 1173 -193 l 1086 -193 l 1086 0 l 305 0 l 305 904 l 26 904 "},"Ч":{"ha":886,"x_min":0,"x_max":0,"o":"m 695 0 l 695 446 l 687 446 b 440 375 636 409 554 375 b 80 720 208 375 80 522 l 80 979 l 173 979 l 173 721 b 439 461 173 559 273 461 b 695 545 561 461 647 503 l 695 979 l 788 979 l 788 0 "},"Ӵ":{"ha":886,"x_min":0,"x_max":0,"o":"m 317 1101 b 258 1160 285 1101 258 1128 b 317 1221 258 1194 285 1221 b 378 1160 351 1221 378 1194 b 317 1101 378 1128 351 1101 m 549 1101 b 489 1160 516 1101 489 1128 b 549 1221 489 1194 516 1221 b 609 1160 583 1221 609 1194 b 549 1101 609 1128 583 1101 m 695 0 l 695 446 l 687 446 b 440 375 636 409 554 375 b 80 720 208 375 80 522 l 80 979 l 173 979 l 173 721 b 439 461 173 559 273 461 b 695 545 561 461 647 503 l 695 979 l 788 979 l 788 0 "},"Ҷ":{"ha":942,"x_min":0,"x_max":0,"o":"m 825 0 l 695 0 l 695 446 l 687 446 b 440 375 636 409 554 375 b 80 720 208 375 80 522 l 80 979 l 173 979 l 173 721 b 439 461 173 559 273 461 b 695 545 561 461 647 503 l 695 979 l 788 979 l 788 84 l 912 84 l 912 -193 l 825 -193 "},"Ӌ":{"ha":886,"x_min":0,"x_max":0,"o":"m 571 -193 l 571 84 l 695 84 l 695 446 l 687 446 b 440 375 636 409 554 375 b 80 720 208 375 80 522 l 80 979 l 173 979 l 173 721 b 439 461 173 559 273 461 b 695 545 561 461 647 503 l 695 979 l 788 979 l 788 0 l 657 0 l 657 -193 "},"Ҹ":{"ha":886,"x_min":0,"x_max":0,"o":"m 695 0 l 695 446 l 687 446 b 479 376 642 413 573 383 l 479 170 l 403 170 l 403 376 b 80 720 194 391 80 533 l 80 979 l 173 979 l 173 721 b 403 463 173 571 258 476 l 403 704 l 479 704 l 479 463 b 695 545 580 470 652 507 l 695 979 l 788 979 l 788 0 "},"Һ":{"ha":897,"x_min":0,"x_max":0,"o":"m 191 979 l 191 553 l 199 553 b 446 624 250 590 332 624 b 806 279 678 624 806 477 l 806 0 l 713 0 l 713 278 b 446 538 713 440 613 538 b 191 454 325 538 239 496 l 191 0 l 98 0 l 98 979 "},"Ԧ":{"ha":960,"x_min":0,"x_max":0,"o":"m 844 0 l 713 0 l 713 278 b 446 538 713 440 613 538 b 191 454 325 538 239 496 l 191 0 l 98 0 l 98 979 l 191 979 l 191 553 l 199 553 b 446 624 250 590 332 624 b 806 279 678 624 806 477 l 806 84 l 930 84 l 930 -193 l 844 -193 "},"Ћ":{"ha":1116,"x_min":0,"x_max":0,"o":"m 701 519 b 452 385 600 519 498 464 l 452 0 l 360 0 l 360 895 l 33 895 l 33 979 l 781 979 l 781 895 l 452 895 l 452 504 l 457 504 b 710 604 519 568 610 604 b 1025 273 901 604 1025 474 l 1025 0 l 932 0 l 932 266 b 701 519 932 424 846 519 "},"Ш":{"ha":1244,"x_min":0,"x_max":0,"o":"m 98 979 l 191 979 l 191 84 l 576 84 l 576 979 l 669 979 l 669 84 l 1054 84 l 1054 979 l 1146 979 l 1146 1 l 98 1 "},"Щ":{"ha":1301,"x_min":0,"x_max":0,"o":"m 98 979 l 191 979 l 191 84 l 576 84 l 576 979 l 669 979 l 669 84 l 1054 84 l 1054 979 l 1146 979 l 1146 84 l 1270 84 l 1270 -193 l 1184 -193 l 1184 0 l 1054 0 l 1054 1 l 98 1 "},"Ъ":{"ha":967,"x_min":0,"x_max":0,"o":"m 262 0 l 262 895 l 33 895 l 33 979 l 355 979 l 355 600 l 604 600 b 919 300 791 600 919 479 b 605 0 919 121 791 0 m 583 84 b 824 300 734 84 824 164 b 583 517 824 435 734 517 l 355 517 l 355 84 "},"Ы":{"ha":1076,"x_min":0,"x_max":0,"o":"m 98 979 l 191 979 l 191 600 l 440 600 b 755 300 627 600 755 479 b 441 0 755 121 628 0 l 98 0 m 886 0 l 886 979 l 979 979 l 979 0 m 419 84 b 660 300 570 84 660 164 b 419 517 660 435 570 517 l 191 517 l 191 84 "},"Ӹ":{"ha":1076,"x_min":0,"x_max":0,"o":"m 422 1101 b 362 1160 389 1101 362 1128 b 422 1221 362 1194 389 1221 b 482 1160 456 1221 482 1194 b 422 1101 482 1128 456 1101 m 654 1101 b 594 1160 621 1101 594 1128 b 654 1221 594 1194 621 1221 b 714 1160 688 1221 714 1194 b 654 1101 714 1128 688 1101 m 98 979 l 191 979 l 191 600 l 440 600 b 755 300 627 600 755 479 b 441 0 755 121 628 0 l 98 0 m 886 0 l 886 979 l 979 979 l 979 0 m 419 84 b 660 300 570 84 660 164 b 419 517 660 435 570 517 l 191 517 l 191 84 "},"Ҍ":{"ha":935,"x_min":0,"x_max":0,"o":"m 230 799 l 10 799 l 10 878 l 230 878 l 230 1021 l 323 1021 l 323 878 l 604 878 l 604 799 l 323 799 l 323 600 l 572 600 b 887 300 759 600 887 479 b 573 0 887 121 760 0 l 230 0 m 551 84 b 792 300 703 84 792 164 b 551 517 792 435 702 517 l 323 517 l 323 84 "},"Ѣ":{"ha":935,"x_min":0,"x_max":0,"o":"m 230 799 l 10 799 l 10 878 l 230 878 l 230 1021 l 323 1021 l 323 878 l 604 878 l 604 799 l 323 799 l 323 600 l 572 600 b 887 300 759 600 887 479 b 573 0 887 121 760 0 l 230 0 m 551 84 b 792 300 703 84 792 164 b 551 517 792 435 702 517 l 323 517 l 323 84 "},"Ь":{"ha":803,"x_min":0,"x_max":0,"o":"m 98 979 l 191 979 l 191 600 l 440 600 b 755 300 627 600 755 479 b 441 0 755 121 628 0 l 98 0 m 419 84 b 660 300 570 84 660 164 b 419 517 660 435 570 517 l 191 517 l 191 84 "},"Љ":{"ha":1425,"x_min":0,"x_max":0,"o":"m 297 346 b 71 -6 284 133 230 -6 b 26 1 52 -6 35 -2 l 26 84 b 63 79 32 82 49 79 b 209 351 171 79 199 195 l 245 979 l 813 979 l 813 600 l 1062 600 b 1377 300 1249 600 1377 479 b 1063 0 1377 121 1250 0 l 720 0 l 720 895 l 331 895 l 297 346 m 1041 84 b 1282 300 1192 84 1282 164 b 1041 517 1282 435 1192 517 l 813 517 l 813 84 "},"Њ":{"ha":1444,"x_min":0,"x_max":0,"o":"m 191 0 l 98 0 l 98 979 l 191 979 l 191 543 l 741 543 l 741 979 l 833 979 l 833 543 l 1082 543 b 1397 277 1269 543 1397 436 b 1083 0 1397 112 1270 0 l 741 0 l 741 459 l 191 459 m 1061 84 b 1302 277 1213 84 1302 157 b 1061 459 1302 392 1212 459 l 833 459 l 833 84 "},"Э":{"ha":944,"x_min":0,"x_max":0,"o":"m 453 -16 b 51 279 241 -16 90 94 l 146 279 b 452 71 178 151 298 71 b 789 459 652 71 783 222 l 326 459 l 326 543 l 787 543 b 453 908 774 766 644 908 b 146 680 304 908 176 814 l 51 680 b 453 994 82 865 248 994 b 885 490 718 994 885 798 b 453 -16 885 179 720 -16 "},"Ӭ":{"ha":944,"x_min":0,"x_max":0,"o":"m 337 1101 b 277 1160 304 1101 277 1128 b 337 1221 277 1194 304 1221 b 397 1160 370 1221 397 1194 b 337 1101 397 1128 370 1101 m 569 1101 b 509 1160 536 1101 509 1128 b 569 1221 509 1194 536 1221 b 629 1160 602 1221 629 1194 b 569 1101 629 1128 602 1101 m 453 -16 b 51 279 241 -16 90 94 l 146 279 b 452 71 178 151 298 71 b 789 459 652 71 783 222 l 326 459 l 326 543 l 787 543 b 453 908 774 766 644 908 b 146 680 304 908 176 814 l 51 680 b 453 994 82 865 248 994 b 885 490 718 994 885 798 b 453 -16 885 179 720 -16 "},"Ю":{"ha":1297,"x_min":0,"x_max":0,"o":"m 804 -20 b 371 459 543 -20 381 164 l 191 459 l 191 0 l 98 0 l 98 979 l 191 979 l 191 543 l 372 543 b 804 999 390 825 553 999 b 1238 490 1073 999 1238 802 b 804 -20 1238 178 1074 -20 m 804 913 b 465 490 596 913 465 749 b 804 66 465 232 593 66 b 1143 490 1013 66 1143 232 b 804 913 1143 749 1013 913 "},"Я":{"ha":835,"x_min":0,"x_max":0,"o":"m 142 0 l 32 0 l 315 404 b 77 686 174 432 77 536 b 390 979 77 861 203 979 l 736 979 l 736 0 l 644 0 l 644 393 l 417 393 m 644 895 l 412 895 b 171 686 260 895 171 818 b 412 477 171 554 260 477 l 644 477 "},"Ҕ":{"ha":841,"x_min":0,"x_max":0,"o":"m 623 895 l 191 895 l 191 503 l 200 503 b 450 604 251 557 340 604 b 766 294 643 604 766 479 b 481 -9 766 113 655 -9 b 399 1 442 -9 410 -4 l 399 84 b 479 75 410 80 442 75 b 673 293 596 75 673 159 b 444 519 673 430 584 519 b 191 385 325 519 224 450 l 191 0 l 98 0 l 98 979 l 623 979 "},"Ҧ":{"ha":1449,"x_min":0,"x_max":0,"o":"m 799 979 l 799 503 l 808 503 b 1058 604 859 557 949 604 b 1374 294 1251 604 1374 479 b 1089 -9 1374 113 1263 -9 b 1007 1 1050 -9 1018 -4 l 1007 84 b 1088 75 1019 80 1050 75 b 1281 293 1204 75 1281 159 b 1053 519 1281 430 1192 519 b 799 385 933 519 833 450 l 799 0 l 707 0 l 707 894 l 191 894 l 191 0 l 98 0 l 98 979 "},"Є":{"ha":941,"x_min":0,"x_max":0,"o":"m 890 279 b 495 -16 852 95 704 -16 b 59 492 229 -16 59 182 b 495 994 59 798 229 994 b 890 680 699 994 861 865 l 796 680 b 495 908 766 814 644 908 b 156 543 302 908 169 768 l 620 543 l 620 459 l 155 459 b 496 71 161 220 296 71 b 795 279 648 71 764 150 l 890 279 "},"Ӏ":{"ha":289,"x_min":0,"x_max":0,"o":"m 98 0 l 98 979 l 191 979 l 191 0 "},"І":{"ha":289,"x_min":0,"x_max":0,"o":"m 98 0 l 98 979 l 191 979 l 191 0 "},"Ї":{"ha":289,"x_min":0,"x_max":0,"o":"m 28 1101 b -31 1160 -4 1101 -31 1128 b 28 1221 -31 1194 -4 1221 b 89 1160 62 1221 89 1194 b 28 1101 89 1128 62 1101 m 260 1101 b 200 1160 227 1101 200 1128 b 260 1221 200 1194 227 1221 b 320 1160 294 1221 320 1194 b 260 1101 320 1128 294 1101 m 98 0 l 98 979 l 191 979 l 191 0 "},"Ҩ":{"ha":1301,"x_min":0,"x_max":0,"o":"m 601 -20 b 57 508 273 -20 57 195 b 484 1004 57 762 231 974 l 484 916 b 154 508 279 878 154 711 b 600 66 154 239 343 66 b 763 90 661 66 713 74 b 543 522 628 184 543 342 b 859 882 543 728 670 882 b 1177 535 1049 882 1177 743 b 934 84 1177 343 1074 174 b 1078 60 978 68 1026 60 b 1249 106 1138 60 1200 76 l 1280 34 b 1076 -21 1219 -3 1152 -21 b 848 36 990 -21 916 -1 b 601 -20 772 0 690 -20 m 637 524 b 849 127 637 368 716 212 b 1082 535 989 208 1082 366 b 859 797 1082 684 991 797 b 637 524 719 797 637 679 "},"Ү":{"ha":840,"x_min":0,"x_max":0,"o":"m 374 0 l 374 423 l 23 979 l 129 979 l 418 514 l 422 514 l 711 979 l 817 979 l 467 423 l 467 0 "},"Ұ":{"ha":840,"x_min":0,"x_max":0,"o":"m 122 487 l 334 487 l 23 979 l 129 979 l 418 514 l 422 514 l 711 979 l 817 979 l 507 487 l 718 487 l 718 413 l 467 413 l 467 0 l 374 0 l 374 413 l 122 413 "},"Ҽ":{"ha":1124,"x_min":0,"x_max":0,"o":"m 673 -20 b 231 485 400 -20 231 174 b 231 489 231 486 231 488 b 18 679 93 490 18 568 b 44 795 18 747 44 795 l 127 795 b 104 686 129 795 104 742 b 236 572 104 612 147 572 b 654 999 264 833 425 999 b 1067 534 907 999 1067 818 l 1067 489 l 330 489 l 330 458 b 675 66 329 222 467 66 b 956 237 811 66 913 128 l 1050 237 b 673 -20 1008 80 861 -20 m 966 572 b 652 913 958 783 838 913 b 333 572 479 913 355 781 "},"Ҿ":{"ha":1124,"x_min":0,"x_max":0,"o":"m 1050 237 b 715 -18 1011 92 882 -5 l 715 -193 l 625 -193 l 625 -18 b 231 485 380 3 231 192 b 231 489 231 486 231 488 b 18 679 93 490 18 568 b 44 795 18 747 44 795 l 127 795 b 104 686 129 795 104 742 b 236 572 104 612 147 572 b 654 999 264 833 425 999 b 1067 534 907 999 1067 818 l 1067 489 l 330 489 l 330 458 b 675 66 329 222 467 66 b 956 237 811 66 913 128 l 1050 237 m 966 572 b 652 913 958 783 838 913 b 333 572 479 913 355 781 "},"Ӕ":{"ha":1297,"x_min":0,"x_max":0,"o":"m 661 300 l 254 300 l 109 0 l 14 0 l 490 979 l 1230 979 l 1230 895 l 753 895 l 753 538 l 1204 538 l 1204 455 l 753 455 l 753 84 l 1230 84 l 1230 0 l 661 0 m 292 380 l 661 380 l 661 900 l 546 900 "},"Ə":{"ha":957,"x_min":0,"x_max":0,"o":"m 473 -20 b 57 460 218 -20 59 163 l 57 505 l 799 505 l 799 521 b 457 913 800 753 664 913 b 169 739 320 913 218 854 l 74 739 b 458 999 130 901 276 999 b 898 490 728 999 898 802 b 473 -20 898 183 729 -20 m 475 66 b 797 422 652 66 779 206 l 158 422 b 475 66 169 201 289 66 "},"Ӛ":{"ha":957,"x_min":0,"x_max":0,"o":"m 343 1101 b 283 1160 310 1101 283 1128 b 343 1221 283 1194 310 1221 b 403 1160 376 1221 403 1194 b 343 1101 403 1128 376 1101 m 575 1101 b 515 1160 542 1101 515 1128 b 575 1221 515 1194 542 1221 b 635 1160 608 1221 635 1194 b 575 1101 635 1128 608 1101 m 473 -20 b 57 460 218 -20 59 163 l 57 505 l 799 505 l 799 521 b 457 913 800 753 664 913 b 169 739 320 913 218 854 l 74 739 b 458 999 130 901 276 999 b 898 490 728 999 898 802 b 473 -20 898 183 729 -20 m 475 66 b 797 422 652 66 779 206 l 158 422 b 475 66 169 201 289 66 "},"Ӡ":{"ha":778,"x_min":0,"x_max":0,"o":"m 387 -20 b 48 250 193 -20 54 92 l 138 250 b 386 61 146 140 248 61 b 628 276 530 61 628 146 b 328 501 628 427 524 501 l 260 501 l 260 581 l 559 886 l 559 895 l 87 895 l 87 979 l 695 979 l 695 911 l 376 585 l 376 577 b 723 277 595 572 723 467 b 387 -20 723 102 583 -20 "},"Ԑ":{"ha":784,"x_min":0,"x_max":0,"o":"m 401 462 b 142 262 238 462 142 387 b 393 63 142 146 244 63 b 647 250 534 63 639 142 l 736 250 b 392 -20 730 93 587 -20 b 47 260 199 -20 47 100 b 276 506 47 404 142 493 l 276 514 b 83 742 161 540 83 624 b 388 999 83 894 213 999 b 707 734 571 999 696 895 l 616 734 b 391 916 607 844 518 916 b 177 734 262 916 177 844 b 405 545 177 618 271 545 l 529 545 l 529 462 "},"Ѵ":{"ha":983,"x_min":0,"x_max":0,"o":"m 389 0 l 22 979 l 121 979 l 431 121 l 439 121 l 689 811 b 779 961 719 892 744 935 b 872 987 804 979 833 987 b 974 961 905 987 945 977 l 947 885 b 879 899 923 895 901 899 b 825 878 857 899 840 892 b 774 782 808 863 793 834 l 481 0 "},"Ԝ":{"ha":1271,"x_min":0,"x_max":0,"o":"m 392 0 l 306 0 l 37 979 l 133 979 l 349 142 l 353 142 l 589 979 l 682 979 l 918 142 l 922 142 l 1137 979 l 1234 979 l 964 0 l 879 0 l 638 820 l 633 820 "},"Ђ":{"ha":1103,"x_min":0,"x_max":0,"o":"m 743 -9 b 661 1 711 -9 676 -5 l 661 84 b 741 75 676 79 710 75 b 935 293 861 75 935 160 b 706 519 935 431 845 519 b 452 385 601 519 497 463 l 452 0 l 360 0 l 360 895 l 33 895 l 33 979 l 781 979 l 781 895 l 452 895 l 452 503 l 457 503 b 711 604 518 567 610 604 b 1027 294 902 604 1027 480 b 743 -9 1027 111 914 -9 "},"Ѕ":{"ha":814,"x_min":0,"x_max":0,"o":"m 143 261 b 417 68 155 144 264 68 b 669 258 564 68 669 146 b 458 440 669 350 608 406 l 351 464 b 75 726 157 507 75 591 b 410 994 75 884 218 994 b 746 724 600 994 741 881 l 653 724 b 408 910 644 836 547 910 b 170 730 275 910 170 841 b 376 552 170 641 231 585 l 482 528 b 764 270 684 482 764 406 b 412 -16 764 96 625 -16 b 50 261 203 -16 60 96 "},"Ј":{"ha":683,"x_min":0,"x_max":0,"o":"m 127 224 b 304 66 131 131 203 66 b 492 269 424 66 492 138 l 492 979 l 585 979 l 585 268 b 304 -20 585 88 480 -20 b 35 224 148 -20 37 81 "},"a":{"ha":688,"x_min":0,"x_max":0,"o":"m 286 -12 b 52 195 147 -12 52 72 b 305 400 52 316 142 389 l 525 414 l 525 475 b 351 637 525 576 460 637 b 165 501 247 637 180 587 l 78 501 b 353 717 88 627 192 717 b 614 483 513 717 614 627 l 614 0 l 529 0 l 529 134 l 527 134 b 286 -12 488 47 391 -12 m 304 66 b 525 265 428 66 525 153 l 525 343 l 316 329 b 143 195 205 321 143 273 b 304 66 143 119 209 66 "},"à":{"ha":688,"x_min":0,"x_max":0,"o":"m 157 1017 l 257 1017 l 383 813 l 311 813 m 286 -12 b 52 195 147 -12 52 72 b 305 400 52 316 142 389 l 525 414 l 525 475 b 351 637 525 576 460 637 b 165 501 247 637 180 587 l 78 501 b 353 717 88 627 192 717 b 614 483 513 717 614 627 l 614 0 l 529 0 l 529 134 l 527 134 b 286 -12 488 47 391 -12 m 304 66 b 525 265 428 66 525 153 l 525 343 l 316 329 b 143 195 205 321 143 273 b 304 66 143 119 209 66 "},"á":{"ha":688,"x_min":0,"x_max":0,"o":"m 311 813 l 437 1017 l 537 1017 l 384 813 m 286 -12 b 52 195 147 -12 52 72 b 305 400 52 316 142 389 l 525 414 l 525 475 b 351 637 525 576 460 637 b 165 501 247 637 180 587 l 78 501 b 353 717 88 627 192 717 b 614 483 513 717 614 627 l 614 0 l 529 0 l 529 134 l 527 134 b 286 -12 488 47 391 -12 m 304 66 b 525 265 428 66 525 153 l 525 343 l 316 329 b 143 195 205 321 143 273 b 304 66 143 119 209 66 "},"ä":{"ha":688,"x_min":0,"x_max":0,"o":"m 231 852 b 171 911 198 852 171 878 b 231 971 171 945 198 971 b 292 911 264 971 292 945 b 231 852 292 878 264 852 m 463 852 b 403 911 430 852 403 878 b 463 971 403 945 430 971 b 523 911 496 971 523 945 b 463 852 523 878 496 852 m 286 -12 b 52 195 147 -12 52 72 b 305 400 52 316 142 389 l 525 414 l 525 475 b 351 637 525 576 460 637 b 165 501 247 637 180 587 l 78 501 b 353 717 88 627 192 717 b 614 483 513 717 614 627 l 614 0 l 529 0 l 529 134 l 527 134 b 286 -12 488 47 391 -12 m 304 66 b 525 265 428 66 525 153 l 525 343 l 316 329 b 143 195 205 321 143 273 b 304 66 143 119 209 66 "},"ǟ":{"ha":688,"x_min":0,"x_max":0,"o":"m 530 1060 l 165 1060 l 165 1124 l 530 1124 m 230 827 b 168 889 197 827 168 854 b 230 950 168 923 197 950 b 292 889 263 950 292 923 b 230 827 292 854 263 827 m 465 827 b 403 889 431 827 403 854 b 465 950 403 923 431 950 b 526 889 498 950 526 923 b 465 827 526 854 498 827 m 286 -12 b 52 195 147 -12 52 72 b 305 400 52 316 142 389 l 525 414 l 525 475 b 351 637 525 576 460 637 b 165 501 247 637 180 587 l 78 501 b 353 717 88 627 192 717 b 614 483 513 717 614 627 l 614 0 l 529 0 l 529 134 l 527 134 b 286 -12 488 47 391 -12 m 304 66 b 525 265 428 66 525 153 l 525 343 l 316 329 b 143 195 205 321 143 273 b 304 66 143 119 209 66 "},"å":{"ha":688,"x_min":0,"x_max":0,"o":"m 347 779 b 224 903 279 779 224 836 b 347 1027 224 971 279 1027 b 471 903 415 1027 471 971 b 347 779 471 836 415 779 m 347 828 b 422 903 389 828 422 861 b 347 978 422 945 389 978 b 272 903 305 978 272 945 b 347 828 272 861 305 828 m 286 -12 b 52 195 147 -12 52 72 b 305 400 52 316 142 389 l 525 414 l 525 475 b 351 637 525 576 460 637 b 165 501 247 637 180 587 l 78 501 b 353 717 88 627 192 717 b 614 483 513 717 614 627 l 614 0 l 529 0 l 529 134 l 527 134 b 286 -12 488 47 391 -12 m 304 66 b 525 265 428 66 525 153 l 525 343 l 316 329 b 143 195 205 321 143 273 b 304 66 143 119 209 66 "},"ǻ":{"ha":688,"x_min":0,"x_max":0,"o":"m 398 1220 l 482 1220 l 382 1094 l 308 1094 m 347 781 b 224 905 279 781 224 838 b 347 1029 224 973 279 1029 b 471 905 415 1029 471 973 b 347 781 471 838 415 781 m 272 905 b 347 830 272 863 305 830 b 422 905 389 830 422 863 b 347 981 422 947 389 981 b 272 905 305 981 272 947 m 286 -12 b 52 195 147 -12 52 72 b 305 400 52 316 142 389 l 525 414 l 525 475 b 351 637 525 576 460 637 b 165 501 247 637 180 587 l 78 501 b 353 717 88 627 192 717 b 614 483 513 717 614 627 l 614 0 l 529 0 l 529 134 l 527 134 b 286 -12 488 47 391 -12 m 304 66 b 525 265 428 66 525 153 l 525 343 l 316 329 b 143 195 205 321 143 273 b 304 66 143 119 209 66 "},"ã":{"ha":688,"x_min":0,"x_max":0,"o":"m 426 826 b 262 924 330 826 316 924 b 208 832 227 924 208 893 l 144 832 b 266 988 144 927 189 988 b 428 890 359 988 370 890 b 486 982 465 890 486 923 l 549 982 b 426 826 549 888 504 826 m 286 -12 b 52 195 147 -12 52 72 b 305 400 52 316 142 389 l 525 414 l 525 475 b 351 637 525 576 460 637 b 165 501 247 637 180 587 l 78 501 b 353 717 88 627 192 717 b 614 483 513 717 614 627 l 614 0 l 529 0 l 529 134 l 527 134 b 286 -12 488 47 391 -12 m 304 66 b 525 265 428 66 525 153 l 525 343 l 316 329 b 143 195 205 321 143 273 b 304 66 143 119 209 66 "},"ằ":{"ha":688,"x_min":0,"x_max":0,"o":"m 324 1034 l 161 1238 l 248 1238 l 399 1034 m 551 1020 b 347 826 551 903 470 826 b 143 1020 224 826 143 903 l 210 1020 b 347 884 210 938 267 884 b 484 1020 428 884 484 938 l 551 1020 m 286 -12 b 52 195 147 -12 52 72 b 305 400 52 316 142 389 l 525 414 l 525 475 b 351 637 525 576 460 637 b 165 501 247 637 180 587 l 78 501 b 353 717 88 627 192 717 b 614 483 513 717 614 627 l 614 0 l 529 0 l 529 134 l 527 134 b 286 -12 488 47 391 -12 m 304 66 b 525 265 428 66 525 153 l 525 343 l 316 329 b 143 195 205 321 143 273 b 304 66 143 119 209 66 "},"ǡ":{"ha":688,"x_min":0,"x_max":0,"o":"m 530 1055 l 165 1055 l 165 1120 l 530 1120 m 347 836 b 281 903 311 836 281 865 b 347 968 281 939 311 968 b 413 903 383 968 413 939 b 347 836 413 865 383 836 m 286 -12 b 52 195 147 -12 52 72 b 305 400 52 316 142 389 l 525 414 l 525 475 b 351 637 525 576 460 637 b 165 501 247 637 180 587 l 78 501 b 353 717 88 627 192 717 b 614 483 513 717 614 627 l 614 0 l 529 0 l 529 134 l 527 134 b 286 -12 488 47 391 -12 m 304 66 b 525 265 428 66 525 153 l 525 343 l 316 329 b 143 195 205 321 143 273 b 304 66 143 119 209 66 "},"ḁ":{"ha":688,"x_min":0,"x_max":0,"o":"m 286 -12 b 52 195 147 -12 52 72 b 305 400 52 316 142 389 l 525 414 l 525 475 b 351 637 525 576 460 637 b 165 501 247 637 180 587 l 78 501 b 353 717 88 627 192 717 b 614 483 513 717 614 627 l 614 0 l 529 0 l 529 134 l 527 134 b 286 -12 488 47 391 -12 m 304 66 b 525 265 428 66 525 153 l 525 343 l 316 329 b 143 195 205 321 143 273 b 304 66 143 119 209 66 m 338 -291 b 214 -168 270 -291 214 -235 b 338 -44 214 -100 270 -44 b 461 -168 406 -44 461 -100 b 338 -291 461 -235 406 -291 m 338 -243 b 413 -168 380 -243 413 -209 b 338 -92 413 -126 380 -92 b 263 -168 296 -92 263 -126 b 338 -243 263 -209 296 -243 "},"â":{"ha":688,"x_min":0,"x_max":0,"o":"m 555 813 l 471 813 l 349 958 l 345 958 l 224 813 l 140 813 l 312 1017 l 382 1017 m 286 -12 b 52 195 147 -12 52 72 b 305 400 52 316 142 389 l 525 414 l 525 475 b 351 637 525 576 460 637 b 165 501 247 637 180 587 l 78 501 b 353 717 88 627 192 717 b 614 483 513 717 614 627 l 614 0 l 529 0 l 529 134 l 527 134 b 286 -12 488 47 391 -12 m 304 66 b 525 265 428 66 525 153 l 525 343 l 316 329 b 143 195 205 321 143 273 b 304 66 143 119 209 66 "},"ậ":{"ha":688,"x_min":0,"x_max":0,"o":"m 555 813 l 471 813 l 349 958 l 345 958 l 224 813 l 140 813 l 312 1017 l 382 1017 m 286 -12 b 52 195 147 -12 52 72 b 305 400 52 316 142 389 l 525 414 l 525 475 b 351 637 525 576 460 637 b 165 501 247 637 180 587 l 78 501 b 353 717 88 627 192 717 b 614 483 513 717 614 627 l 614 0 l 529 0 l 529 134 l 527 134 b 286 -12 488 47 391 -12 m 304 66 b 525 265 428 66 525 153 l 525 343 l 316 329 b 143 195 205 321 143 273 b 304 66 143 119 209 66 m 338 -227 b 278 -168 305 -227 278 -201 b 338 -108 278 -134 305 -108 b 398 -168 371 -108 398 -134 b 338 -227 398 -201 371 -227 "},"ấ":{"ha":688,"x_min":0,"x_max":0,"o":"m 627 1210 l 714 1210 l 551 1006 l 475 1006 m 566 813 l 479 813 l 349 951 l 345 951 l 216 813 l 129 813 l 311 1006 l 383 1006 m 286 -12 b 52 195 147 -12 52 72 b 305 400 52 316 142 389 l 525 414 l 525 475 b 351 637 525 576 460 637 b 165 501 247 637 180 587 l 78 501 b 353 717 88 627 192 717 b 614 483 513 717 614 627 l 614 0 l 529 0 l 529 134 l 527 134 b 286 -12 488 47 391 -12 m 304 66 b 525 265 428 66 525 153 l 525 343 l 316 329 b 143 195 205 321 143 273 b 304 66 143 119 209 66 "},"ẫ":{"ha":688,"x_min":0,"x_max":0,"o":"m 433 1070 b 262 1171 346 1070 319 1171 b 208 1083 226 1171 206 1137 l 145 1083 b 262 1231 145 1174 190 1231 b 434 1130 349 1231 375 1130 b 486 1219 468 1130 486 1163 l 549 1219 b 433 1070 549 1130 503 1070 m 566 831 l 479 831 l 349 968 l 345 968 l 216 831 l 129 831 l 311 1023 l 383 1023 m 286 -12 b 52 195 147 -12 52 72 b 305 400 52 316 142 389 l 525 414 l 525 475 b 351 637 525 576 460 637 b 165 501 247 637 180 587 l 78 501 b 353 717 88 627 192 717 b 614 483 513 717 614 627 l 614 0 l 529 0 l 529 134 l 527 134 b 286 -12 488 47 391 -12 m 304 66 b 525 265 428 66 525 153 l 525 343 l 316 329 b 143 195 205 321 143 273 b 304 66 143 119 209 66 "},"ầ":{"ha":688,"x_min":0,"x_max":0,"o":"m 534 1006 l 371 1210 l 458 1210 l 610 1006 m 566 813 l 479 813 l 349 951 l 345 951 l 216 813 l 129 813 l 311 1006 l 383 1006 m 286 -12 b 52 195 147 -12 52 72 b 305 400 52 316 142 389 l 525 414 l 525 475 b 351 637 525 576 460 637 b 165 501 247 637 180 587 l 78 501 b 353 717 88 627 192 717 b 614 483 513 717 614 627 l 614 0 l 529 0 l 529 134 l 527 134 b 286 -12 488 47 391 -12 m 304 66 b 525 265 428 66 525 153 l 525 343 l 316 329 b 143 195 205 321 143 273 b 304 66 143 119 209 66 "},"ẩ":{"ha":688,"x_min":0,"x_max":0,"o":"m 410 1185 b 485 1202 425 1194 457 1202 b 605 1099 557 1202 605 1161 b 521 986 605 1046 574 1005 l 484 1025 b 541 1095 519 1039 541 1065 b 479 1146 541 1125 515 1146 b 410 1131 454 1146 429 1141 m 566 813 l 479 813 l 349 951 l 345 951 l 216 813 l 129 813 l 311 1006 l 383 1006 m 286 -12 b 52 195 147 -12 52 72 b 305 400 52 316 142 389 l 525 414 l 525 475 b 351 637 525 576 460 637 b 165 501 247 637 180 587 l 78 501 b 353 717 88 627 192 717 b 614 483 513 717 614 627 l 614 0 l 529 0 l 529 134 l 527 134 b 286 -12 488 47 391 -12 m 304 66 b 525 265 428 66 525 153 l 525 343 l 316 329 b 143 195 205 321 143 273 b 304 66 143 119 209 66 "},"ă":{"ha":688,"x_min":0,"x_max":0,"o":"m 222 1007 b 347 874 222 926 267 874 b 473 1007 428 874 473 926 l 542 1007 b 347 814 542 890 470 814 b 152 1007 224 814 152 890 m 286 -12 b 52 195 147 -12 52 72 b 305 400 52 316 142 389 l 525 414 l 525 475 b 351 637 525 576 460 637 b 165 501 247 637 180 587 l 78 501 b 353 717 88 627 192 717 b 614 483 513 717 614 627 l 614 0 l 529 0 l 529 134 l 527 134 b 286 -12 488 47 391 -12 m 304 66 b 525 265 428 66 525 153 l 525 343 l 316 329 b 143 195 205 321 143 273 b 304 66 143 119 209 66 "},"ắ":{"ha":688,"x_min":0,"x_max":0,"o":"m 446 1227 l 533 1227 l 370 1024 l 294 1024 m 551 1020 b 347 826 551 903 470 826 b 143 1020 224 826 143 903 l 210 1020 b 347 884 210 938 267 884 b 484 1020 428 884 484 938 l 551 1020 m 286 -12 b 52 195 147 -12 52 72 b 305 400 52 316 142 389 l 525 414 l 525 475 b 351 637 525 576 460 637 b 165 501 247 637 180 587 l 78 501 b 353 717 88 627 192 717 b 614 483 513 717 614 627 l 614 0 l 529 0 l 529 134 l 527 134 b 286 -12 488 47 391 -12 m 304 66 b 525 265 428 66 525 153 l 525 343 l 316 329 b 143 195 205 321 143 273 b 304 66 143 119 209 66 "},"ẵ":{"ha":688,"x_min":0,"x_max":0,"o":"m 433 1070 b 262 1171 346 1070 319 1171 b 208 1083 226 1171 206 1137 l 145 1083 b 262 1231 145 1174 190 1231 b 434 1130 353 1231 378 1130 b 486 1219 467 1130 486 1163 l 549 1219 b 433 1070 549 1130 503 1070 m 551 1020 b 347 826 551 903 470 826 b 143 1020 224 826 143 903 l 210 1020 b 347 884 210 938 267 884 b 484 1020 428 884 484 938 l 551 1020 m 286 -12 b 52 195 147 -12 52 72 b 305 400 52 316 142 389 l 525 414 l 525 475 b 351 637 525 576 460 637 b 165 501 247 637 180 587 l 78 501 b 353 717 88 627 192 717 b 614 483 513 717 614 627 l 614 0 l 529 0 l 529 134 l 527 134 b 286 -12 488 47 391 -12 m 304 66 b 525 265 428 66 525 153 l 525 343 l 316 329 b 143 195 205 321 143 273 b 304 66 143 119 209 66 "},"ẳ":{"ha":688,"x_min":0,"x_max":0,"o":"m 239 1202 b 315 1219 255 1211 287 1219 b 435 1116 388 1219 435 1179 b 351 1004 435 1064 404 1023 l 313 1042 b 372 1112 349 1057 372 1083 b 309 1164 372 1143 345 1164 b 239 1149 284 1164 260 1158 m 551 1020 b 347 826 551 903 470 826 b 143 1020 224 826 143 903 l 210 1020 b 347 884 210 938 267 884 b 484 1020 428 884 484 938 l 551 1020 m 286 -12 b 52 195 147 -12 52 72 b 305 400 52 316 142 389 l 525 414 l 525 475 b 351 637 525 576 460 637 b 165 501 247 637 180 587 l 78 501 b 353 717 88 627 192 717 b 614 483 513 717 614 627 l 614 0 l 529 0 l 529 134 l 527 134 b 286 -12 488 47 391 -12 m 304 66 b 525 265 428 66 525 153 l 525 343 l 316 329 b 143 195 205 321 143 273 b 304 66 143 119 209 66 "},"ặ":{"ha":688,"x_min":0,"x_max":0,"o":"m 222 1007 b 347 874 222 926 267 874 b 473 1007 428 874 473 926 l 542 1007 b 347 814 542 890 470 814 b 152 1007 224 814 152 890 m 286 -12 b 52 195 147 -12 52 72 b 305 400 52 316 142 389 l 525 414 l 525 475 b 351 637 525 576 460 637 b 165 501 247 637 180 587 l 78 501 b 353 717 88 627 192 717 b 614 483 513 717 614 627 l 614 0 l 529 0 l 529 134 l 527 134 b 286 -12 488 47 391 -12 m 304 66 b 525 265 428 66 525 153 l 525 343 l 316 329 b 143 195 205 321 143 273 b 304 66 143 119 209 66 m 338 -227 b 278 -168 305 -227 278 -201 b 338 -108 278 -134 305 -108 b 398 -168 371 -108 398 -134 b 338 -227 398 -201 371 -227 "},"ȃ":{"ha":688,"x_min":0,"x_max":0,"o":"m 473 814 b 347 947 473 896 428 947 b 222 814 267 947 222 896 l 152 814 b 347 1007 152 930 224 1007 b 542 814 470 1007 542 930 m 286 -12 b 52 195 147 -12 52 72 b 305 400 52 316 142 389 l 525 414 l 525 475 b 351 637 525 576 460 637 b 165 501 247 637 180 587 l 78 501 b 353 717 88 627 192 717 b 614 483 513 717 614 627 l 614 0 l 529 0 l 529 134 l 527 134 b 286 -12 488 47 391 -12 m 304 66 b 525 265 428 66 525 153 l 525 343 l 316 329 b 143 195 205 321 143 273 b 304 66 143 119 209 66 "},"ǎ":{"ha":688,"x_min":0,"x_max":0,"o":"m 140 1017 l 224 1017 l 345 872 l 349 872 l 471 1017 l 555 1017 l 382 813 l 312 813 m 286 -12 b 52 195 147 -12 52 72 b 305 400 52 316 142 389 l 525 414 l 525 475 b 351 637 525 576 460 637 b 165 501 247 637 180 587 l 78 501 b 353 717 88 627 192 717 b 614 483 513 717 614 627 l 614 0 l 529 0 l 529 134 l 527 134 b 286 -12 488 47 391 -12 m 304 66 b 525 265 428 66 525 153 l 525 343 l 316 329 b 143 195 205 321 143 273 b 304 66 143 119 209 66 "},"ȧ":{"ha":688,"x_min":0,"x_max":0,"o":"m 347 852 b 287 911 314 852 287 878 b 347 971 287 945 314 971 b 407 911 380 971 407 945 b 347 852 407 878 380 852 m 286 -12 b 52 195 147 -12 52 72 b 305 400 52 316 142 389 l 525 414 l 525 475 b 351 637 525 576 460 637 b 165 501 247 637 180 587 l 78 501 b 353 717 88 627 192 717 b 614 483 513 717 614 627 l 614 0 l 529 0 l 529 134 l 527 134 b 286 -12 488 47 391 -12 m 304 66 b 525 265 428 66 525 153 l 525 343 l 316 329 b 143 195 205 321 143 273 b 304 66 143 119 209 66 "},"ạ":{"ha":688,"x_min":0,"x_max":0,"o":"m 286 -12 b 52 195 147 -12 52 72 b 305 400 52 316 142 389 l 525 414 l 525 475 b 351 637 525 576 460 637 b 165 501 247 637 180 587 l 78 501 b 353 717 88 627 192 717 b 614 483 513 717 614 627 l 614 0 l 529 0 l 529 134 l 527 134 b 286 -12 488 47 391 -12 m 304 66 b 525 265 428 66 525 153 l 525 343 l 316 329 b 143 195 205 321 143 273 b 304 66 143 119 209 66 m 338 -227 b 278 -168 305 -227 278 -201 b 338 -108 278 -134 305 -108 b 398 -168 371 -108 398 -134 b 338 -227 398 -201 371 -227 "},"ả":{"ha":688,"x_min":0,"x_max":0,"o":"m 268 1004 b 352 1021 293 1015 319 1021 b 471 913 424 1021 471 978 b 375 792 471 861 432 814 l 341 838 b 401 909 380 852 401 875 b 336 964 401 940 374 964 b 268 946 313 964 293 959 m 286 -12 b 52 195 147 -12 52 72 b 305 400 52 316 142 389 l 525 414 l 525 475 b 351 637 525 576 460 637 b 165 501 247 637 180 587 l 78 501 b 353 717 88 627 192 717 b 614 483 513 717 614 627 l 614 0 l 529 0 l 529 134 l 527 134 b 286 -12 488 47 391 -12 m 304 66 b 525 265 428 66 525 153 l 525 343 l 316 329 b 143 195 205 321 143 273 b 304 66 143 119 209 66 "},"ȁ":{"ha":688,"x_min":0,"x_max":0,"o":"m 410 813 l 287 1017 l 383 1017 l 477 813 m 222 813 l 72 1017 l 172 1017 l 294 813 m 286 -12 b 52 195 147 -12 52 72 b 305 400 52 316 142 389 l 525 414 l 525 475 b 351 637 525 576 460 637 b 165 501 247 637 180 587 l 78 501 b 353 717 88 627 192 717 b 614 483 513 717 614 627 l 614 0 l 529 0 l 529 134 l 527 134 b 286 -12 488 47 391 -12 m 304 66 b 525 265 428 66 525 153 l 525 343 l 316 329 b 143 195 205 321 143 273 b 304 66 143 119 209 66 "},"ā":{"ha":688,"x_min":0,"x_max":0,"o":"m 530 875 l 165 875 l 165 939 l 530 939 m 286 -12 b 52 195 147 -12 52 72 b 305 400 52 316 142 389 l 525 414 l 525 475 b 351 637 525 576 460 637 b 165 501 247 637 180 587 l 78 501 b 353 717 88 627 192 717 b 614 483 513 717 614 627 l 614 0 l 529 0 l 529 134 l 527 134 b 286 -12 488 47 391 -12 m 304 66 b 525 265 428 66 525 153 l 525 343 l 316 329 b 143 195 205 321 143 273 b 304 66 143 119 209 66 "},"ą":{"ha":688,"x_min":0,"x_max":0,"o":"m 286 -12 b 52 195 147 -12 52 72 b 305 400 52 316 142 389 l 525 414 l 525 475 b 351 637 525 576 460 637 b 165 501 247 637 180 587 l 78 501 b 353 717 88 627 192 717 b 614 483 513 717 614 627 l 614 0 b 486 -134 546 -32 486 -75 b 563 -201 486 -187 526 -201 b 611 -194 581 -201 600 -198 l 611 -259 b 546 -270 591 -265 568 -270 b 405 -153 474 -270 405 -236 b 529 12 405 -91 441 -37 l 529 134 l 527 134 b 286 -12 488 47 391 -12 m 304 66 b 525 265 428 66 525 153 l 525 343 l 316 329 b 143 195 205 321 143 273 b 304 66 143 119 209 66 "},"b":{"ha":758,"x_min":0,"x_max":0,"o":"m 416 -12 b 172 149 304 -12 214 50 l 170 149 l 170 0 l 83 0 l 83 979 l 174 979 l 174 558 l 176 558 b 417 717 216 655 307 717 b 715 353 594 717 715 572 b 416 -12 715 133 594 -12 m 399 637 b 173 353 267 637 173 522 b 399 68 173 183 267 68 b 623 353 535 68 623 180 b 399 637 623 525 535 637 "},"ḇ":{"ha":758,"x_min":0,"x_max":0,"o":"m 416 -12 b 172 149 304 -12 214 50 l 170 149 l 170 0 l 83 0 l 83 979 l 174 979 l 174 558 l 176 558 b 417 717 216 655 307 717 b 715 353 594 717 715 572 b 416 -12 715 133 594 -12 m 399 637 b 173 353 267 637 173 522 b 399 68 173 183 267 68 b 623 353 535 68 623 180 b 399 637 623 525 535 637 m 578 -200 l 213 -200 l 213 -136 l 578 -136 "},"ḅ":{"ha":758,"x_min":0,"x_max":0,"o":"m 416 -12 b 172 149 304 -12 214 50 l 170 149 l 170 0 l 83 0 l 83 979 l 174 979 l 174 558 l 176 558 b 417 717 216 655 307 717 b 715 353 594 717 715 572 b 416 -12 715 133 594 -12 m 399 637 b 173 353 267 637 173 522 b 399 68 173 183 267 68 b 623 353 535 68 623 180 b 399 637 623 525 535 637 m 396 -227 b 336 -168 363 -227 336 -201 b 396 -108 336 -134 363 -108 b 456 -168 429 -108 456 -134 b 396 -227 456 -201 429 -227 "},"ḃ":{"ha":758,"x_min":0,"x_max":0,"o":"m 128 1101 b 68 1160 96 1101 68 1128 b 128 1221 68 1194 96 1221 b 189 1160 162 1221 189 1194 b 128 1101 189 1128 162 1101 m 416 -12 b 172 149 304 -12 214 50 l 170 149 l 170 0 l 83 0 l 83 979 l 174 979 l 174 558 l 176 558 b 417 717 216 655 307 717 b 715 353 594 717 715 572 b 416 -12 715 133 594 -12 m 399 637 b 173 353 267 637 173 522 b 399 68 173 183 267 68 b 623 353 535 68 623 180 b 399 637 623 525 535 637 "},"c":{"ha":686,"x_min":0,"x_max":0,"o":"m 563 482 b 361 637 544 569 473 637 b 134 353 224 637 134 527 b 362 68 134 176 224 68 b 563 218 469 68 543 127 l 652 218 b 361 -12 632 83 517 -12 b 42 353 169 -12 42 127 b 361 717 42 575 169 717 b 651 482 527 717 633 608 "},"ć":{"ha":686,"x_min":0,"x_max":0,"o":"m 324 813 l 450 1017 l 550 1017 l 396 813 m 563 482 b 361 637 544 569 473 637 b 134 353 224 637 134 527 b 362 68 134 176 224 68 b 563 218 469 68 543 127 l 652 218 b 361 -12 632 83 517 -12 b 42 353 169 -12 42 127 b 361 717 42 575 169 717 b 651 482 527 717 633 608 "},"č":{"ha":686,"x_min":0,"x_max":0,"o":"m 153 1017 l 237 1017 l 358 872 l 361 872 l 483 1017 l 567 1017 l 395 813 l 324 813 m 563 482 b 361 637 544 569 473 637 b 134 353 224 637 134 527 b 362 68 134 176 224 68 b 563 218 469 68 543 127 l 652 218 b 361 -12 632 83 517 -12 b 42 353 169 -12 42 127 b 361 717 42 575 169 717 b 651 482 527 717 633 608 "},"ĉ":{"ha":686,"x_min":0,"x_max":0,"o":"m 567 813 l 483 813 l 361 958 l 358 958 l 237 813 l 153 813 l 324 1017 l 395 1017 m 563 482 b 361 637 544 569 473 637 b 134 353 224 637 134 527 b 362 68 134 176 224 68 b 563 218 469 68 543 127 l 652 218 b 361 -12 632 83 517 -12 b 42 353 169 -12 42 127 b 361 717 42 575 169 717 b 651 482 527 717 633 608 "},"ċ":{"ha":686,"x_min":0,"x_max":0,"o":"m 360 852 b 300 911 327 852 300 878 b 360 971 300 945 327 971 b 420 911 393 971 420 945 b 360 852 420 878 393 852 m 563 482 b 361 637 544 569 473 637 b 134 353 224 637 134 527 b 362 68 134 176 224 68 b 563 218 469 68 543 127 l 652 218 b 361 -12 632 83 517 -12 b 42 353 169 -12 42 127 b 361 717 42 575 169 717 b 651 482 527 717 633 608 "},"ç":{"ha":686,"x_min":0,"x_max":0,"o":"m 292 -106 l 336 -11 b 42 353 157 1 42 137 b 361 717 42 575 169 717 b 651 482 527 717 633 608 l 563 482 b 361 637 544 569 473 637 b 134 353 224 637 134 527 b 362 68 134 176 224 68 b 563 218 469 68 543 127 l 652 218 b 405 -9 634 96 538 7 l 367 -89 b 510 -197 454 -91 510 -130 b 352 -316 510 -272 440 -315 b 257 -306 316 -317 275 -312 l 257 -248 b 335 -257 271 -252 302 -257 b 434 -199 386 -257 434 -237 b 334 -146 434 -163 401 -146 l 292 -146 "},"ḉ":{"ha":686,"x_min":0,"x_max":0,"o":"m 324 813 l 450 1017 l 550 1017 l 396 813 m 292 -106 l 336 -11 b 42 353 157 1 42 137 b 361 717 42 575 169 717 b 651 482 527 717 633 608 l 563 482 b 361 637 544 569 473 637 b 134 353 224 637 134 527 b 362 68 134 176 224 68 b 563 218 469 68 543 127 l 652 218 b 405 -9 634 96 538 7 l 367 -89 b 510 -197 454 -91 510 -130 b 352 -316 510 -272 440 -315 b 257 -306 316 -317 275 -312 l 257 -248 b 335 -257 271 -252 302 -257 b 434 -199 386 -257 434 -237 b 334 -146 434 -163 401 -146 l 292 -146 "},"d":{"ha":759,"x_min":0,"x_max":0,"o":"m 344 -12 b 42 353 165 -12 42 134 b 342 717 42 572 165 717 b 583 560 456 717 546 652 l 585 560 l 585 979 l 675 979 l 675 0 l 590 0 l 590 149 l 588 149 b 344 -12 548 54 458 -12 m 359 637 b 134 353 224 637 134 525 b 359 68 134 180 224 68 b 586 353 494 68 586 182 b 359 637 586 523 494 637 "},"ḋ":{"ha":759,"x_min":0,"x_max":0,"o":"m 630 1101 b 570 1160 597 1101 570 1128 b 630 1221 570 1194 597 1221 b 690 1160 664 1221 690 1194 b 630 1101 690 1128 664 1101 m 344 -12 b 42 353 165 -12 42 134 b 342 717 42 572 165 717 b 583 560 456 717 546 652 l 585 560 l 585 979 l 675 979 l 675 0 l 590 0 l 590 149 l 588 149 b 344 -12 548 54 458 -12 m 359 637 b 134 353 224 637 134 525 b 359 68 134 180 224 68 b 586 353 494 68 586 182 b 359 637 586 523 494 637 "},"ḓ":{"ha":759,"x_min":0,"x_max":0,"o":"m 344 -12 b 42 353 165 -12 42 134 b 342 717 42 572 165 717 b 583 560 456 717 546 652 l 585 560 l 585 979 l 675 979 l 675 0 l 590 0 l 590 149 l 588 149 b 344 -12 548 54 458 -12 m 359 637 b 134 353 224 637 134 525 b 359 68 134 180 224 68 b 586 353 494 68 586 182 b 359 637 586 523 494 637 m 553 -293 l 470 -293 l 348 -148 l 345 -148 l 223 -293 l 139 -293 l 311 -89 l 382 -89 "},"ḑ":{"ha":759,"x_min":0,"x_max":0,"o":"m 344 -12 b 42 353 165 -12 42 134 b 342 717 42 572 165 717 b 583 560 456 717 546 652 l 585 560 l 585 979 l 675 979 l 675 0 l 590 0 l 590 149 l 588 149 b 344 -12 548 54 458 -12 m 359 637 b 134 353 224 637 134 525 b 359 68 134 180 224 68 b 586 353 494 68 586 182 b 359 637 586 523 494 637 m 231 -328 l 304 -89 l 388 -89 l 302 -328 "},"ḏ":{"ha":759,"x_min":0,"x_max":0,"o":"m 344 -12 b 42 353 165 -12 42 134 b 342 717 42 572 165 717 b 583 560 456 717 546 652 l 585 560 l 585 979 l 675 979 l 675 0 l 590 0 l 590 149 l 588 149 b 344 -12 548 54 458 -12 m 359 637 b 134 353 224 637 134 525 b 359 68 134 180 224 68 b 586 353 494 68 586 182 b 359 637 586 523 494 637 m 529 -200 l 163 -200 l 163 -136 l 529 -136 "},"ď":{"ha":850,"x_min":0,"x_max":0,"o":"m 850 1021 l 835 728 l 772 728 l 772 1021 m 344 -12 b 42 353 165 -12 42 134 b 342 717 42 572 165 717 b 583 560 456 717 546 652 l 585 560 l 585 979 l 675 979 l 675 0 l 590 0 l 590 149 l 588 149 b 344 -12 548 54 458 -12 m 359 637 b 134 353 224 637 134 525 b 359 68 134 180 224 68 b 586 353 494 68 586 182 b 359 637 586 523 494 637 "},"ḍ":{"ha":759,"x_min":0,"x_max":0,"o":"m 344 -12 b 42 353 165 -12 42 134 b 342 717 42 572 165 717 b 583 560 456 717 546 652 l 585 560 l 585 979 l 675 979 l 675 0 l 590 0 l 590 149 l 588 149 b 344 -12 548 54 458 -12 m 359 637 b 134 353 224 637 134 525 b 359 68 134 180 224 68 b 586 353 494 68 586 182 b 359 637 586 523 494 637 m 347 -227 b 286 -168 313 -227 286 -201 b 347 -108 286 -134 313 -108 b 406 -168 380 -108 406 -134 b 347 -227 406 -201 380 -227 "},"đ":{"ha":759,"x_min":0,"x_max":0,"o":"m 344 -12 b 42 353 165 -12 42 134 b 342 717 42 572 165 717 b 583 560 456 717 546 652 l 585 560 l 585 831 l 414 831 l 414 897 l 585 897 l 585 979 l 675 979 l 675 897 l 788 897 l 788 831 l 675 831 l 675 0 l 590 0 l 590 149 l 588 149 b 344 -12 548 54 458 -12 m 359 637 b 134 353 224 637 134 525 b 359 68 134 180 224 68 b 586 353 494 68 586 182 b 359 637 586 523 494 637 "},"e":{"ha":705,"x_min":0,"x_max":0,"o":"m 654 200 b 363 -12 633 78 518 -12 b 42 351 165 -12 42 127 b 357 717 42 570 166 717 b 663 369 545 717 663 579 l 663 331 l 134 331 l 134 326 b 365 67 134 166 224 67 b 565 200 471 67 545 123 m 356 638 b 135 402 230 638 142 541 l 570 402 b 356 638 568 541 484 638 "},"è":{"ha":705,"x_min":0,"x_max":0,"o":"m 168 1017 l 267 1017 l 393 813 l 321 813 m 654 200 b 363 -12 633 78 518 -12 b 42 351 165 -12 42 127 b 357 717 42 570 166 717 b 663 369 545 717 663 579 l 663 331 l 134 331 l 134 326 b 365 67 134 166 224 67 b 565 200 471 67 545 123 m 356 638 b 135 402 230 638 142 541 l 570 402 b 356 638 568 541 484 638 "},"ȅ":{"ha":705,"x_min":0,"x_max":0,"o":"m 421 813 l 298 1017 l 393 1017 l 488 813 m 232 813 l 83 1017 l 182 1017 l 304 813 m 654 200 b 363 -12 633 78 518 -12 b 42 351 165 -12 42 127 b 357 717 42 570 166 717 b 663 369 545 717 663 579 l 663 331 l 134 331 l 134 326 b 365 67 134 166 224 67 b 565 200 471 67 545 123 m 356 638 b 135 402 230 638 142 541 l 570 402 b 356 638 568 541 484 638 "},"é":{"ha":705,"x_min":0,"x_max":0,"o":"m 321 813 l 448 1017 l 547 1017 l 394 813 m 654 200 b 363 -12 633 78 518 -12 b 42 351 165 -12 42 127 b 357 717 42 570 166 717 b 663 369 545 717 663 579 l 663 331 l 134 331 l 134 326 b 365 67 134 166 224 67 b 565 200 471 67 545 123 m 356 638 b 135 402 230 638 142 541 l 570 402 b 356 638 568 541 484 638 "},"ê":{"ha":705,"x_min":0,"x_max":0,"o":"m 565 813 l 481 813 l 359 958 l 356 958 l 234 813 l 150 813 l 322 1017 l 393 1017 m 654 200 b 363 -12 633 78 518 -12 b 42 351 165 -12 42 127 b 357 717 42 570 166 717 b 663 369 545 717 663 579 l 663 331 l 134 331 l 134 326 b 365 67 134 166 224 67 b 565 200 471 67 545 123 m 356 638 b 135 402 230 638 142 541 l 570 402 b 356 638 568 541 484 638 "},"ể":{"ha":705,"x_min":0,"x_max":0,"o":"m 420 1185 b 495 1202 435 1194 467 1202 b 615 1099 568 1202 615 1161 b 531 986 615 1046 585 1005 l 494 1025 b 551 1095 530 1039 551 1065 b 489 1146 551 1125 525 1146 b 420 1131 464 1146 439 1141 m 576 813 l 489 813 l 359 951 l 356 951 l 226 813 l 139 813 l 321 1006 l 393 1006 m 654 200 b 363 -12 633 78 518 -12 b 42 351 165 -12 42 127 b 357 717 42 570 166 717 b 663 369 545 717 663 579 l 663 331 l 134 331 l 134 326 b 365 67 134 166 224 67 b 565 200 471 67 545 123 m 356 638 b 135 402 230 638 142 541 l 570 402 b 356 638 568 541 484 638 "},"ề":{"ha":705,"x_min":0,"x_max":0,"o":"m 545 1006 l 381 1210 l 469 1210 l 621 1006 m 576 813 l 489 813 l 359 951 l 356 951 l 226 813 l 139 813 l 321 1006 l 393 1006 m 654 200 b 363 -12 633 78 518 -12 b 42 351 165 -12 42 127 b 357 717 42 570 166 717 b 663 369 545 717 663 579 l 663 331 l 134 331 l 134 326 b 365 67 134 166 224 67 b 565 200 471 67 545 123 m 356 638 b 135 402 230 638 142 541 l 570 402 b 356 638 568 541 484 638 "},"ễ":{"ha":705,"x_min":0,"x_max":0,"o":"m 444 1070 b 272 1171 356 1070 330 1171 b 218 1083 237 1171 216 1137 l 155 1083 b 273 1231 155 1174 201 1231 b 444 1130 359 1231 386 1130 b 497 1219 479 1130 497 1163 l 559 1219 b 444 1070 559 1130 513 1070 m 576 831 l 489 831 l 359 968 l 356 968 l 226 831 l 139 831 l 321 1023 l 393 1023 m 654 200 b 363 -12 633 78 518 -12 b 42 351 165 -12 42 127 b 357 717 42 570 166 717 b 663 369 545 717 663 579 l 663 331 l 134 331 l 134 326 b 365 67 134 166 224 67 b 565 200 471 67 545 123 m 356 638 b 135 402 230 638 142 541 l 570 402 b 356 638 568 541 484 638 "},"ệ":{"ha":705,"x_min":0,"x_max":0,"o":"m 565 813 l 481 813 l 359 958 l 356 958 l 234 813 l 150 813 l 322 1017 l 393 1017 m 654 200 b 363 -12 633 78 518 -12 b 42 351 165 -12 42 127 b 357 717 42 570 166 717 b 663 369 545 717 663 579 l 663 331 l 134 331 l 134 326 b 365 67 134 166 224 67 b 565 200 471 67 545 123 m 356 638 b 135 402 230 638 142 541 l 570 402 b 356 638 568 541 484 638 m 362 -227 b 302 -168 330 -227 302 -201 b 362 -108 302 -134 330 -108 b 422 -168 396 -108 422 -134 b 362 -227 422 -201 396 -227 "},"ế":{"ha":705,"x_min":0,"x_max":0,"o":"m 637 1210 l 725 1210 l 562 1006 l 486 1006 m 576 813 l 489 813 l 359 951 l 356 951 l 226 813 l 139 813 l 321 1006 l 393 1006 m 654 200 b 363 -12 633 78 518 -12 b 42 351 165 -12 42 127 b 357 717 42 570 166 717 b 663 369 545 717 663 579 l 663 331 l 134 331 l 134 326 b 365 67 134 166 224 67 b 565 200 471 67 545 123 m 356 638 b 135 402 230 638 142 541 l 570 402 b 356 638 568 541 484 638 "},"ë":{"ha":705,"x_min":0,"x_max":0,"o":"m 241 852 b 182 911 209 852 182 878 b 241 971 182 945 209 971 b 302 911 275 971 302 945 b 241 852 302 878 275 852 m 473 852 b 413 911 440 852 413 878 b 473 971 413 945 440 971 b 534 911 507 971 534 945 b 473 852 534 878 507 852 m 654 200 b 363 -12 633 78 518 -12 b 42 351 165 -12 42 127 b 357 717 42 570 166 717 b 663 369 545 717 663 579 l 663 331 l 134 331 l 134 326 b 365 67 134 166 224 67 b 565 200 471 67 545 123 m 356 638 b 135 402 230 638 142 541 l 570 402 b 356 638 568 541 484 638 "},"ẹ":{"ha":705,"x_min":0,"x_max":0,"o":"m 654 200 b 363 -12 633 78 518 -12 b 42 351 165 -12 42 127 b 357 717 42 570 166 717 b 663 369 545 717 663 579 l 663 331 l 134 331 l 134 326 b 365 67 134 166 224 67 b 565 200 471 67 545 123 m 356 638 b 135 402 230 638 142 541 l 570 402 b 356 638 568 541 484 638 m 362 -227 b 302 -168 330 -227 302 -201 b 362 -108 302 -134 330 -108 b 422 -168 396 -108 422 -134 b 362 -227 422 -201 396 -227 "},"ȇ":{"ha":705,"x_min":0,"x_max":0,"o":"m 483 814 b 357 947 483 896 438 947 b 232 814 277 947 232 896 l 163 814 b 357 1007 163 930 235 1007 b 553 814 481 1007 553 930 m 654 200 b 363 -12 633 78 518 -12 b 42 351 165 -12 42 127 b 357 717 42 570 166 717 b 663 369 545 717 663 579 l 663 331 l 134 331 l 134 326 b 365 67 134 166 224 67 b 565 200 471 67 545 123 m 356 638 b 135 402 230 638 142 541 l 570 402 b 356 638 568 541 484 638 "},"ẻ":{"ha":705,"x_min":0,"x_max":0,"o":"m 278 1004 b 362 1021 303 1015 329 1021 b 481 913 434 1021 481 978 b 385 792 481 861 442 814 l 351 838 b 411 909 391 852 411 875 b 347 964 411 940 384 964 b 278 946 323 964 304 959 m 654 200 b 363 -12 633 78 518 -12 b 42 351 165 -12 42 127 b 357 717 42 570 166 717 b 663 369 545 717 663 579 l 663 331 l 134 331 l 134 326 b 365 67 134 166 224 67 b 565 200 471 67 545 123 m 356 638 b 135 402 230 638 142 541 l 570 402 b 356 638 568 541 484 638 "},"ě":{"ha":705,"x_min":0,"x_max":0,"o":"m 150 1017 l 234 1017 l 356 872 l 359 872 l 481 1017 l 565 1017 l 393 813 l 322 813 m 654 200 b 363 -12 633 78 518 -12 b 42 351 165 -12 42 127 b 357 717 42 570 166 717 b 663 369 545 717 663 579 l 663 331 l 134 331 l 134 326 b 365 67 134 166 224 67 b 565 200 471 67 545 123 m 356 638 b 135 402 230 638 142 541 l 570 402 b 356 638 568 541 484 638 "},"ē":{"ha":705,"x_min":0,"x_max":0,"o":"m 540 875 l 175 875 l 175 939 l 540 939 m 654 200 b 363 -12 633 78 518 -12 b 42 351 165 -12 42 127 b 357 717 42 570 166 717 b 663 369 545 717 663 579 l 663 331 l 134 331 l 134 326 b 365 67 134 166 224 67 b 565 200 471 67 545 123 m 356 638 b 135 402 230 638 142 541 l 570 402 b 356 638 568 541 484 638 "},"ḕ":{"ha":705,"x_min":0,"x_max":0,"o":"m 334 1019 l 171 1223 l 258 1223 l 410 1019 m 540 867 l 175 867 l 175 932 l 540 932 m 654 200 b 363 -12 633 78 518 -12 b 42 351 165 -12 42 127 b 357 717 42 570 166 717 b 663 369 545 717 663 579 l 663 331 l 134 331 l 134 326 b 365 67 134 166 224 67 b 565 200 471 67 545 123 m 356 638 b 135 402 230 638 142 541 l 570 402 b 356 638 568 541 484 638 "},"ḗ":{"ha":705,"x_min":0,"x_max":0,"o":"m 456 1223 l 544 1223 l 380 1019 l 305 1019 m 540 867 l 175 867 l 175 932 l 540 932 m 654 200 b 363 -12 633 78 518 -12 b 42 351 165 -12 42 127 b 357 717 42 570 166 717 b 663 369 545 717 663 579 l 663 331 l 134 331 l 134 326 b 365 67 134 166 224 67 b 565 200 471 67 545 123 m 356 638 b 135 402 230 638 142 541 l 570 402 b 356 638 568 541 484 638 "},"ẽ":{"ha":705,"x_min":0,"x_max":0,"o":"m 436 826 b 273 924 341 826 326 924 b 218 832 237 924 218 893 l 155 832 b 277 988 155 927 199 988 b 438 890 370 988 380 890 b 497 982 475 890 497 923 l 559 982 b 436 826 559 888 514 826 m 654 200 b 363 -12 633 78 518 -12 b 42 351 165 -12 42 127 b 357 717 42 570 166 717 b 663 369 545 717 663 579 l 663 331 l 134 331 l 134 326 b 365 67 134 166 224 67 b 565 200 471 67 545 123 m 356 638 b 135 402 230 638 142 541 l 570 402 b 356 638 568 541 484 638 "},"ḙ":{"ha":705,"x_min":0,"x_max":0,"o":"m 654 200 b 363 -12 633 78 518 -12 b 42 351 165 -12 42 127 b 357 717 42 570 166 717 b 663 369 545 717 663 579 l 663 331 l 134 331 l 134 326 b 365 67 134 166 224 67 b 565 200 471 67 545 123 m 356 638 b 135 402 230 638 142 541 l 570 402 b 356 638 568 541 484 638 m 570 -293 l 486 -293 l 364 -148 l 361 -148 l 239 -293 l 155 -293 l 327 -89 l 398 -89 "},"ĕ":{"ha":705,"x_min":0,"x_max":0,"o":"m 232 1007 b 357 874 232 926 277 874 b 483 1007 438 874 483 926 l 553 1007 b 357 814 553 890 481 814 b 163 1007 235 814 163 890 m 654 200 b 363 -12 633 78 518 -12 b 42 351 165 -12 42 127 b 357 717 42 570 166 717 b 663 369 545 717 663 579 l 663 331 l 134 331 l 134 326 b 365 67 134 166 224 67 b 565 200 471 67 545 123 m 356 638 b 135 402 230 638 142 541 l 570 402 b 356 638 568 541 484 638 "},"ḛ":{"ha":705,"x_min":0,"x_max":0,"o":"m 654 200 b 363 -12 633 78 518 -12 b 42 351 165 -12 42 127 b 357 717 42 570 166 717 b 663 369 545 717 663 579 l 663 331 l 134 331 l 134 326 b 365 67 134 166 224 67 b 565 200 471 67 545 123 m 356 638 b 135 402 230 638 142 541 l 570 402 b 356 638 568 541 484 638 m 441 -249 b 277 -151 346 -249 332 -151 b 223 -243 243 -151 223 -182 l 160 -243 b 281 -87 160 -148 204 -87 b 444 -185 375 -87 385 -185 b 502 -93 481 -185 502 -153 l 565 -93 b 441 -249 565 -187 519 -249 "},"ė":{"ha":705,"x_min":0,"x_max":0,"o":"m 357 852 b 298 911 325 852 298 878 b 357 971 298 945 325 971 b 418 911 391 971 418 945 b 357 852 418 878 391 852 m 654 200 b 363 -12 633 78 518 -12 b 42 351 165 -12 42 127 b 357 717 42 570 166 717 b 663 369 545 717 663 579 l 663 331 l 134 331 l 134 326 b 365 67 134 166 224 67 b 565 200 471 67 545 123 m 356 638 b 135 402 230 638 142 541 l 570 402 b 356 638 568 541 484 638 "},"ȩ":{"ha":705,"x_min":0,"x_max":0,"o":"m 293 -106 l 337 -11 b 42 351 155 1 42 136 b 357 717 42 570 166 717 b 663 369 545 717 663 579 l 663 331 l 134 331 l 134 326 b 365 67 134 166 224 67 b 565 200 471 67 545 123 l 654 200 b 406 -9 635 90 539 6 l 368 -89 b 511 -197 456 -91 511 -130 b 354 -316 511 -272 441 -315 b 258 -306 318 -317 276 -312 l 258 -248 b 336 -257 273 -252 304 -257 b 435 -199 387 -257 435 -237 b 336 -146 435 -163 402 -146 l 293 -146 m 356 638 b 135 402 230 638 142 541 l 570 402 b 356 638 568 541 484 638 "},"ḝ":{"ha":705,"x_min":0,"x_max":0,"o":"m 232 1007 b 357 874 232 926 277 874 b 483 1007 438 874 483 926 l 553 1007 b 357 814 553 890 481 814 b 163 1007 235 814 163 890 m 293 -106 l 337 -11 b 42 351 155 1 42 136 b 357 717 42 570 166 717 b 663 369 545 717 663 579 l 663 331 l 134 331 l 134 326 b 365 67 134 166 224 67 b 565 200 471 67 545 123 l 654 200 b 406 -9 635 90 539 6 l 368 -89 b 511 -197 456 -91 511 -130 b 354 -316 511 -272 441 -315 b 258 -306 318 -317 276 -312 l 258 -248 b 336 -257 273 -252 304 -257 b 435 -199 387 -257 435 -237 b 336 -146 435 -163 402 -146 l 293 -146 m 356 638 b 135 402 230 638 142 541 l 570 402 b 356 638 568 541 484 638 "},"ę":{"ha":705,"x_min":0,"x_max":0,"o":"m 483 -270 b 347 -155 410 -270 347 -233 b 428 -6 347 -104 369 -58 b 363 -12 408 -9 385 -12 b 42 351 165 -12 42 127 b 357 717 42 570 166 717 b 663 369 545 717 663 579 l 663 331 l 134 331 l 134 326 b 365 67 134 166 224 67 b 565 200 471 67 545 123 l 654 200 b 553 45 643 137 607 82 b 429 -132 485 -14 429 -73 b 500 -201 429 -164 445 -201 b 555 -192 517 -201 536 -198 l 555 -257 b 483 -270 532 -265 507 -270 m 356 638 b 135 402 230 638 142 541 l 570 402 b 356 638 568 541 484 638 "},"f":{"ha":394,"x_min":0,"x_max":0,"o":"m 113 631 l 15 631 l 15 705 l 113 705 l 113 795 b 294 981 113 922 176 981 b 359 975 318 981 344 978 l 359 901 b 307 906 345 904 326 906 b 203 793 239 906 203 871 l 203 705 l 355 705 l 355 631 l 203 631 l 203 0 l 113 0 "},"ḟ":{"ha":394,"x_min":0,"x_max":0,"o":"m 230 1097 b 170 1156 197 1097 170 1123 b 230 1216 170 1190 197 1216 b 290 1156 263 1216 290 1190 b 230 1097 290 1123 263 1097 m 113 631 l 15 631 l 15 705 l 113 705 l 113 795 b 294 981 113 922 176 981 b 359 975 318 981 344 978 l 359 901 b 307 906 345 904 326 906 b 203 793 239 906 203 871 l 203 705 l 355 705 l 355 631 l 203 631 l 203 0 l 113 0 "},"g":{"ha":751,"x_min":0,"x_max":0,"o":"m 365 -261 b 75 -65 211 -261 95 -176 l 168 -65 b 369 -184 191 -134 267 -184 b 583 8 501 -184 583 -107 l 583 150 l 581 150 b 340 -7 543 59 452 -7 b 42 355 161 -7 42 136 b 342 717 42 574 161 717 b 586 556 454 717 545 652 l 588 556 l 588 705 l 673 705 l 673 12 b 365 -261 673 -153 553 -261 m 356 73 b 583 355 492 73 583 186 b 356 637 583 524 492 637 b 134 354 223 637 134 526 b 356 73 134 184 223 73 "},"ǵ":{"ha":751,"x_min":0,"x_max":0,"o":"m 330 813 l 456 1017 l 555 1017 l 401 813 m 365 -261 b 75 -65 211 -261 95 -176 l 168 -65 b 369 -184 191 -134 267 -184 b 583 8 501 -184 583 -107 l 583 150 l 581 150 b 340 -7 543 59 452 -7 b 42 355 161 -7 42 136 b 342 717 42 574 161 717 b 586 556 454 717 545 652 l 588 556 l 588 705 l 673 705 l 673 12 b 365 -261 673 -153 553 -261 m 356 73 b 583 355 492 73 583 186 b 356 637 583 524 492 637 b 134 354 223 637 134 526 b 356 73 134 184 223 73 "},"ǧ":{"ha":751,"x_min":0,"x_max":0,"o":"m 158 1017 l 242 1017 l 363 872 l 367 872 l 488 1017 l 572 1017 l 401 813 l 330 813 m 365 -261 b 75 -65 211 -261 95 -176 l 168 -65 b 369 -184 191 -134 267 -184 b 583 8 501 -184 583 -107 l 583 150 l 581 150 b 340 -7 543 59 452 -7 b 42 355 161 -7 42 136 b 342 717 42 574 161 717 b 586 556 454 717 545 652 l 588 556 l 588 705 l 673 705 l 673 12 b 365 -261 673 -153 553 -261 m 356 73 b 583 355 492 73 583 186 b 356 637 583 524 492 637 b 134 354 223 637 134 526 b 356 73 134 184 223 73 "},"ĝ":{"ha":751,"x_min":0,"x_max":0,"o":"m 572 813 l 488 813 l 367 958 l 363 958 l 242 813 l 158 813 l 330 1017 l 401 1017 m 365 -261 b 75 -65 211 -261 95 -176 l 168 -65 b 369 -184 191 -134 267 -184 b 583 8 501 -184 583 -107 l 583 150 l 581 150 b 340 -7 543 59 452 -7 b 42 355 161 -7 42 136 b 342 717 42 574 161 717 b 586 556 454 717 545 652 l 588 556 l 588 705 l 673 705 l 673 12 b 365 -261 673 -153 553 -261 m 356 73 b 583 355 492 73 583 186 b 356 637 583 524 492 637 b 134 354 223 637 134 526 b 356 73 134 184 223 73 "},"ğ":{"ha":751,"x_min":0,"x_max":0,"o":"m 240 1007 b 366 874 240 926 285 874 b 491 1007 446 874 491 926 l 560 1007 b 366 814 560 890 488 814 b 170 1007 242 814 170 890 m 365 -261 b 75 -65 211 -261 95 -176 l 168 -65 b 369 -184 191 -134 267 -184 b 583 8 501 -184 583 -107 l 583 150 l 581 150 b 340 -7 543 59 452 -7 b 42 355 161 -7 42 136 b 342 717 42 574 161 717 b 586 556 454 717 545 652 l 588 556 l 588 705 l 673 705 l 673 12 b 365 -261 673 -153 553 -261 m 356 73 b 583 355 492 73 583 186 b 356 637 583 524 492 637 b 134 354 223 637 134 526 b 356 73 134 184 223 73 "},"ḡ":{"ha":751,"x_min":0,"x_max":0,"o":"m 548 875 l 182 875 l 182 939 l 548 939 m 365 -261 b 75 -65 211 -261 95 -176 l 168 -65 b 369 -184 191 -134 267 -184 b 583 8 501 -184 583 -107 l 583 150 l 581 150 b 340 -7 543 59 452 -7 b 42 355 161 -7 42 136 b 342 717 42 574 161 717 b 586 556 454 717 545 652 l 588 556 l 588 705 l 673 705 l 673 12 b 365 -261 673 -153 553 -261 m 356 73 b 583 355 492 73 583 186 b 356 637 583 524 492 637 b 134 354 223 637 134 526 b 356 73 134 184 223 73 "},"ġ":{"ha":751,"x_min":0,"x_max":0,"o":"m 366 852 b 305 911 332 852 305 878 b 366 971 305 945 332 971 b 425 911 399 971 425 945 b 366 852 425 878 399 852 m 365 -261 b 75 -65 211 -261 95 -176 l 168 -65 b 369 -184 191 -134 267 -184 b 583 8 501 -184 583 -107 l 583 150 l 581 150 b 340 -7 543 59 452 -7 b 42 355 161 -7 42 136 b 342 717 42 574 161 717 b 586 556 454 717 545 652 l 588 556 l 588 705 l 673 705 l 673 12 b 365 -261 673 -153 553 -261 m 356 73 b 583 355 492 73 583 186 b 356 637 583 524 492 637 b 134 354 223 637 134 526 b 356 73 134 184 223 73 "},"ģ":{"ha":751,"x_min":0,"x_max":0,"o":"m 480 1051 l 408 813 l 323 813 l 410 1051 m 365 -261 b 75 -65 211 -261 95 -176 l 168 -65 b 369 -184 191 -134 267 -184 b 583 8 501 -184 583 -107 l 583 150 l 581 150 b 340 -7 543 59 452 -7 b 42 355 161 -7 42 136 b 342 717 42 574 161 717 b 586 556 454 717 545 652 l 588 556 l 588 705 l 673 705 l 673 12 b 365 -261 673 -153 553 -261 m 356 73 b 583 355 492 73 583 186 b 356 637 583 524 492 637 b 134 354 223 637 134 526 b 356 73 134 184 223 73 "},"h":{"ha":734,"x_min":0,"x_max":0,"o":"m 83 979 l 174 979 l 174 575 l 176 575 b 408 717 212 662 296 717 b 661 456 563 717 661 614 l 661 0 l 570 0 l 570 441 b 382 637 570 563 502 637 b 174 415 256 637 174 548 l 174 0 l 83 0 "},"ḧ":{"ha":734,"x_min":0,"x_max":0,"o":"m 13 1101 b -47 1160 -20 1101 -47 1128 b 13 1221 -47 1194 -20 1221 b 73 1160 47 1221 73 1194 b 13 1101 73 1128 47 1101 m 245 1101 b 185 1160 212 1101 185 1128 b 245 1221 185 1194 212 1221 b 305 1160 278 1221 305 1194 b 245 1101 305 1128 278 1101 m 83 979 l 174 979 l 174 575 l 176 575 b 408 717 212 662 296 717 b 661 456 563 717 661 614 l 661 0 l 570 0 l 570 441 b 382 637 570 563 502 637 b 174 415 256 637 174 548 l 174 0 l 83 0 "},"ȟ":{"ha":734,"x_min":0,"x_max":0,"o":"m 94 1053 l -87 1252 l -1 1252 l 127 1109 l 131 1109 l 259 1252 l 346 1252 l 164 1053 m 83 979 l 174 979 l 174 575 l 176 575 b 408 717 212 662 296 717 b 661 456 563 717 661 614 l 661 0 l 570 0 l 570 441 b 382 637 570 563 502 637 b 174 415 256 637 174 548 l 174 0 l 83 0 "},"ĥ":{"ha":734,"x_min":0,"x_max":0,"o":"m 164 1252 l 346 1053 l 259 1053 l 131 1196 l 127 1196 l -1 1053 l -87 1053 l 94 1252 m 83 979 l 174 979 l 174 575 l 176 575 b 408 717 212 662 296 717 b 661 456 563 717 661 614 l 661 0 l 570 0 l 570 441 b 382 637 570 563 502 637 b 174 415 256 637 174 548 l 174 0 l 83 0 "},"ḥ":{"ha":734,"x_min":0,"x_max":0,"o":"m 83 979 l 174 979 l 174 575 l 176 575 b 408 717 212 662 296 717 b 661 456 563 717 661 614 l 661 0 l 570 0 l 570 441 b 382 637 570 563 502 637 b 174 415 256 637 174 548 l 174 0 l 83 0 m 372 -227 b 311 -168 338 -227 311 -201 b 372 -108 311 -134 338 -108 b 431 -168 405 -108 431 -134 b 372 -227 431 -201 405 -227 "},"ḣ":{"ha":734,"x_min":0,"x_max":0,"o":"m 129 1101 b 69 1160 96 1101 69 1128 b 129 1221 69 1194 96 1221 b 189 1160 162 1221 189 1194 b 129 1101 189 1128 162 1101 m 83 979 l 174 979 l 174 575 l 176 575 b 408 717 212 662 296 717 b 661 456 563 717 661 614 l 661 0 l 570 0 l 570 441 b 382 637 570 563 502 637 b 174 415 256 637 174 548 l 174 0 l 83 0 "},"ḫ":{"ha":734,"x_min":0,"x_max":0,"o":"m 83 979 l 174 979 l 174 575 l 176 575 b 408 717 212 662 296 717 b 661 456 563 717 661 614 l 661 0 l 570 0 l 570 441 b 382 637 570 563 502 637 b 174 415 256 637 174 548 l 174 0 l 83 0 m 246 -71 b 372 -204 246 -153 291 -204 b 497 -71 452 -204 497 -153 l 566 -71 b 372 -264 566 -187 494 -264 b 176 -71 248 -264 176 -187 "},"ḩ":{"ha":734,"x_min":0,"x_max":0,"o":"m 83 979 l 174 979 l 174 575 l 176 575 b 408 717 212 662 296 717 b 661 456 563 717 661 614 l 661 0 l 570 0 l 570 441 b 382 637 570 563 502 637 b 174 415 256 637 174 548 l 174 0 l 132 -89 b 274 -197 219 -91 274 -130 b 117 -316 274 -272 204 -315 b 21 -306 81 -317 39 -312 l 21 -248 b 100 -257 35 -252 67 -257 b 199 -199 151 -257 199 -237 b 98 -146 199 -163 165 -146 l 56 -146 l 56 -106 l 105 0 l 83 0 "},"ħ":{"ha":734,"x_min":0,"x_max":0,"o":"m 83 831 l -2 831 l -2 897 l 83 897 l 83 979 l 174 979 l 174 897 l 373 897 l 373 831 l 174 831 l 174 575 l 176 575 b 408 717 212 662 296 717 b 661 456 563 717 661 614 l 661 0 l 570 0 l 570 441 b 382 637 570 563 502 637 b 174 415 256 637 174 548 l 174 0 l 83 0 "},"ẖ":{"ha":734,"x_min":0,"x_max":0,"o":"m 83 979 l 174 979 l 174 575 l 176 575 b 408 717 212 662 296 717 b 661 456 563 717 661 614 l 661 0 l 570 0 l 570 441 b 382 637 570 563 502 637 b 174 415 256 637 174 548 l 174 0 l 83 0 m 554 -200 l 189 -200 l 189 -136 l 554 -136 "},"i":{"ha":256,"x_min":0,"x_max":0,"o":"m 128 852 b 68 911 96 852 68 878 b 128 971 68 945 96 971 b 189 911 161 971 189 945 b 128 852 189 878 161 852 m 83 705 l 173 705 l 173 0 l 83 0 "},"ì":{"ha":256,"x_min":0,"x_max":0,"o":"m -62 1017 l 38 1017 l 164 813 l 92 813 m 83 705 l 173 705 l 173 0 l 83 0 "},"ȉ":{"ha":256,"x_min":0,"x_max":0,"o":"m 192 813 l 68 1017 l 164 1017 l 258 813 m 3 813 l -146 1017 l -47 1017 l 75 813 m 83 705 l 173 705 l 173 0 l 83 0 "},"í":{"ha":256,"x_min":0,"x_max":0,"o":"m 92 813 l 218 1017 l 318 1017 l 165 813 m 83 705 l 173 705 l 173 0 l 83 0 "},"î":{"ha":256,"x_min":0,"x_max":0,"o":"m 336 813 l 252 813 l 130 958 l 127 958 l 5 813 l -79 813 l 93 1017 l 163 1017 m 83 705 l 173 705 l 173 0 l 83 0 "},"ǐ":{"ha":256,"x_min":0,"x_max":0,"o":"m -79 1017 l 5 1017 l 127 872 l 130 872 l 252 1017 l 336 1017 l 163 813 l 93 813 m 83 705 l 173 705 l 173 0 l 83 0 "},"ï":{"ha":256,"x_min":0,"x_max":0,"o":"m 12 852 b -47 911 -20 852 -47 878 b 12 971 -47 945 -20 971 b 73 911 46 971 73 945 b 12 852 73 878 46 852 m 244 852 b 184 911 212 852 184 878 b 244 971 184 945 212 971 b 304 911 277 971 304 945 b 244 852 304 878 277 852 m 83 705 l 173 705 l 173 0 l 83 0 "},"ḯ":{"ha":256,"x_min":0,"x_max":0,"o":"m 227 1227 l 315 1227 l 151 1024 l 76 1024 m 12 821 b -47 881 -20 821 -47 848 b 12 941 -47 914 -20 941 b 73 881 46 941 73 914 b 12 821 73 848 46 821 m 244 821 b 184 881 212 821 184 848 b 244 941 184 914 212 941 b 304 881 277 941 304 914 b 244 821 304 848 277 821 m 83 705 l 173 705 l 173 0 l 83 0 "},"ĭ":{"ha":256,"x_min":0,"x_max":0,"o":"m 3 1007 b 128 874 3 926 47 874 b 254 1007 209 874 254 926 l 323 1007 b 128 814 323 890 252 814 b -66 1007 5 814 -66 890 m 83 705 l 173 705 l 173 0 l 83 0 "},"ị":{"ha":256,"x_min":0,"x_max":0,"o":"m 128 852 b 68 911 96 852 68 878 b 128 971 68 945 96 971 b 189 911 161 971 189 945 b 128 852 189 878 161 852 m 83 705 l 173 705 l 173 0 l 83 0 m 128 -227 b 68 -168 96 -227 68 -201 b 128 -108 68 -134 96 -108 b 189 -168 161 -108 189 -134 b 128 -227 189 -201 161 -227 "},"ȋ":{"ha":256,"x_min":0,"x_max":0,"o":"m 254 814 b 128 947 254 896 209 947 b 3 814 47 947 3 896 l -66 814 b 128 1007 -66 930 5 1007 b 323 814 252 1007 323 930 m 83 705 l 173 705 l 173 0 l 83 0 "},"ī":{"ha":256,"x_min":0,"x_max":0,"o":"m 283 875 l -27 875 l -27 939 l 283 939 m 83 705 l 173 705 l 173 0 l 83 0 "},"ḭ":{"ha":256,"x_min":0,"x_max":0,"o":"m 128 852 b 68 911 96 852 68 878 b 128 971 68 945 96 971 b 189 911 161 971 189 945 b 128 852 189 878 161 852 m 83 705 l 173 705 l 173 0 l 83 0 m 207 -249 b 43 -151 112 -249 97 -151 b -12 -243 9 -151 -12 -182 l -74 -243 b 47 -87 -74 -148 -30 -87 b 209 -185 141 -87 151 -185 b 268 -93 247 -185 268 -153 l 331 -93 b 207 -249 331 -187 286 -249 "},"ỉ":{"ha":256,"x_min":0,"x_max":0,"o":"m 49 1004 b 133 1021 74 1015 100 1021 b 252 913 205 1021 252 978 b 156 792 252 861 213 814 l 122 838 b 182 909 161 852 182 875 b 117 964 182 940 155 964 b 49 946 94 964 75 959 m 83 705 l 173 705 l 173 0 l 83 0 "},"ĩ":{"ha":256,"x_min":0,"x_max":0,"o":"m 207 826 b 43 924 112 826 97 924 b -12 832 8 924 -12 893 l -75 832 b 47 988 -75 927 -31 988 b 209 890 140 988 151 890 b 268 982 246 890 268 923 l 330 982 b 207 826 330 888 285 826 m 83 705 l 173 705 l 173 0 l 83 0 "},"į":{"ha":256,"x_min":0,"x_max":0,"o":"m 128 852 b 68 911 96 852 68 878 b 128 971 68 945 96 971 b 189 911 161 971 189 945 b 128 852 189 878 161 852 m 104 -270 b -37 -153 33 -270 -37 -236 b 83 10 -37 -92 -1 -39 l 83 705 l 173 705 l 173 0 b 44 -134 104 -32 44 -75 b 122 -201 44 -187 85 -201 b 170 -194 140 -201 159 -198 l 170 -259 b 104 -270 150 -265 127 -270 "},"j":{"ha":256,"x_min":0,"x_max":0,"o":"m 127 852 b 68 911 95 852 68 878 b 127 971 68 945 95 971 b 188 911 161 971 188 945 b 127 852 188 878 161 852 m 173 -45 b -30 -241 173 -180 110 -241 b -52 -240 -32 -241 -51 -241 l -52 -164 l -33 -164 b 83 -46 51 -164 83 -131 l 83 705 l 173 705 "},"ĵ":{"ha":256,"x_min":0,"x_max":0,"o":"m 335 813 l 251 813 l 130 958 l 126 958 l 5 813 l -79 813 l 92 1017 l 163 1017 m 173 -45 b -30 -241 173 -180 110 -241 b -52 -240 -32 -241 -51 -241 l -52 -164 l -33 -164 b 83 -46 51 -164 83 -131 l 83 705 l 173 705 "},"k":{"ha":649,"x_min":0,"x_max":0,"o":"m 522 705 l 633 705 l 317 401 l 640 0 l 534 0 l 252 346 l 174 273 l 174 0 l 83 0 l 83 979 l 174 979 l 174 372 "},"ḱ":{"ha":649,"x_min":0,"x_max":0,"o":"m 98 1056 l 224 1252 l 326 1252 l 171 1056 m 522 705 l 633 705 l 317 401 l 640 0 l 534 0 l 252 346 l 174 273 l 174 0 l 83 0 l 83 979 l 174 979 l 174 372 "},"ǩ":{"ha":649,"x_min":0,"x_max":0,"o":"m 93 1053 l -88 1252 l -1 1252 l 127 1109 l 130 1109 l 258 1252 l 345 1252 l 164 1053 m 522 705 l 633 705 l 317 401 l 640 0 l 534 0 l 252 346 l 174 273 l 174 0 l 83 0 l 83 979 l 174 979 l 174 372 "},"ḳ":{"ha":649,"x_min":0,"x_max":0,"o":"m 522 705 l 633 705 l 317 401 l 640 0 l 534 0 l 252 346 l 174 273 l 174 0 l 83 0 l 83 979 l 174 979 l 174 372 m 345 -227 b 285 -168 312 -227 285 -201 b 345 -108 285 -134 312 -108 b 405 -168 378 -108 405 -134 b 345 -227 405 -201 378 -227 "},"ḵ":{"ha":649,"x_min":0,"x_max":0,"o":"m 522 705 l 633 705 l 317 401 l 640 0 l 534 0 l 252 346 l 174 273 l 174 0 l 83 0 l 83 979 l 174 979 l 174 372 m 528 -200 l 162 -200 l 162 -136 l 528 -136 "},"ķ":{"ha":649,"x_min":0,"x_max":0,"o":"m 522 705 l 633 705 l 317 401 l 640 0 l 534 0 l 252 346 l 174 273 l 174 0 l 83 0 l 83 979 l 174 979 l 174 372 m 230 -328 l 302 -89 l 387 -89 l 300 -328 "},"l":{"ha":256,"x_min":0,"x_max":0,"o":"m 83 979 l 173 979 l 173 0 l 83 0 "},"ĺ":{"ha":256,"x_min":0,"x_max":0,"o":"m 98 1056 l 223 1252 l 326 1252 l 171 1056 m 83 979 l 173 979 l 173 0 l 83 0 "},"ḽ":{"ha":256,"x_min":0,"x_max":0,"o":"m 83 979 l 173 979 l 173 0 l 83 0 m 336 -293 l 252 -293 l 130 -148 l 127 -148 l 5 -293 l -79 -293 l 93 -89 l 163 -89 "},"ŀ":{"ha":383,"x_min":0,"x_max":0,"o":"m 83 979 l 173 979 l 173 0 l 83 0 m 320 395 b 256 458 285 395 256 423 b 320 522 256 494 285 522 b 383 458 355 522 383 494 b 320 395 383 423 355 395 "},"ḷ":{"ha":256,"x_min":0,"x_max":0,"o":"m 83 979 l 173 979 l 173 0 l 83 0 m 128 -227 b 68 -168 96 -227 68 -201 b 128 -108 68 -134 96 -108 b 189 -168 161 -108 189 -134 b 128 -227 189 -201 161 -227 "},"ḹ":{"ha":256,"x_min":0,"x_max":0,"o":"m 311 1124 l -54 1124 l -54 1189 l 311 1189 m 83 979 l 173 979 l 173 0 l 83 0 m 128 -227 b 68 -168 96 -227 68 -201 b 128 -108 68 -134 96 -108 b 189 -168 161 -108 189 -134 b 128 -227 189 -201 161 -227 "},"ḻ":{"ha":256,"x_min":0,"x_max":0,"o":"m 83 979 l 173 979 l 173 0 l 83 0 m 311 -200 l -54 -200 l -54 -136 l 311 -136 "},"ļ":{"ha":256,"x_min":0,"x_max":0,"o":"m 83 979 l 173 979 l 173 0 l 83 0 m 14 -328 l 85 -89 l 170 -89 l 83 -328 "},"ľ":{"ha":347,"x_min":0,"x_max":0,"o":"m 349 1017 l 332 724 l 271 724 l 271 1017 m 83 979 l 173 979 l 173 0 l 83 0 "},"ł":{"ha":256,"x_min":0,"x_max":0,"o":"m 83 469 l 3 427 l 3 503 l 83 544 l 83 979 l 173 979 l 173 590 l 254 631 l 254 557 l 173 515 l 173 0 l 83 0 "},"m":{"ha":1099,"x_min":0,"x_max":0,"o":"m 77 705 l 162 705 l 162 575 l 164 575 b 370 717 195 658 267 717 b 574 568 473 717 547 657 l 576 568 b 798 717 609 655 692 717 b 1026 482 936 717 1026 625 l 1026 0 l 937 0 l 937 462 b 773 637 937 571 876 637 b 597 444 669 637 597 557 l 597 0 l 507 0 l 507 470 b 345 637 507 571 441 637 b 167 433 241 637 167 553 l 167 0 l 77 0 "},"ḿ":{"ha":1099,"x_min":0,"x_max":0,"o":"m 516 813 l 642 1017 l 742 1017 l 588 813 m 77 705 l 162 705 l 162 575 l 164 575 b 370 717 195 658 267 717 b 574 568 473 717 547 657 l 576 568 b 798 717 609 655 692 717 b 1026 482 936 717 1026 625 l 1026 0 l 937 0 l 937 462 b 773 637 937 571 876 637 b 597 444 669 637 597 557 l 597 0 l 507 0 l 507 470 b 345 637 507 571 441 637 b 167 433 241 637 167 553 l 167 0 l 77 0 "},"ṁ":{"ha":1099,"x_min":0,"x_max":0,"o":"m 552 852 b 492 911 519 852 492 878 b 552 971 492 945 519 971 b 612 911 585 971 612 945 b 552 852 612 878 585 852 m 77 705 l 162 705 l 162 575 l 164 575 b 370 717 195 658 267 717 b 574 568 473 717 547 657 l 576 568 b 798 717 609 655 692 717 b 1026 482 936 717 1026 625 l 1026 0 l 937 0 l 937 462 b 773 637 937 571 876 637 b 597 444 669 637 597 557 l 597 0 l 507 0 l 507 470 b 345 637 507 571 441 637 b 167 433 241 637 167 553 l 167 0 l 77 0 "},"ṃ":{"ha":1099,"x_min":0,"x_max":0,"o":"m 77 705 l 162 705 l 162 575 l 164 575 b 370 717 195 658 267 717 b 574 568 473 717 547 657 l 576 568 b 798 717 609 655 692 717 b 1026 482 936 717 1026 625 l 1026 0 l 937 0 l 937 462 b 773 637 937 571 876 637 b 597 444 669 637 597 557 l 597 0 l 507 0 l 507 470 b 345 637 507 571 441 637 b 167 433 241 637 167 553 l 167 0 l 77 0 m 552 -227 b 492 -168 519 -227 492 -201 b 552 -108 492 -134 519 -108 b 612 -168 585 -108 612 -134 b 552 -227 612 -201 585 -227 "},"n":{"ha":720,"x_min":0,"x_max":0,"o":"m 77 705 l 162 705 l 162 575 l 164 575 b 397 717 200 661 283 717 b 646 457 551 717 646 617 l 646 0 l 557 0 l 557 443 b 371 637 557 566 489 637 b 167 418 249 637 167 549 l 167 0 l 77 0 "},"ǹ":{"ha":720,"x_min":0,"x_max":0,"o":"m 172 1017 l 272 1017 l 397 813 l 326 813 m 77 705 l 162 705 l 162 575 l 164 575 b 397 717 200 661 283 717 b 646 457 551 717 646 617 l 646 0 l 557 0 l 557 443 b 371 637 557 566 489 637 b 167 418 249 637 167 549 l 167 0 l 77 0 "},"ń":{"ha":720,"x_min":0,"x_max":0,"o":"m 326 813 l 452 1017 l 552 1017 l 398 813 m 77 705 l 162 705 l 162 575 l 164 575 b 397 717 200 661 283 717 b 646 457 551 717 646 617 l 646 0 l 557 0 l 557 443 b 371 637 557 566 489 637 b 167 418 249 637 167 549 l 167 0 l 77 0 "},"ñ":{"ha":720,"x_min":0,"x_max":0,"o":"m 441 826 b 277 924 345 826 331 924 b 222 832 242 924 222 893 l 159 832 b 281 988 159 927 203 988 b 443 890 374 988 385 890 b 501 982 480 890 501 923 l 564 982 b 441 826 564 888 519 826 m 77 705 l 162 705 l 162 575 l 164 575 b 397 717 200 661 283 717 b 646 457 551 717 646 617 l 646 0 l 557 0 l 557 443 b 371 637 557 566 489 637 b 167 418 249 637 167 549 l 167 0 l 77 0 "},"ṇ":{"ha":720,"x_min":0,"x_max":0,"o":"m 77 705 l 162 705 l 162 575 l 164 575 b 397 717 200 661 283 717 b 646 457 551 717 646 617 l 646 0 l 557 0 l 557 443 b 371 637 557 566 489 637 b 167 418 249 637 167 549 l 167 0 l 77 0 m 362 -227 b 302 -168 329 -227 302 -201 b 362 -108 302 -134 329 -108 b 422 -168 395 -108 422 -134 b 362 -227 422 -201 395 -227 "},"ṅ":{"ha":720,"x_min":0,"x_max":0,"o":"m 362 852 b 302 911 329 852 302 878 b 362 971 302 945 329 971 b 422 911 395 971 422 945 b 362 852 422 878 395 852 m 77 705 l 162 705 l 162 575 l 164 575 b 397 717 200 661 283 717 b 646 457 551 717 646 617 l 646 0 l 557 0 l 557 443 b 371 637 557 566 489 637 b 167 418 249 637 167 549 l 167 0 l 77 0 "},"ň":{"ha":720,"x_min":0,"x_max":0,"o":"m 155 1017 l 239 1017 l 360 872 l 363 872 l 486 1017 l 569 1017 l 397 813 l 327 813 m 77 705 l 162 705 l 162 575 l 164 575 b 397 717 200 661 283 717 b 646 457 551 717 646 617 l 646 0 l 557 0 l 557 443 b 371 637 557 566 489 637 b 167 418 249 637 167 549 l 167 0 l 77 0 "},"ṋ":{"ha":720,"x_min":0,"x_max":0,"o":"m 77 705 l 162 705 l 162 575 l 164 575 b 397 717 200 661 283 717 b 646 457 551 717 646 617 l 646 0 l 557 0 l 557 443 b 371 637 557 566 489 637 b 167 418 249 637 167 549 l 167 0 l 77 0 m 569 -293 l 486 -293 l 363 -148 l 360 -148 l 239 -293 l 155 -293 l 327 -89 l 397 -89 "},"ṉ":{"ha":720,"x_min":0,"x_max":0,"o":"m 77 705 l 162 705 l 162 575 l 164 575 b 397 717 200 661 283 717 b 646 457 551 717 646 617 l 646 0 l 557 0 l 557 443 b 371 637 557 566 489 637 b 167 418 249 637 167 549 l 167 0 l 77 0 m 545 -200 l 179 -200 l 179 -136 l 545 -136 "},"ņ":{"ha":720,"x_min":0,"x_max":0,"o":"m 77 705 l 162 705 l 162 575 l 164 575 b 397 717 200 661 283 717 b 646 457 551 717 646 617 l 646 0 l 557 0 l 557 443 b 371 637 557 566 489 637 b 167 418 249 637 167 549 l 167 0 l 77 0 m 247 -328 l 319 -89 l 404 -89 l 317 -328 "},"o":{"ha":727,"x_min":0,"x_max":0,"o":"m 363 -12 b 42 353 172 -12 42 129 b 363 717 42 577 172 717 b 685 353 555 717 685 577 b 363 -12 685 129 555 -12 m 363 68 b 594 353 502 68 594 174 b 363 637 594 532 502 637 b 134 353 225 637 134 532 b 363 68 134 174 225 68 "},"ö":{"ha":727,"x_min":0,"x_max":0,"o":"m 248 851 b 188 911 215 851 188 878 b 248 971 188 945 215 971 b 308 911 281 971 308 945 b 248 851 308 878 281 851 m 479 851 b 420 911 447 851 420 878 b 479 971 420 945 447 971 b 540 911 513 971 540 945 b 479 851 540 878 513 851 m 363 -12 b 42 353 172 -12 42 129 b 363 717 42 577 172 717 b 685 353 555 717 685 577 b 363 -12 685 129 555 -12 m 363 68 b 594 353 502 68 594 174 b 363 637 594 532 502 637 b 134 353 225 637 134 532 b 363 68 134 174 225 68 "},"ø":{"ha":727,"x_min":0,"x_max":0,"o":"m 363 -12 b 179 43 292 -12 230 7 l 132 -22 l 79 14 l 131 86 b 42 353 75 149 42 241 b 363 717 42 577 172 717 b 548 662 435 717 497 698 l 601 735 l 652 701 l 594 621 b 685 353 652 558 685 466 b 363 -12 685 129 555 -12 m 131 353 b 182 157 131 272 149 205 l 500 596 b 363 642 463 626 417 642 b 131 353 223 642 131 534 m 363 64 b 597 353 504 64 597 172 b 543 551 597 435 578 502 l 227 109 b 363 64 263 80 310 64 "},"õ":{"ha":727,"x_min":0,"x_max":0,"o":"m 442 826 b 279 924 347 826 333 924 b 224 832 244 924 224 893 l 161 832 b 283 988 161 927 205 988 b 445 890 376 988 387 890 b 503 982 482 890 503 922 l 566 982 b 442 826 566 887 521 826 m 363 -12 b 42 353 172 -12 42 129 b 363 717 42 577 172 717 b 685 353 555 717 685 577 b 363 -12 685 129 555 -12 m 363 68 b 594 353 502 68 594 174 b 363 637 594 532 502 637 b 134 353 225 637 134 532 b 363 68 134 174 225 68 "},"ó":{"ha":727,"x_min":0,"x_max":0,"o":"m 328 812 l 454 1017 l 554 1017 l 400 812 m 363 -12 b 42 353 172 -12 42 129 b 363 717 42 577 172 717 b 685 353 555 717 685 577 b 363 -12 685 129 555 -12 m 363 68 b 594 353 502 68 594 174 b 363 637 594 532 502 637 b 134 353 225 637 134 532 b 363 68 134 174 225 68 "},"ô":{"ha":727,"x_min":0,"x_max":0,"o":"m 571 812 l 487 812 l 366 958 l 362 958 l 241 812 l 157 812 l 328 1017 l 399 1017 m 363 -12 b 42 353 172 -12 42 129 b 363 717 42 577 172 717 b 685 353 555 717 685 577 b 363 -12 685 129 555 -12 m 363 68 b 594 353 502 68 594 174 b 363 637 594 532 502 637 b 134 353 225 637 134 532 b 363 68 134 174 225 68 "},"ò":{"ha":727,"x_min":0,"x_max":0,"o":"m 174 1017 l 273 1017 l 399 812 l 328 812 m 363 -12 b 42 353 172 -12 42 129 b 363 717 42 577 172 717 b 685 353 555 717 685 577 b 363 -12 685 129 555 -12 m 363 68 b 594 353 502 68 594 174 b 363 637 594 532 502 637 b 134 353 225 637 134 532 b 363 68 134 174 225 68 "},"ổ":{"ha":727,"x_min":0,"x_max":0,"o":"m 427 1185 b 501 1202 441 1194 473 1202 b 622 1099 574 1202 622 1161 b 538 986 622 1046 591 1005 l 500 1025 b 558 1095 536 1039 558 1065 b 496 1146 558 1124 532 1146 b 427 1131 471 1146 446 1141 m 583 812 l 496 812 l 366 950 l 362 950 l 232 812 l 145 812 l 328 1006 l 399 1006 m 363 -12 b 42 353 172 -12 42 129 b 363 717 42 577 172 717 b 685 353 555 717 685 577 b 363 -12 685 129 555 -12 m 363 68 b 594 353 502 68 594 174 b 363 637 594 532 502 637 b 134 353 225 637 134 532 b 363 68 134 174 225 68 "},"ồ":{"ha":727,"x_min":0,"x_max":0,"o":"m 551 1006 l 388 1209 l 475 1209 l 627 1006 m 583 812 l 496 812 l 366 950 l 362 950 l 232 812 l 145 812 l 328 1006 l 399 1006 m 363 -12 b 42 353 172 -12 42 129 b 363 717 42 577 172 717 b 685 353 555 717 685 577 b 363 -12 685 129 555 -12 m 363 68 b 594 353 502 68 594 174 b 363 637 594 532 502 637 b 134 353 225 637 134 532 b 363 68 134 174 225 68 "},"ọ":{"ha":727,"x_min":0,"x_max":0,"o":"m 363 -12 b 42 353 172 -12 42 129 b 363 717 42 577 172 717 b 685 353 555 717 685 577 b 363 -12 685 129 555 -12 m 363 68 b 594 353 502 68 594 174 b 363 637 594 532 502 637 b 134 353 225 637 134 532 b 363 68 134 174 225 68 m 364 -227 b 304 -168 331 -227 304 -201 b 364 -108 304 -134 331 -108 b 424 -168 397 -108 424 -134 b 364 -227 424 -201 397 -227 "},"ȍ":{"ha":727,"x_min":0,"x_max":0,"o":"m 427 812 l 304 1017 l 399 1017 l 494 812 m 239 812 l 89 1017 l 189 1017 l 311 812 m 363 -12 b 42 353 172 -12 42 129 b 363 717 42 577 172 717 b 685 353 555 717 685 577 b 363 -12 685 129 555 -12 m 363 68 b 594 353 502 68 594 174 b 363 637 594 532 502 637 b 134 353 225 637 134 532 b 363 68 134 174 225 68 "},"ṍ":{"ha":727,"x_min":0,"x_max":0,"o":"m 437 1227 l 525 1227 l 390 1041 l 314 1041 m 443 790 b 279 888 347 790 333 888 b 224 795 244 888 224 857 l 161 795 b 283 952 161 891 205 952 b 445 854 376 952 387 854 b 503 946 482 854 503 886 l 566 946 b 443 790 566 851 521 790 m 363 -12 b 42 353 172 -12 42 129 b 363 717 42 577 172 717 b 685 353 555 717 685 577 b 363 -12 685 129 555 -12 m 363 68 b 594 353 502 68 594 174 b 363 637 594 532 502 637 b 134 353 225 637 134 532 b 363 68 134 174 225 68 "},"ṓ":{"ha":727,"x_min":0,"x_max":0,"o":"m 463 1223 l 550 1223 l 387 1019 l 311 1019 m 547 867 l 181 867 l 181 932 l 547 932 m 363 -12 b 42 353 172 -12 42 129 b 363 717 42 577 172 717 b 685 353 555 717 685 577 b 363 -12 685 129 555 -12 m 363 68 b 594 353 502 68 594 174 b 363 637 594 532 502 637 b 134 353 225 637 134 532 b 363 68 134 174 225 68 "},"ỗ":{"ha":727,"x_min":0,"x_max":0,"o":"m 450 1070 b 278 1171 363 1070 336 1171 b 224 1083 243 1171 222 1137 l 162 1083 b 279 1231 162 1174 207 1231 b 450 1130 365 1231 392 1130 b 503 1218 485 1130 503 1163 l 566 1218 b 450 1070 566 1129 519 1070 m 583 831 l 496 831 l 366 968 l 362 968 l 232 831 l 145 831 l 328 1023 l 399 1023 m 363 -12 b 42 353 172 -12 42 129 b 363 717 42 577 172 717 b 685 353 555 717 685 577 b 363 -12 685 129 555 -12 m 363 68 b 594 353 502 68 594 174 b 363 637 594 532 502 637 b 134 353 225 637 134 532 b 363 68 134 174 225 68 "},"ȱ":{"ha":727,"x_min":0,"x_max":0,"o":"m 547 1055 l 181 1055 l 181 1120 l 547 1120 m 364 836 b 298 902 328 836 298 865 b 364 968 298 938 328 968 b 430 902 399 968 430 938 b 364 836 430 865 399 836 m 363 -12 b 42 353 172 -12 42 129 b 363 717 42 577 172 717 b 685 353 555 717 685 577 b 363 -12 685 129 555 -12 m 363 68 b 594 353 502 68 594 174 b 363 637 594 532 502 637 b 134 353 225 637 134 532 b 363 68 134 174 225 68 "},"ṑ":{"ha":727,"x_min":0,"x_max":0,"o":"m 341 1019 l 178 1223 l 265 1223 l 416 1019 m 547 867 l 181 867 l 181 932 l 547 932 m 363 -12 b 42 353 172 -12 42 129 b 363 717 42 577 172 717 b 685 353 555 717 685 577 b 363 -12 685 129 555 -12 m 363 68 b 594 353 502 68 594 174 b 363 637 594 532 502 637 b 134 353 225 637 134 532 b 363 68 134 174 225 68 "},"ǒ":{"ha":727,"x_min":0,"x_max":0,"o":"m 157 1017 l 241 1017 l 362 872 l 366 872 l 487 1017 l 571 1017 l 399 812 l 328 812 m 363 -12 b 42 353 172 -12 42 129 b 363 717 42 577 172 717 b 685 353 555 717 685 577 b 363 -12 685 129 555 -12 m 363 68 b 594 353 502 68 594 174 b 363 637 594 532 502 637 b 134 353 225 637 134 532 b 363 68 134 174 225 68 "},"ǿ":{"ha":727,"x_min":0,"x_max":0,"o":"m 328 813 l 454 1017 l 554 1017 l 400 813 m 363 -12 b 179 43 292 -12 230 7 l 132 -22 l 79 14 l 131 86 b 42 353 75 149 42 241 b 363 717 42 577 172 717 b 548 662 435 717 497 698 l 601 735 l 652 701 l 594 621 b 685 353 652 558 685 466 b 363 -12 685 129 555 -12 m 131 353 b 182 157 131 272 149 205 l 500 596 b 363 642 463 626 417 642 b 131 353 223 642 131 534 m 363 64 b 597 353 504 64 597 172 b 543 551 597 435 578 502 l 227 109 b 363 64 263 80 310 64 "},"ő":{"ha":727,"x_min":0,"x_max":0,"o":"m 328 1017 l 424 1017 l 300 812 l 233 812 m 539 1017 l 639 1017 l 489 812 l 417 812 m 363 -12 b 42 353 172 -12 42 129 b 363 717 42 577 172 717 b 685 353 555 717 685 577 b 363 -12 685 129 555 -12 m 363 68 b 594 353 502 68 594 174 b 363 637 594 532 502 637 b 134 353 225 637 134 532 b 363 68 134 174 225 68 "},"ŏ":{"ha":727,"x_min":0,"x_max":0,"o":"m 239 1007 b 364 874 239 925 283 874 b 490 1007 445 874 490 925 l 559 1007 b 364 814 559 890 487 814 b 169 1007 241 814 169 890 m 363 -12 b 42 353 172 -12 42 129 b 363 717 42 577 172 717 b 685 353 555 717 685 577 b 363 -12 685 129 555 -12 m 363 68 b 594 353 502 68 594 174 b 363 637 594 532 502 637 b 134 353 225 637 134 532 b 363 68 134 174 225 68 "},"ȏ":{"ha":727,"x_min":0,"x_max":0,"o":"m 490 814 b 364 947 490 895 445 947 b 239 814 283 947 239 895 l 169 814 b 364 1007 169 930 241 1007 b 559 814 487 1007 559 930 m 363 -12 b 42 353 172 -12 42 129 b 363 717 42 577 172 717 b 685 353 555 717 685 577 b 363 -12 685 129 555 -12 m 363 68 b 594 353 502 68 594 174 b 363 637 594 532 502 637 b 134 353 225 637 134 532 b 363 68 134 174 225 68 "},"ỏ":{"ha":727,"x_min":0,"x_max":0,"o":"m 284 1003 b 369 1021 310 1015 336 1021 b 487 912 441 1021 487 978 b 391 792 487 861 449 814 l 357 837 b 417 909 397 851 417 874 b 353 964 417 940 390 964 b 284 945 330 964 310 958 m 363 -12 b 42 353 172 -12 42 129 b 363 717 42 577 172 717 b 685 353 555 717 685 577 b 363 -12 685 129 555 -12 m 363 68 b 594 353 502 68 594 174 b 363 637 594 532 502 637 b 134 353 225 637 134 532 b 363 68 134 174 225 68 "}}}
